AnnotationMono_Regular[slnt=-15].ufo
<glyph name="exclam" format="2">
  <advance width="500"/>
  <unicode hex="0021"/>
  <outline>
    <contour>
      <point x="363.9131089981226" y="608" type="curve" smooth="yes"/>
      <point x="391.9131089981226" y="608"/>
      <point x="401.62592191922465" y="592"/>
      <point x="394.39129372358434" y="565" type="curve" smooth="yes"/>
      <point x="381.4579357171659" y="513"/>
      <point x="351.0027624362093" y="418"/>
      <point x="339.3565915086889" y="382" type="curve" smooth="yes"/>
      <point x="317.13604642337253" y="314"/>
      <point x="303.8103835715409" y="268"/>
      <point x="298.5231964926429" y="252" type="curve" smooth="yes"/>
      <point x="283.661635255949" y="204"/>
      <point x="273.08726109815314" y="172"/>
      <point x="246.0872610981531" y="172" type="curve" smooth="yes"/>
      <point x="218.0872610981531" y="172"/>
      <point x="224.1257368710868" y="202"/>
      <point x="234.79114568507404" y="253" type="curve" smooth="yes"/>
      <point x="236.934739224523" y="261"/>
      <point x="254.83477623415058" y="339"/>
      <point x="263.3565915086889" y="382" type="curve" smooth="yes"/>
      <point x="267.7155753573113" y="402"/>
      <point x="292.11818975501035" y="508"/>
      <point x="305.39129372358434" y="565" type="curve" smooth="yes"/>
      <point x="310.5541251495001" y="588"/>
      <point x="329.9131089981226" y="608"/>
    </contour>
    <component base="period"/>
  </outline>
</glyph>
<glyph name="numbersign" format="2">
  <advance width="500"/>
  <unicode hex="0023"/>
  <outline>
    <contour>
      <point x="346.1092614208292" y="605" type="curve" smooth="yes"/>
      <point x="369.1092614208292" y="605"/>
      <point x="369.14258241762" y="579"/>
      <point x="356.24770018413534" y="557" type="curve" smooth="yes"/>
      <point x="347.69256391280624" y="540"/>
      <point x="265.16043908598226" y="385"/>
      <point x="206.95397711098985" y="276" type="curve" smooth="yes"/>
      <point x="178.48472071970923" y="222"/>
      <point x="117.4744111674235" y="110"/>
      <point x="98.36413862476533" y="76" type="curve" smooth="yes"/>
      <point x="66.89488223348471" y="22"/>
      <point x="50.12435565298214" y="-7"/>
      <point x="17.12435565298214" y="-7" type="curve" smooth="yes"/>
      <point x="-9.875644347017861" y="-7"/>
      <point x="5.770526580502562" y="29"/>
      <point x="31.75644347017859" y="70" type="curve" smooth="yes"/>
      <point x="56.742360359854615" y="111"/>
      <point x="117.3603650667271" y="229"/>
      <point x="179.71042058116845" y="346" type="curve" smooth="yes"/>
      <point x="275.6733260263394" y="525"/>
      <point x="277.5489703733573" y="532"/>
      <point x="297.8553953387221" y="563" type="curve" smooth="yes"/>
      <point x="318.6977186889491" y="596"/>
      <point x="330.1092614208292" y="605"/>
    </contour>
    <contour>
      <point x="535.1092614208292" y="605" type="curve" smooth="yes"/>
      <point x="557.1092614208292" y="605"/>
      <point x="557.5541251495001" y="588"/>
      <point x="546.855395338722" y="563" type="curve" smooth="yes"/>
      <point x="533.5489703733573" y="532"/>
      <point x="526.6733260263394" y="525"/>
      <point x="430.7104205811685" y="346" type="curve" smooth="yes"/>
      <point x="368.3603650667271" y="229"/>
      <point x="306.4744111674235" y="110"/>
      <point x="284.75644347017857" y="70" type="curve" smooth="yes"/>
      <point x="260.69872981077805" y="25"/>
      <point x="245.12435565298213" y="-7"/>
      <point x="207.12435565298213" y="-7" type="curve" smooth="yes"/>
      <point x="187.12435565298213" y="-7"/>
      <point x="195.50257738807144" y="28"/>
      <point x="222.82824023990307" y="74" type="curve" smooth="yes"/>
      <point x="271.06802321168624" y="157"/>
      <point x="301.48472071970923" y="222"/>
      <point x="329.95397711098985" y="276" type="curve" smooth="yes"/>
      <point x="387.42838827841337" y="386"/>
      <point x="471.156665527944" y="538"/>
      <point x="478.7118017992731" y="555" type="curve" smooth="yes"/>
      <point x="489.6066840327578" y="577"/>
      <point x="516.1092614208292" y="605"/>
    </contour>
    <contour>
      <point x="109.4476261648802" y="401" type="curve" smooth="yes"/>
      <point x="113.73481324377816" y="417"/>
      <point x="131.28994951510725" y="434"/>
      <point x="160.28994951510725" y="434" type="curve" smooth="yes"/>
      <point x="212.28994951510725" y="434"/>
      <point x="299.754051130245" y="432"/>
      <point x="311.754051130245" y="432" type="curve" smooth="yes"/>
      <point x="344.754051130245" y="432"/>
      <point x="475.55789870753836" y="435"/>
      <point x="507.02200032267615" y="433" type="curve" smooth="yes"/>
      <point x="529.754051130245" y="432"/>
      <point x="540.2707116286404" y="419"/>
      <point x="535.1796769724491" y="400" type="curve" smooth="yes"/>
      <point x="529.5527439313955" y="379"/>
      <point x="512.0168455465332" y="377"/>
      <point x="476.74889635410216" y="376" type="curve" smooth="yes"/>
      <point x="429.480947161671" y="375"/>
      <point x="395.67709958437763" y="372"/>
      <point x="318.480947161671" y="375" type="curve" smooth="yes"/>
      <point x="287.74889635410216" y="376"/>
      <point x="158.2129979692399" y="374"/>
      <point x="141.01684554653326" y="377" type="curve" smooth="yes"/>
      <point x="114.08864231625775" y="381"/>
      <point x="105.16043908598223" y="385"/>
    </contour>
    <contour>
      <point x="35.85778767865566" y="201" type="curve" smooth="yes"/>
      <point x="40.144974757553626" y="217"/>
      <point x="55.02061910457148" y="224"/>
      <point x="84.02061910457148" y="224" type="curve" smooth="yes"/>
      <point x="136.0206191045715" y="224"/>
      <point x="243.48472071970923" y="222"/>
      <point x="255.48472071970923" y="222" type="curve" smooth="yes"/>
      <point x="288.48472071970923" y="222"/>
      <point x="389.2885682970026" y="225"/>
      <point x="420.7526699121404" y="223" type="curve" smooth="yes"/>
      <point x="443.48472071970923" y="222"/>
      <point x="456.68087314241586" y="219"/>
      <point x="451.58983848622455" y="200" type="curve" smooth="yes"/>
      <point x="445.962905445171" y="179"/>
      <point x="425.7475151359975" y="167"/>
      <point x="390.4795659435664" y="166" type="curve" smooth="yes"/>
      <point x="343.21161675113524" y="165"/>
      <point x="269.4795659435664" y="166"/>
      <point x="232.21161675113524" y="165" type="curve" smooth="yes"/>
      <point x="201.21161675113524" y="165"/>
      <point x="81.94366755870412" y="164"/>
      <point x="64.74751513599749" y="167" type="curve" smooth="yes"/>
      <point x="37.81931190572198" y="171"/>
      <point x="31.570600599757697" y="185"/>
    </contour>
  </outline>
</glyph>
<glyph name="dollar" format="2">
  <advance width="500"/>
  <unicode hex="0024"/>
  <outline>
    <contour>
      <point x="376.78875334514044" y="615" type="curve" smooth="yes"/>
      <point x="452.78875334514044" y="615"/>
      <point x="487.8413122283981" y="604"/>
      <point x="518.4823283797757" y="584" type="curve" smooth="yes"/>
      <point x="542.1951413008777" y="568"/>
      <point x="536.7643606825308" y="544"/>
      <point x="522.2810211809261" y="531" type="curve" smooth="yes"/>
      <point x="508.52973248689045" y="517"/>
      <point x="485.6733260263394" y="525"/>
      <point x="471.0848687582195" y="534" type="curve" smooth="yes"/>
      <point x="456.03230987496187" y="545"/>
      <point x="440.97975099170424" y="556"/>
      <point x="359.97975099170424" y="556" type="curve" smooth="yes"/>
      <point x="287.97975099170424" y="556"/>
      <point x="232.26178329445932" y="516"/>
      <point x="211.09379709240062" y="437" type="curve" smooth="yes"/>
      <point x="186.44247138873732" y="345"/>
      <point x="223.22708107956385" y="333"/>
      <point x="304.22708107956385" y="333" type="curve" smooth="yes"/>
      <point x="371.22708107956385" y="333"/>
      <point x="408.0834875401149" y="325"/>
      <point x="439.58091015204343" y="297" type="curve" smooth="yes"/>
      <point x="463.68602791855875" y="275"/>
      <point x="474.5757553759006" y="241"/>
      <point x="460.6423973694822" y="189" type="curve" smooth="yes"/>
      <point x="444.5654458236148" y="129"/>
      <point x="417.5077321642143" y="84"/>
      <point x="378.66540881398726" y="51" type="curve" smooth="yes"/>
      <point x="334.4833395016046" y="13"/>
      <point x="269.5884572681199" y="-9"/>
      <point x="192.5884572681199" y="-9" type="curve" smooth="yes"/>
      <point x="125.5884572681199" y="-9"/>
      <point x="70.23462819564031" y="27"/>
      <point x="46.14874831559185" y="64" type="curve" smooth="yes"/>
      <point x="32.77568135664543" y="85"/>
      <point x="35.814157129579115" y="115"/>
      <point x="64.56544582361482" y="129" type="curve" smooth="yes"/>
      <point x="93.8526329025128" y="145"/>
      <point x="101.27825874471687" y="113"/>
      <point x="113.0628684355434" y="101" type="curve" smooth="yes"/>
      <point x="146.3449007382985" y="61"/>
      <point x="183.46925639128062" y="54"/>
      <point x="211.46925639128062" y="54" type="curve" smooth="yes"/>
      <point x="269.4692563912806" y="54"/>
      <point x="315.56029104747194" y="73"/>
      <point x="343.7231224733878" y="96" type="curve" smooth="yes"/>
      <point x="369.61800470687245" y="118"/>
      <point x="389.38853128737503" y="147"/>
      <point x="397.4270070603087" y="177" type="curve" smooth="yes"/>
      <point x="403.85778767865565" y="201"/>
      <point x="401.55651748943376" y="226"/>
      <point x="389.1116537607628" y="243" type="curve" smooth="yes"/>
      <point x="374.934739224523" y="261"/>
      <point x="343.8821803412654" y="272"/>
      <point x="296.8821803412654" y="272" type="curve" smooth="yes"/>
      <point x="160.61423114883425" y="271"/>
      <point x="118.93989400066589" y="317"/>
      <point x="151.62969547726286" y="439" type="curve" smooth="yes"/>
      <point x="184.58744614629094" y="562"/>
      <point x="289.78875334514044" y="615"/>
    </contour>
    <contour>
      <point x="412.7413492380257" y="682" type="curve" smooth="yes"/>
      <point x="418.7413492380257" y="682"/>
      <point x="433.5977556985767" y="674"/>
      <point x="424.75543234834964" y="641" type="curve" smooth="yes"/>
      <point x="394.1374276414772" y="523"/>
      <point x="392.9220373323037" y="511"/>
      <point x="333.65270692176796" y="301" type="curve" smooth="yes"/>
      <point x="276.7231224733878" y="96"/>
      <point x="283.8141571295791" y="115"/>
      <point x="241.94228634059948" y="-45" type="curve" smooth="yes"/>
      <point x="231.7602170282168" y="-83"/>
      <point x="225.06148721743875" y="-108"/>
      <point x="196.06148721743875" y="-108" type="curve" smooth="yes"/>
      <point x="166.06148721743875" y="-108"/>
      <point x="170.63586137523467" y="-76"/>
      <point x="180.21023553303058" y="-44" type="curve" smooth="yes"/>
      <point x="181.81793068761732" y="-38"/>
      <point x="208.7564434701786" y="70"/>
      <point x="268.2937230731455" y="281" type="curve" smooth="yes"/>
      <point x="339.0848687582195" y="534"/>
      <point x="342.3194969538598" y="561"/>
      <point x="363.415686386194" y="636" type="curve" smooth="yes"/>
      <point x="369.0426194272476" y="657"/>
      <point x="384.0092984304568" y="683"/>
    </contour>
  </outline>
</glyph>
<glyph name="percent" format="2">
  <advance width="500"/>
  <unicode hex="0025"/>
  <outline>
    <contour>
      <point x="554.2528549602782" y="613" type="curve" smooth="yes"/>
      <point x="559.4490073829849" y="610"/>
      <point x="562.6977186889492" y="596"/>
      <point x="544.3912937235843" y="565" type="curve" smooth="yes"/>
      <point x="500.56305348368124" y="491"/>
      <point x="460.84508578643636" y="451"/>
      <point x="312.77706257475006" y="294" type="curve" smooth="yes"/>
      <point x="181.53212482682403" y="155"/>
      <point x="167.12058209494393" y="146"/>
      <point x="80.50257738807144" y="28" type="curve" smooth="yes"/>
      <point x="55.12435565298214" y="-7"/>
      <point x="36.49742261192856" y="-28"/>
      <point x="12.516660498395403" y="-13" type="curve" smooth="yes"/>
      <point x="-11.464101615137757" y="2"/>
      <point x="7.57437415779593" y="32"/>
      <point x="31.07695154586736" y="60" type="curve" smooth="yes"/>
      <point x="35.41669750802298" y="65"/>
      <point x="87.70903936306381" y="137"/>
      <point x="250.26040207635467" y="307" type="curve" smooth="yes"/>
      <point x="425.56305348368124" y="491"/>
      <point x="433.8502405625792" y="507"/>
      <point x="492.3579727267935" y="591" type="curve" smooth="yes"/>
      <point x="505.1810581905537" y="609"/>
      <point x="531.2720928467451" y="628"/>
    </contour>
    <contour>
      <point x="311.8117647896455" y="477" type="curve" smooth="yes"/>
      <point x="300.4861019378139" y="431"/>
      <point x="287.6630164740537" y="413"/>
      <point x="262.50018504813784" y="390" type="curve" smooth="yes"/>
      <point x="238.0694044297909" y="366"/>
      <point x="209.85401412061742" y="354"/>
      <point x="180.85401412061742" y="354" type="curve" smooth="yes"/>
      <point x="153.12196331304855" y="355"/>
      <point x="133.99760766006642" y="362"/>
      <point x="123.48094716167101" y="375" type="curve" smooth="yes"/>
      <point x="109.57198181786234" y="394"/>
      <point x="102.66301647405368" y="413"/>
      <point x="119.5438155972144" y="476" type="curve" smooth="yes"/>
      <point x="129.18998652473482" y="512"/>
      <point x="142.8887163355129" y="537"/>
      <point x="169.65924291601544" y="566" type="curve" smooth="yes"/>
      <point x="190.82207434193126" y="589"/>
      <point x="218.10926142082923" y="605"/>
      <point x="250.8413122283981" y="604" type="curve" smooth="yes"/>
      <point x="278.57336303596696" y="603"/>
      <point x="300.16182030408686" y="594"/>
      <point x="309.33873484032665" y="576" type="curve" smooth="yes"/>
      <point x="318.83615745225524" y="548"/>
      <point x="323.869478449046" y="522"/>
    </contour>
    <contour>
      <point x="260.2758664047833" y="475" type="curve" smooth="yes"/>
      <point x="267.5104946004236" y="502"/>
      <point x="269.9220373323037" y="511"/>
      <point x="263.7451227960639" y="529" type="curve" smooth="yes"/>
      <point x="260.62076714308176" y="536"/>
      <point x="250.5682082598241" y="547"/>
      <point x="234.5682082598241" y="547" type="curve" smooth="yes"/>
      <point x="223.5682082598241" y="547"/>
      <point x="211.42461472037513" y="539"/>
      <point x="197.94127521877053" y="526" type="curve" smooth="yes"/>
      <point x="189.52973248689042" y="517"/>
      <point x="180.77844379285472" y="503"/>
      <point x="173.2758664047833" y="475" type="curve" smooth="yes"/>
      <point x="164.70149224698736" y="443"/>
      <point x="166.897644669694" y="440"/>
      <point x="169.754051130245" y="432" type="curve" smooth="yes"/>
      <point x="173.07455920593378" y="422"/>
      <point x="181.46686405134705" y="416"/>
      <point x="197.46686405134705" y="416" type="curve" smooth="yes"/>
      <point x="216.46686405134705" y="416"/>
      <point x="227.61045759079602" y="424"/>
      <point x="238.55789870753836" y="435" type="curve" smooth="yes"/>
      <point x="246.70149224698736" y="443"/>
      <point x="254.91688255616083" y="455"/>
    </contour>
    <contour>
      <point x="438.76159824632146" y="126" type="curve" smooth="yes"/>
      <point x="427.43593539448983" y="80"/>
      <point x="411.93335800641836" y="52"/>
      <point x="386.7705265805026" y="29" type="curve" smooth="yes"/>
      <point x="362.33974596215563" y="5"/>
      <point x="334.12435565298216" y="-7"/>
      <point x="305.12435565298216" y="-7" type="curve" smooth="yes"/>
      <point x="277.39230484541326" y="-6"/>
      <point x="258.2679491924311" y="1"/>
      <point x="247.7512886940357" y="14" type="curve" smooth="yes"/>
      <point x="233.84232335022705" y="33"/>
      <point x="229.61284993072962" y="62"/>
      <point x="246.49364905389035" y="125" type="curve" smooth="yes"/>
      <point x="256.13981998141077" y="161"/>
      <point x="267.1590578678776" y="176"/>
      <point x="293.9295844483802" y="205" type="curve" smooth="yes"/>
      <point x="315.09241587429597" y="228"/>
      <point x="342.37960295319397" y="244"/>
      <point x="375.1116537607628" y="243" type="curve" smooth="yes"/>
      <point x="402.8437045683317" y="242"/>
      <point x="424.4321618364516" y="233"/>
      <point x="433.6090763726914" y="215" type="curve" smooth="yes"/>
      <point x="443.10649898462" y="187"/>
      <point x="450.819311905722" y="171"/>
    </contour>
    <contour>
      <point x="387.2256998614592" y="124" type="curve" smooth="yes"/>
      <point x="392.58468371008166" y="144"/>
      <point x="394.4603280570995" y="151"/>
      <point x="388.28341352085977" y="169" type="curve" smooth="yes"/>
      <point x="385.1590578678776" y="176"/>
      <point x="374.8385497921888" y="186"/>
      <point x="358.8385497921888" y="186" type="curve" smooth="yes"/>
      <point x="347.8385497921888" y="186"/>
      <point x="335.69495625273987" y="178"/>
      <point x="322.21161675113524" y="165" type="curve" smooth="yes"/>
      <point x="313.80007401925513" y="156"/>
      <point x="304.7808361327883" y="141"/>
      <point x="300.2256998614592" y="124" type="curve" smooth="yes"/>
      <point x="291.6513257036633" y="92"/>
      <point x="291.16798620205867" y="79"/>
      <point x="294.0243926626097" y="71" type="curve" smooth="yes"/>
      <point x="297.34490073829846" y="61"/>
      <point x="305.7372055837117" y="55"/>
      <point x="321.7372055837117" y="55" type="curve" smooth="yes"/>
      <point x="340.7372055837117" y="55"/>
      <point x="352.8807991231607" y="63"/>
      <point x="362.8282402399031" y="74" type="curve" smooth="yes"/>
      <point x="373.7756813566454" y="85"/>
      <point x="379.1872240885255" y="94"/>
    </contour>
  </outline>
</glyph>
<glyph name="ampersand" format="2">
  <advance width="500"/>
  <unicode hex="0026"/>
  <outline>
    <contour>
      <point x="182.156665527944" y="538" type="curve" smooth="yes"/>
      <point x="191.26693807060218" y="572"/>
      <point x="237.9849057678471" y="612"/>
      <point x="291.98490576784707" y="612" type="curve" smooth="yes"/>
      <point x="394.98490576784707" y="612"/>
      <point x="452.65924291601544" y="566"/>
      <point x="433.9027994458369" y="496" type="curve" smooth="yes"/>
      <point x="415.14635597565825" y="426"/>
      <point x="322.7296584676353" y="361"/>
      <point x="254.67194480823477" y="316" type="curve" smooth="yes"/>
      <point x="165.13089164722965" y="258"/>
      <point x="107.96290544517096" y="179"/>
      <point x="90.81415712957912" y="115" type="curve" smooth="yes"/>
      <point x="72.05771365940052" y="45"/>
      <point x="114.05771365940052" y="45"/>
      <point x="160.07695154586736" y="60" type="curve" smooth="yes"/>
      <point x="212.63208781719644" y="77"/>
      <point x="335.1923788646684" y="150"/>
      <point x="366.3936860635179" y="203" type="curve" smooth="yes"/>
      <point x="397.86294245479854" y="257"/>
      <point x="395.8821803412654" y="272"/>
      <point x="409.36551984286996" y="285" type="curve" smooth="yes"/>
      <point x="424.1168085369057" y="299"/>
      <point x="435.65270692176796" y="301"/>
      <point x="443.77706257475006" y="294" type="curve" smooth="yes"/>
      <point x="451.9014182277322" y="287"/>
      <point x="453.1501295336965" y="273"/>
      <point x="439.96806022131386" y="235" type="curve" smooth="yes"/>
      <point x="421.4270070603087" y="177"/>
      <point x="370.8859538993036" y="119"/>
      <point x="293.14874831559183" y="64" type="curve" smooth="yes"/>
      <point x="230.35898384862247" y="20"/>
      <point x="148.2487113059643" y="-14"/>
      <point x="99.24871130596429" y="-14" type="curve" smooth="yes"/>
      <point x="46.248711305964285" y="-14"/>
      <point x="5.894882233484701" y="22"/>
      <point x="24.383376511232164" y="91" type="curve" smooth="yes"/>
      <point x="38.58468371008167" y="144"/>
      <point x="63.4654828332424" y="207"/>
      <point x="117.27448518667863" y="266" type="curve" smooth="yes"/>
      <point x="170.08348754011487" y="325"/>
      <point x="366.0937970924006" y="437"/>
      <point x="379.2233075215256" y="486" type="curve" smooth="yes"/>
      <point x="392.62076714308176" y="536"/>
      <point x="339.51564937656644" y="558"/>
      <point x="281.51564937656644" y="558" type="curve" smooth="yes"/>
      <point x="225.51564937656647" y="558"/>
      <point x="226.51049460042358" y="502"/>
      <point x="239.43354305455622" y="442" type="curve" smooth="yes"/>
      <point x="250.69633747084447" y="387"/>
      <point x="289.2937230731455" y="281"/>
      <point x="328.3411271802603" y="214" type="curve" smooth="yes"/>
      <point x="348.2308546376021" y="180"/>
      <point x="404.5795289339388" y="88"/>
      <point x="423.93335800641836" y="52" type="curve" smooth="yes"/>
      <point x="428.52181527453826" y="43"/>
      <point x="447.2346281956403" y="27"/>
      <point x="434.94744111674237" y="11" type="curve" smooth="yes"/>
      <point x="422.66025403784437" y="-5"/>
      <point x="395.5166604983954" y="-13"/>
      <point x="369.60769515458674" y="6" type="curve" smooth="yes"/>
      <point x="344.69872981077805" y="25"/>
      <point x="262.5706005997577" y="185"/>
      <point x="253.85778767865565" y="201" type="curve" smooth="yes"/>
      <point x="222.934739224523" y="261"/>
      <point x="190.480947161671" y="375"/>
      <point x="184.98352454974244" y="403" type="curve" smooth="yes"/>
      <point x="175.38098417129856" y="453"/>
      <point x="171.17074863826798" y="497"/>
    </contour>
  </outline>
</glyph>
<glyph name="quotesingle" format="2">
  <advance width="500"/>
  <unicode hex="0027"/>
  <outline>
    <contour>
      <point x="302.98352454974247" y="403" type="curve" smooth="yes"/>
      <point x="289.98352454974247" y="403"/>
      <point x="273.9309656664848" y="414"/>
      <point x="283.96944143941846" y="444" type="curve" smooth="yes"/>
      <point x="295.07971398207667" y="478"/>
      <point x="297.4386978306991" y="498"/>
      <point x="314.8553953387221" y="563" type="curve" smooth="yes"/>
      <point x="318.6066840327578" y="577"/>
      <point x="337.1092614208292" y="605"/>
      <point x="363.1092614208292" y="605" type="curve" smooth="yes"/>
      <point x="382.1092614208292" y="605"/>
      <point x="393.5541251495001" y="588"/>
      <point x="386.8553953387221" y="563" type="curve" smooth="yes"/>
      <point x="371.5822913701481" y="506"/>
      <point x="361.73996801992104" y="473"/>
      <point x="347.1655938621251" y="441" type="curve" smooth="yes"/>
      <point x="336.73481324377815" y="417"/>
      <point x="320.7155753573113" y="402"/>
    </contour>
  </outline>
</glyph>
<glyph name="parenleft" format="2">
  <advance width="500"/>
  <unicode hex="0028"/>
  <outline>
    <contour>
      <point x="153.9732149974567" y="291" type="curve" smooth="yes"/>
      <point x="238.64515980569146" y="607"/>
      <point x="461.3298065061456" y="673"/>
      <point x="515.5977556985767" y="674" type="curve" smooth="yes"/>
      <point x="554.8657048910078" y="675"/>
      <point x="564.7221113515589" y="667"/>
      <point x="559.0951783105053" y="646" type="curve" smooth="yes"/>
      <point x="554.2720928467451" y="628"/>
      <point x="535.860550114865" y="619"/>
      <point x="504.86055011486496" y="619" type="curve" smooth="yes"/>
      <point x="467.86055011486496" y="619"/>
      <point x="292.92719210844655" y="567"/>
      <point x="219.77706257475006" y="294" type="curve" smooth="yes"/>
      <point x="146.35898384862247" y="20"/>
      <point x="263.01408311032395" y="-41"/>
      <point x="343.01408311032395" y="-41" type="curve" smooth="yes"/>
      <point x="365.01408311032395" y="-41"/>
      <point x="370.19099764656374" y="-59"/>
      <point x="361.9038105676658" y="-75" type="curve" smooth="yes"/>
      <point x="355.15252187363006" y="-89"/>
      <point x="329.8653347947321" y="-105"/>
      <point x="284.54482671904333" y="-95" type="curve" smooth="yes"/>
      <point x="233.4922678357857" y="-84"/>
      <point x="70.0333209967908" y="-26"/>
    </contour>
  </outline>
</glyph>
<glyph name="asterisk" format="2">
  <advance width="500"/>
  <unicode hex="002A"/>
  <outline>
    <contour>
      <point x="326.4002220577654" y="468" type="curve" smooth="yes"/>
      <point x="342.4002220577654" y="468"/>
      <point x="351.91688255616083" y="455"/>
      <point x="344.14635597565825" y="426" type="curve" smooth="yes"/>
      <point x="337.98352454974247" y="403"/>
      <point x="331.0694044297909" y="366"/>
      <point x="304.1552843098394" y="329" type="curve"/>
      <point x="337.33735362222205" y="367"/>
      <point x="410.1078802027246" y="396"/>
      <point x="422.4476261648802" y="401" type="curve" smooth="yes"/>
      <point x="452.3950672816226" y="412"/>
      <point x="465.05532131946694" y="407"/>
      <point x="469.3040326254312" y="393" type="curve" smooth="yes"/>
      <point x="473.5527439313955" y="379"/>
      <point x="462.2655568524975" y="363"/>
      <point x="433.9783697735996" y="347" type="curve" smooth="yes"/>
      <point x="410.495030271995" y="334"/>
      <point x="355.2604020763547" y="307"/>
      <point x="313.3847577293368" y="300" type="curve"/>
      <point x="350.58091015204343" y="297"/>
      <point x="383.6142311488343" y="271"/>
      <point x="401.13089164722965" y="258" type="curve" smooth="yes"/>
      <point x="426.5757553759006" y="241"/>
      <point x="431.7526699121404" y="223"/>
      <point x="418.1975336408113" y="206" type="curve" smooth="yes"/>
      <point x="404.91034656191334" y="190"/>
      <point x="387.3744481770511" y="188"/>
      <point x="369.32188929379345" y="199" type="curve" smooth="yes"/>
      <point x="355.73343202567355" y="208"/>
      <point x="301.96806022131386" y="235"/>
      <point x="288.8821803412654" y="272" type="curve"/>
      <point x="293.1642126440205" y="232"/>
      <point x="282.44624494677555" y="192"/>
      <point x="275.62315948301534" y="174" type="curve" smooth="yes"/>
      <point x="266.1923788646684" y="150"/>
      <point x="254.3692934009082" y="132"/>
      <point x="235.3692934009082" y="132" type="curve" smooth="yes"/>
      <point x="218.3692934009082" y="132"/>
      <point x="214.72827724953066" y="152"/>
      <point x="219.4270070603087" y="177" type="curve" smooth="yes"/>
      <point x="222.78599090893118" y="197"/>
      <point x="231.4321618364516" y="233"/>
      <point x="256.8821803412654" y="272" type="curve"/>
      <point x="223.96806022131383" y="235"/>
      <point x="155.73343202567352" y="208"/>
      <point x="137.32188929379342" y="199" type="curve" smooth="yes"/>
      <point x="113.37444817705106" y="188"/>
      <point x="96.91034656191331" y="190"/>
      <point x="92.19753364081127" y="206" type="curve" smooth="yes"/>
      <point x="87.75266991214036" y="223"/>
      <point x="102.57575537590057" y="241"/>
      <point x="137.13089164722965" y="258" type="curve" smooth="yes"/>
      <point x="161.61423114883425" y="271"/>
      <point x="208.58091015204343" y="297"/>
      <point x="247.3847577293368" y="300" type="curve"/>
      <point x="209.26040207635467" y="307"/>
      <point x="168.49503027199498" y="334"/>
      <point x="151.97836977359958" y="347" type="curve" smooth="yes"/>
      <point x="132.26555685249753" y="363"/>
      <point x="129.5527439313955" y="379"/>
      <point x="141.3040326254312" y="393" type="curve" smooth="yes"/>
      <point x="153.05532131946694" y="407"/>
      <point x="168.39506728162254" y="412"/>
      <point x="192.4476261648802" y="401" type="curve" smooth="yes"/>
      <point x="202.10788020272457" y="396"/>
      <point x="257.33735362222205" y="367"/>
      <point x="272.1552843098394" y="329" type="curve"/>
      <point x="265.9450487768088" y="373"/>
      <point x="282.2707116286404" y="419"/>
      <point x="287.2181527453828" y="430" type="curve" smooth="yes"/>
      <point x="298.7207301334542" y="458"/>
      <point x="311.4002220577654" y="468"/>
    </contour>
  </outline>
</glyph>
<glyph name="plus" format="2">
  <advance width="500"/>
  <unicode hex="002B"/>
  <outline>
    <contour>
      <point x="82.65270692176793" y="301" type="curve" smooth="yes"/>
      <point x="86.93989400066589" y="317"/>
      <point x="104.49503027199498" y="334"/>
      <point x="133.49503027199498" y="334" type="curve" smooth="yes"/>
      <point x="185.49503027199498" y="334"/>
      <point x="272.95913188713274" y="332"/>
      <point x="284.95913188713274" y="332" type="curve" smooth="yes"/>
      <point x="317.95913188713274" y="332"/>
      <point x="418.7629794644261" y="335"/>
      <point x="450.22708107956385" y="333" type="curve" smooth="yes"/>
      <point x="472.95913188713274" y="332"/>
      <point x="483.47579238552817" y="319"/>
      <point x="478.3847577293368" y="300" type="curve" smooth="yes"/>
      <point x="473.0257738807144" y="280"/>
      <point x="452.8103835715409" y="268"/>
      <point x="417.54243437910975" y="267" type="curve" smooth="yes"/>
      <point x="370.27448518667865" y="266"/>
      <point x="296.54243437910975" y="267"/>
      <point x="259.27448518667865" y="266" type="curve" smooth="yes"/>
      <point x="228.27448518667865" y="266"/>
      <point x="129.0065359942475" y="265"/>
      <point x="111.81038357154088" y="268" type="curve" smooth="yes"/>
      <point x="84.88218034126537" y="272"/>
      <point x="78.63346903530109" y="286"/>
    </contour>
    <contour>
      <point x="334.4386978306991" y="498" type="curve" smooth="yes"/>
      <point x="350.4386978306991" y="498"/>
      <point x="361.9553583290945" y="485"/>
      <point x="355.18483174859193" y="456" type="curve" smooth="yes"/>
      <point x="346.1271180891914" y="411"/>
      <point x="316.6719448082348" y="316"/>
      <point x="314.4565544990613" y="304" type="curve" smooth="yes"/>
      <point x="311.7052658050256" y="290"/>
      <point x="279.819311905722" y="171"/>
      <point x="269.24493774792603" y="139" type="curve" smooth="yes"/>
      <point x="262.08210632201025" y="116"/>
      <point x="246.3308176279745" y="102"/>
      <point x="227.3308176279745" y="102" type="curve" smooth="yes"/>
      <point x="207.3308176279745" y="102"/>
      <point x="199.88595389930362" y="119"/>
      <point x="208.2641756343929" y="154" type="curve" smooth="yes"/>
      <point x="219.85778767865565" y="201"/>
      <point x="240.68602791855875" y="275"/>
      <point x="249.60014803851027" y="312" type="curve" smooth="yes"/>
      <point x="257.9065730038751" y="343"/>
      <point x="283.43354305455625" y="442"/>
      <point x="291.25662851831646" y="460" type="curve" smooth="yes"/>
      <point x="302.7592059063879" y="488"/>
      <point x="319.4386978306991" y="498"/>
    </contour>
  </outline>
</glyph>
<glyph name="comma" format="2">
  <advance width="500"/>
  <unicode hex="002C"/>
  <anchor x="212.05771365940052" y="45" name="center"/>
  <outline>
    <contour>
      <point x="271.3256628518316" y="46" type="curve" smooth="yes"/>
      <point x="267.143593539449" y="8"/>
      <point x="249.08587988004845" y="-37"/>
      <point x="219.70765814495917" y="-72" type="curve" smooth="yes"/>
      <point x="177.0422493309719" y="-123"/>
      <point x="112.87941790505609" y="-146"/>
      <point x="56.07557032776272" y="-149" type="curve" smooth="yes"/>
      <point x="32.8076211353316" y="-150"/>
      <point x="25.75506225207394" y="-139"/>
      <point x="29.238401753678545" y="-126" type="curve" smooth="yes"/>
      <point x="34.06148721743875" y="-108"/>
      <point x="53.93713156445661" y="-101"/>
      <point x="74.74097914174997" y="-98" type="curve" smooth="yes"/>
      <point x="114.81277591147446" y="-94"/>
      <point x="168.726896031426" y="-57"/>
      <point x="181.5884572681199" y="-9" type="curve"/>
      <point x="150.5884572681199" y="-9"/>
      <point x="142.55513627132908" y="17"/>
      <point x="151.12951042912502" y="49" type="curve" smooth="yes"/>
      <point x="161.84747812636994" y="89"/>
      <point x="191.13466520526788" y="105"/>
      <point x="225.13466520526788" y="105" type="curve" smooth="yes"/>
      <point x="265.1346652052679" y="105"/>
      <point x="274.97183377935204" y="82"/>
    </contour>
  </outline>
</glyph>
<glyph name="hyphen" format="2">
  <advance width="500"/>
  <unicode hex="002D"/>
  <outline>
    <contour>
      <point x="82.38475772933681" y="300" type="curve" smooth="yes"/>
      <point x="86.67194480823477" y="316"/>
      <point x="104.22708107956386" y="333"/>
      <point x="133.22708107956385" y="333" type="curve" smooth="yes"/>
      <point x="185.22708107956385" y="333"/>
      <point x="272.69118269470164" y="331"/>
      <point x="284.69118269470164" y="331" type="curve" smooth="yes"/>
      <point x="317.69118269470164" y="331"/>
      <point x="418.495030271995" y="334"/>
      <point x="449.95913188713274" y="332" type="curve" smooth="yes"/>
      <point x="472.69118269470164" y="331"/>
      <point x="483.207843193097" y="318"/>
      <point x="478.1168085369057" y="299" type="curve" smooth="yes"/>
      <point x="472.4898754958521" y="278"/>
      <point x="452.27448518667865" y="266"/>
      <point x="417.00653599424754" y="265" type="curve" smooth="yes"/>
      <point x="369.7385868018164" y="264"/>
      <point x="296.00653599424754" y="265"/>
      <point x="258.7385868018164" y="264" type="curve" smooth="yes"/>
      <point x="227.73858680181638" y="264"/>
      <point x="128.47063760938528" y="263"/>
      <point x="111.27448518667863" y="266" type="curve" smooth="yes"/>
      <point x="84.34628195640313" y="270"/>
      <point x="78.09757065043884" y="284"/>
    </contour>
  </outline>
</glyph>
<glyph name="period" format="2">
  <advance width="500"/>
  <unicode hex="002E"/>
  <anchor x="212.05771365940052" y="45" name="center"/>
  <outline>
    <contour>
      <point x="272.0577136594005" y="45" type="curve" smooth="yes"/>
      <point x="258.39230484541326" y="-6"/>
      <point x="235.98076211353316" y="-15"/>
      <point x="195.98076211353316" y="-15" type="curve" smooth="yes"/>
      <point x="154.98076211353316" y="-15"/>
      <point x="139.46410161513776" y="-2"/>
      <point x="152.05771365940052" y="45" type="curve" smooth="yes"/>
      <point x="164.11542731880104" y="90"/>
      <point x="187.13466520526788" y="105"/>
      <point x="228.13466520526788" y="105" type="curve" smooth="yes"/>
      <point x="267.1346652052679" y="105"/>
      <point x="284.38337651123214" y="91"/>
    </contour>
  </outline>
</glyph>
<glyph name="slash" format="2">
  <advance width="500"/>
  <unicode hex="002F"/>
  <outline>
    <contour>
      <point x="563.6310766953675" y="648" type="curve" smooth="yes"/>
      <point x="568.8272291180741" y="645"/>
      <point x="576.5400420391761" y="629"/>
      <point x="553.7695154586736" y="600" type="curve" smooth="yes"/>
      <point x="470.6348502534057" y="495"/>
      <point x="463.6874091366634" y="484"/>
      <point x="314.1168085369057" y="299" type="curve" smooth="yes"/>
      <point x="167.88595389930362" y="119"/>
      <point x="183.17314097820156" y="135"/>
      <point x="71.12435565298213" y="-7" type="curve" smooth="yes"/>
      <point x="44.014083110323966" y="-41"/>
      <point x="27.119200876839272" y="-63"/>
      <point x="3.1384387633061124" y="-48" type="curve" smooth="yes"/>
      <point x="-20.842323350227048" y="-33"/>
      <point x="-1.803847577293368" y="-3"/>
      <point x="21.69872981077807" y="25" type="curve" smooth="yes"/>
      <point x="26.03847577293368" y="30"/>
      <point x="100.76159824632146" y="126"/>
      <point x="251.60014803851027" y="312" type="curve" smooth="yes"/>
      <point x="432.0848687582195" y="534"/>
      <point x="448.0515477614287" y="560"/>
      <point x="501.7361944618828" y="626" type="curve" smooth="yes"/>
      <point x="515.5592799256431" y="644"/>
      <point x="540.6503145818343" y="663"/>
    </contour>
  </outline>
</glyph>
<glyph name="zero" format="2">
  <advance width="500"/>
  <unicode hex="0030"/>
  <anchor x="200.0" y="0" name="bottom"/>
  <anchor x="360.7695154586736" y="600" name="top"/>
  <outline>
    <contour>
      <point x="364.78875334514044" y="615" type="curve" smooth="yes"/>
      <point x="454.78875334514044" y="615"/>
      <point x="480.21437918734455" y="583"/>
      <point x="492.9220373323037" y="511" type="curve" smooth="yes"/>
      <point x="502.32842528804093" y="464"/>
      <point x="501.1796769724491" y="400"/>
      <point x="474.65270692176796" y="301" type="curve" smooth="yes"/>
      <point x="449.4654828332424" y="207"/>
      <point x="423.9769885554949" y="138"/>
      <point x="388.11542731880104" y="90" type="curve" smooth="yes"/>
      <point x="331.75128869403574" y="14"/>
      <point x="279.71281292110206" y="-16"/>
      <point x="196.71281292110203" y="-16" type="curve" smooth="yes"/>
      <point x="119.71281292110203" y="-16"/>
      <point x="101.4115427318801" y="9"/>
      <point x="74.54105316100512" y="58" type="curve" smooth="yes"/>
      <point x="47.67056359013013" y="107"/>
      <point x="56.910346561913315" y="190"/>
      <point x="86.65270692176793" y="301" type="curve" smooth="yes"/>
      <point x="118.00276243620928" y="418"/>
      <point x="158.63485025340574" y="495"/>
      <point x="212.76436068253074" y="544" type="curve" smooth="yes"/>
      <point x="261.8220743419313" y="589"/>
      <point x="291.78875334514044" y="615"/>
    </contour>
    <contour>
      <point x="349.7835985689976" y="559" type="curve" smooth="yes"/>
      <point x="308.7835985689976" y="559"/>
      <point x="280.156665527944" y="538"/>
      <point x="240.83100267611238" y="492" type="curve" smooth="yes"/>
      <point x="207.38098417129856" y="453"/>
      <point x="179.3040326254312" y="393"/>
      <point x="154.65270692176793" y="301" type="curve" smooth="yes"/>
      <point x="131.6090763726914" y="215"/>
      <point x="123.1923788646684" y="150"/>
      <point x="135.4744111674235" y="110" type="curve" smooth="yes"/>
      <point x="146.90003700962757" y="78"/>
      <point x="160.8615612366939" y="48"/>
      <point x="213.8615612366939" y="48" type="curve" smooth="yes"/>
      <point x="272.8615612366939" y="48"/>
      <point x="300.29234185504083" y="72"/>
      <point x="339.8333950160459" y="130" type="curve" smooth="yes"/>
      <point x="370.8911086754465" y="175"/>
      <point x="386.0206191045715" y="224"/>
      <point x="406.65270692176796" y="301" type="curve" smooth="yes"/>
      <point x="430.50018504813784" y="390"/>
      <point x="433.041238209143" y="448"/>
      <point x="426.4912567139568" y="487" type="curve" smooth="yes"/>
      <point x="417.69256391280624" y="540"/>
      <point x="400.7835985689976" y="559"/>
    </contour>
    <contour>
      <point x="114.15390309173472" y="120" type="line"/>
      <point x="430.9938341020282" y="515" type="line"/>
      <point x="450.38098417129856" y="453" type="line"/>
      <point x="143.48849427774746" y="69" type="line"/>
    </contour>
  </outline>
</glyph>
<glyph name="one" format="2">
  <advance width="500"/>
  <unicode hex="0031"/>
  <anchor x="215.0" y="0" name="bottom"/>
  <anchor x="375.7695154586736" y="600" name="top"/>
  <outline>
    <contour>
      <point x="315.8502405625792" y="507" type="curve"/>
      <point x="287.2233075215256" y="486"/>
      <point x="261.8643236729032" y="466"/>
      <point x="238.84508578643636" y="451" type="curve" smooth="yes"/>
      <point x="208.754051130245" y="432"/>
      <point x="204.41430516808938" y="427"/>
      <point x="189.2707116286404" y="419" type="curve" smooth="yes"/>
      <point x="157.4476261648802" y="401"/>
      <point x="144.51942293460468" y="405"/>
      <point x="137.53866082107152" y="420" type="curve" smooth="yes"/>
      <point x="132.21815274538275" y="430"/>
      <point x="136.04123820914296" y="448"/>
      <point x="163.4002220577654" y="468" type="curve" smooth="yes"/>
      <point x="212.24254540799248" y="501"/>
      <point x="216.04639298528585" y="504"/>
      <point x="227.18998652473482" y="512" type="curve" smooth="yes"/>
      <point x="258.0848687582195" y="534"/>
      <point x="321.33873484032665" y="576"/>
      <point x="346.2336170738114" y="598" type="curve" smooth="yes"/>
      <point x="366.78875334514044" y="615"/>
      <point x="388.2528549602782" y="613"/>
      <point x="395.9656678813802" y="597" type="curve" smooth="yes"/>
      <point x="401.75027757220676" y="585"/>
      <point x="390.70653665048485" y="554.9803501972128"/>
      <point x="386.156665527944" y="538" type="curve" smooth="yes"/>
      <point x="366.66817125019656" y="469"/>
      <point x="374.9027994458369" y="496"/>
      <point x="329.0834875401149" y="325" type="curve" smooth="yes"/>
      <point x="307.64755214562507" y="245"/>
      <point x="287.21161675113524" y="165"/>
      <point x="257.7372055837117" y="55" type="curve"/>
      <point x="194.0051547761429" y="56" type="line"/>
      <point x="203.6513257036633" y="92"/>
      <point x="250" y="265"/>
      <point x="261.4565544990613" y="304" type="curve" smooth="yes"/>
      <point x="281" y="371"/>
      <point x="297.7190118747399" y="439.3333333333333"/>
    </contour>
    <contour>
      <point x="18.502577388071437" y="28" type="curve" smooth="yes"/>
      <point x="23.861561236693888" y="48"/>
      <point x="45.07695154586736" y="60"/>
      <point x="73.88079912316073" y="63" type="curve" smooth="yes"/>
      <point x="96.41669750802298" y="65"/>
      <point x="169.88079912316073" y="63"/>
      <point x="210.416697508023" y="65" type="curve" smooth="yes"/>
      <point x="247.95259589288523" y="67"/>
      <point x="319.416697508023" y="65"/>
      <point x="367.14874831559183" y="64" type="curve" smooth="yes"/>
      <point x="398.8807991231607" y="63"/>
      <point x="411.3256628518316" y="46"/>
      <point x="407.3064249653648" y="31" type="curve" smooth="yes"/>
      <point x="402.2153903091735" y="12"/>
      <point x="387.2679491924311" y="1"/>
      <point x="360.0" y="0" type="curve" smooth="yes"/>
      <point x="305.46410161513774" y="-2"/>
      <point x="244.26794919243113" y="1"/>
      <point x="190.0" y="0" type="curve" smooth="yes"/>
      <point x="167.0" y="0"/>
      <point x="102.46410161513776" y="-2"/>
      <point x="51.0" y="0" type="curve" smooth="yes"/>
      <point x="19.267949192431125" y="1"/>
      <point x="13.411542731880104" y="9"/>
    </contour>
  </outline>
</glyph>
<glyph name="two" format="2">
  <advance width="500"/>
  <unicode hex="0032"/>
  <anchor x="200.0" y="0" name="bottom"/>
  <anchor x="360.7695154586736" y="600" name="top"/>
  <outline>
    <contour>
      <point x="9.502577388071437" y="28" type="curve" smooth="yes"/>
      <point x="24" y="82"/>
      <point x="203.66163525594902" y="204"/>
      <point x="262.9872981077807" y="250" type="curve" smooth="yes"/>
      <point x="347.6719448082348" y="316"/>
      <point x="438.0360834330001" y="392"/>
      <point x="444.7207301334542" y="458" type="curve" smooth="yes"/>
      <point x="449.24254540799245" y="501"/>
      <point x="435.3720558371175" y="550"/>
      <point x="342.3720558371175" y="550" type="curve" smooth="yes"/>
      <point x="302.3720558371175" y="550"/>
      <point x="236.20922441120166" y="527"/>
      <point x="203.24254540799248" y="501" type="curve" smooth="yes"/>
      <point x="182.9553583290945" y="485"/>
      <point x="156.6156123669389" y="480"/>
      <point x="148.56305348368124" y="491" type="curve" smooth="yes"/>
      <point x="140.51049460042358" y="502"/>
      <point x="149.94127521877053" y="526"/>
      <point x="163.8887163355129" y="537" type="curve" smooth="yes"/>
      <point x="203.19514130087768" y="568"/>
      <point x="277.71695657541596" y="611"/>
      <point x="355.71695657541596" y="611" type="curve" smooth="yes"/>
      <point x="444.71695657541596" y="611"/>
      <point x="527.1951413008777" y="568"/>
      <point x="503.7207301334542" y="458" type="curve" smooth="yes"/>
      <point x="485.0694044297909" y="366"/>
      <point x="410.50911338231896" y="293"/>
      <point x="351.18345053048733" y="247" type="curve" smooth="yes"/>
      <point x="247.0154643284286" y="168"/>
      <point x="160.402614397699" y="106"/>
      <point x="119.14874831559186" y="64" type="curve"/>
      <point x="146.47066892650008" y="64"/>
      <point x="173.78247268172782" y="63.75901347773472"/>
      <point x="201.416697508023" y="65" type="curve" smooth="yes"/>
      <point x="238.95259589288523" y="67"/>
      <point x="320.416697508023" y="65"/>
      <point x="368.14874831559183" y="64" type="curve" smooth="yes"/>
      <point x="399.8807991231607" y="63"/>
      <point x="412.3256628518316" y="46"/>
      <point x="408.3064249653648" y="31" type="curve" smooth="yes"/>
      <point x="403.2153903091735" y="12"/>
      <point x="388.2679491924311" y="1"/>
      <point x="361.0" y="0" type="curve" smooth="yes"/>
      <point x="306.46410161513774" y="-2"/>
      <point x="235.26794919243113" y="1"/>
      <point x="181.0" y="0" type="curve" smooth="yes"/>
      <point x="158.0" y="0"/>
      <point x="93.46410161513776" y="-2"/>
      <point x="42.0" y="0" type="curve" smooth="yes"/>
      <point x="21.354327783232605" y="0.6506252098853597"/>
      <point x="3" y="3"/>
    </contour>
  </outline>
</glyph>
<glyph name="three" format="2">
  <advance width="500"/>
  <unicode hex="0033"/>
  <anchor x="200.0" y="0" name="bottom"/>
  <anchor x="360.7695154586736" y="600" name="top"/>
  <outline>
    <contour>
      <point x="352.1693674201633" y="288" type="curve"/>
      <point x="412.54758915525264" y="323" type="line"/>
      <point x="438.8488593444746" y="298"/>
      <point x="458.1642126440205" y="232"/>
      <point x="424.9244296722373" y="149" type="curve" smooth="yes"/>
      <point x="367.87564434701784" y="7"/>
      <point x="265.1051177665153" y="-22"/>
      <point x="159.85640646055103" y="-8" type="curve" smooth="yes"/>
      <point x="91.53589838486224" y="2"/>
      <point x="67.53589838486224" y="2"/>
      <point x="22.27310396857399" y="57" type="curve" smooth="yes"/>
      <point x="11.756443470178588" y="70"/>
      <point x="13.794919243112268" y="100"/>
      <point x="30.81415712957911" y="115" type="curve" smooth="yes"/>
      <point x="70.92442967223728" y="149"/>
      <point x="90.15390309173472" y="120"/>
      <point x="102.59876682040564" y="103" type="curve" smooth="yes"/>
      <point x="122.0961894323342" y="75"/>
      <point x="150.3449007382985" y="61"/>
      <point x="185.0051547761429" y="56" type="curve" smooth="yes"/>
      <point x="252.32566285183165" y="46"/>
      <point x="328.0243926626097" y="71"/>
      <point x="360.4603280570995" y="151" type="curve" smooth="yes"/>
      <point x="385.0731779878291" y="213"/>
      <point x="370.0590948775052" y="254"/>
    </contour>
    <contour>
      <point x="288.6667900320919" y="260" type="curve" smooth="yes"/>
      <point x="266.0590948775052" y="254"/>
      <point x="242.13089164722965" y="258"/>
      <point x="242.48987549585212" y="278" type="curve" smooth="yes"/>
      <point x="241.58091015204343" y="297"/>
      <point x="264.6719448082348" y="316"/>
      <point x="279.47579238552817" y="319" type="curve" smooth="yes"/>
      <point x="413.3181157357552" y="352"/>
      <point x="443.3950672816226" y="412"/>
      <point x="446.25662851831646" y="460" type="curve" smooth="yes"/>
      <point x="450.7784437928547" y="503"/>
      <point x="436.3720558371175" y="550"/>
      <point x="343.3720558371175" y="550" type="curve" smooth="yes"/>
      <point x="303.3720558371175" y="550"/>
      <point x="237.20922441120166" y="527"/>
      <point x="204.24254540799248" y="501" type="curve" smooth="yes"/>
      <point x="183.9553583290945" y="485"/>
      <point x="157.6156123669389" y="480"/>
      <point x="149.56305348368124" y="491" type="curve" smooth="yes"/>
      <point x="141.51049460042358" y="502"/>
      <point x="150.94127521877053" y="526"/>
      <point x="164.8887163355129" y="537" type="curve" smooth="yes"/>
      <point x="204.19514130087768" y="568"/>
      <point x="278.71695657541596" y="611"/>
      <point x="356.71695657541596" y="611" type="curve" smooth="yes"/>
      <point x="445.71695657541596" y="611"/>
      <point x="528.7310396857399" y="570"/>
      <point x="505.25662851831646" y="460" type="curve" smooth="yes"/>
      <point x="486.1219633130486" y="355"/>
      <point x="425.24116418988785" y="292"/>
    </contour>
  </outline>
</glyph>
<glyph name="four" format="2">
  <advance width="500"/>
  <unicode hex="0034"/>
  <anchor x="221.0" y="0" name="bottom"/>
  <anchor x="381.7695154586736" y="600" name="top"/>
  <outline>
    <contour>
      <point x="478.44900738298486" y="610" type="line"/>
      <point x="484.44900738298486" y="610"/>
      <point x="502.30541384353586" y="602"/>
      <point x="493.4630904933088" y="569" type="curve" smooth="yes"/>
      <point x="465.66817125019656" y="469"/>
      <point x="473.9027994458369" y="496"/>
      <point x="428.0834875401149" y="325" type="curve" smooth="yes"/>
      <point x="406.64755214562507" y="245"/>
      <point x="377.90519178577046" y="134"/>
      <point x="356.4692563912806" y="54" type="curve" smooth="yes"/>
      <point x="346.28718707889794" y="16"/>
      <point x="337.5884572681199" y="-9"/>
      <point x="307.5884572681199" y="-9" type="curve" smooth="yes"/>
      <point x="276.5884572681199" y="-9"/>
      <point x="281.16283142591584" y="23"/>
      <point x="290.7372055837117" y="55" type="curve" smooth="yes"/>
      <point x="292.34490073829846" y="61"/>
      <point x="341.64755214562507" y="245"/>
      <point x="353.09757065043885" y="284" type="curve" smooth="yes"/>
      <point x="346.934739224523" y="261"/>
      <point x="419.013071988495" y="530"/>
      <point x="428.1233445311532" y="564" type="curve"/>
    </contour>
    <contour>
      <point x="52.451399722918424" y="248" type="curve" smooth="yes"/>
      <point x="57.81038357154088" y="268"/>
      <point x="79.02577388071435" y="280"/>
      <point x="107.82962145800772" y="283" type="curve" smooth="yes"/>
      <point x="130.36551984286996" y="285"/>
      <point x="203.82962145800772" y="283"/>
      <point x="244.36551984286996" y="285" type="curve" smooth="yes"/>
      <point x="281.9014182277322" y="287"/>
      <point x="393.36551984286996" y="285"/>
      <point x="441.09757065043885" y="284" type="curve" smooth="yes"/>
      <point x="472.82962145800775" y="283"/>
      <point x="485.27448518667865" y="266"/>
      <point x="481.2552473002118" y="251" type="curve" smooth="yes"/>
      <point x="476.1642126440205" y="232"/>
      <point x="461.2167715272781" y="221"/>
      <point x="433.948822334847" y="220" type="curve" smooth="yes"/>
      <point x="379.41292394998476" y="218"/>
      <point x="278.2167715272781" y="221"/>
      <point x="223.948822334847" y="220" type="curve" smooth="yes"/>
      <point x="200.948822334847" y="220"/>
      <point x="136.41292394998476" y="218"/>
      <point x="84.948822334847" y="220" type="curve" smooth="yes"/>
      <point x="53.21677152727811" y="221"/>
      <point x="47.3603650667271" y="229"/>
    </contour>
    <contour>
      <point x="112.1834505304873" y="247" type="curve"/>
      <point x="52.451399722918424" y="248" type="line"/>
      <point x="67.4565544990613" y="304"/>
      <point x="128.63862381144395" y="342"/>
      <point x="252.64893336372972" y="454" type="curve" smooth="yes"/>
      <point x="339.8169195657884" y="533"/>
      <point x="430.44900738298486" y="610"/>
      <point x="478.44900738298486" y="610" type="curve"/>
      <point x="462.83615745225524" y="548" type="line"/>
      <point x="376.9027994458369" y="496"/>
      <point x="332.91688255616083" y="455"/>
      <point x="280.32327051189804" y="408" type="curve" smooth="yes"/>
      <point x="220.12196331304855" y="355"/>
      <point x="151.5283512687858" y="308"/>
    </contour>
  </outline>
</glyph>
<glyph name="five" format="2">
  <advance width="500"/>
  <unicode hex="0035"/>
  <anchor x="200.0" y="0" name="bottom"/>
  <anchor x="360.7695154586736" y="600" name="top"/>
  <outline>
    <contour>
      <point x="176.80283645546442" y="574" type="curve" smooth="yes"/>
      <point x="181.89387111165576" y="593"/>
      <point x="192.03746465110473" y="601"/>
      <point x="224.30541384353586" y="602" type="curve" smooth="yes"/>
      <point x="276.8413122283981" y="604"/>
      <point x="330.30541384353586" y="602"/>
      <point x="353.30541384353586" y="602" type="curve" smooth="yes"/>
      <point x="407.03746465110476" y="601"/>
      <point x="445.8413122283981" y="604"/>
      <point x="499.30541384353586" y="602" type="curve" smooth="yes"/>
      <point x="526.0374646511048" y="601"/>
      <point x="535.0900235343624" y="590"/>
      <point x="529.9989888781711" y="571" type="curve" smooth="yes"/>
      <point x="525.9797509917042" y="556"/>
      <point x="504.42461472037513" y="539"/>
      <point x="472.156665527944" y="538" type="curve" smooth="yes"/>
      <point x="423.88871633551287" y="537"/>
      <point x="375.35281795065066" y="535"/>
      <point x="338.88871633551287" y="537" type="curve" smooth="yes"/>
      <point x="299.42461472037513" y="539"/>
      <point x="234.8887163355129" y="537"/>
      <point x="213.42461472037513" y="539" type="curve" smooth="yes"/>
      <point x="186.2284622976685" y="542"/>
      <point x="171.44385260684197" y="554"/>
    </contour>
    <contour>
      <point x="397.6423973694822" y="189" type="curve" smooth="yes"/>
      <point x="422.8276969415007" y="282.99281760661574"/>
      <point x="383.789559100621" y="340"/>
      <point x="288.10272542658174" y="340" type="curve" smooth="yes"/>
      <point x="244.1027254265817" y="340"/>
      <point x="187.40399561580364" y="315"/>
      <point x="142.13604642337253" y="314" type="curve"/>
      <point x="157.0694044297909" y="366" type="line"/>
      <point x="199.1412011995154" y="370"/>
      <point x="262.83993101029347" y="395"/>
      <point x="301.83993101029347" y="395" type="curve" smooth="yes"/>
      <point x="438.78835124267135" y="395"/>
      <point x="492.82725839564716" y="320.3116890068976"/>
      <point x="456.3026514073266" y="184" type="curve" smooth="yes"/>
      <point x="417.1820693123827" y="38"/>
      <point x="279.856406460551" y="-8"/>
      <point x="169.85640646055103" y="-8" type="curve" smooth="yes"/>
      <point x="97.85640646055103" y="-8"/>
      <point x="45.306424965364805" y="31"/>
      <point x="12.723122473387779" y="96" type="curve" smooth="yes"/>
      <point x="5.742360359854619" y="111"/>
      <point x="18.833395016045948" y="130"/>
      <point x="30.441090170632684" y="136" type="curve" smooth="yes"/>
      <point x="54.460328057099524" y="151"/>
      <point x="79.10134420847707" y="131"/>
      <point x="92.27825874471687" y="113" type="curve" smooth="yes"/>
      <point x="112.77568135664544" y="85"/>
      <point x="160.61284993072962" y="62"/>
      <point x="196.61284993072962" y="62" type="curve" smooth="yes"/>
      <point x="283.6128499307296" y="62"/>
      <point x="374.5987668204056" y="103"/>
    </contour>
    <contour>
      <point x="176.80283645546442" y="574" type="curve"/>
      <point x="231.6400050295486" y="551" type="line"/>
      <point x="230.62076714308176" y="536"/>
      <point x="227.28102118092616" y="531"/>
      <point x="221.97459621556135" y="500" type="curve" smooth="yes"/>
      <point x="214.06047609560983" y="463"/>
      <point x="195.66301647405368" y="413"/>
      <point x="186.0694044297909" y="366" type="curve" smooth="yes"/>
      <point x="178.22708107956385" y="333"/>
      <point x="158.40399561580364" y="315"/>
      <point x="142.13604642337253" y="314" type="curve" smooth="yes"/>
      <point x="122.8680972309414" y="313"/>
      <point x="109.61938592497712" y="327"/>
      <point x="118.05016654332407" y="351" type="curve" smooth="yes"/>
      <point x="128.82069312382663" y="380"/>
      <point x="146.18483174859193" y="456"/>
      <point x="155.2951042912501" y="490" type="curve" smooth="yes"/>
      <point x="158.51049460042358" y="502"/>
      <point x="164.86947844904606" y="522"/>
    </contour>
  </outline>
</glyph>
<glyph name="six" format="2">
  <advance width="500"/>
  <unicode hex="0036"/>
  <anchor x="200.0" y="0" name="bottom"/>
  <anchor x="380.7695154586736" y="600" name="top"/>
  <outline>
    <contour>
      <point x="135.05909487750517" y="254" type="curve" smooth="yes"/>
      <point x="166.95020355295162" y="429"/>
      <point x="240.24254540799248" y="501"/>
      <point x="320.0848687582195" y="534" type="curve" smooth="yes"/>
      <point x="358.3720558371175" y="550"/>
      <point x="414.39129372358434" y="565"/>
      <point x="451.1374276414772" y="523" type="curve" smooth="yes"/>
      <point x="467.7784437928547" y="503"/>
      <point x="486.6874091366634" y="484"/>
      <point x="513.1181897550103" y="508" type="curve" smooth="yes"/>
      <point x="530.1374276414772" y="523"/>
      <point x="533.7643606825308" y="544"/>
      <point x="508.5348872630333" y="573" type="curve" smooth="yes"/>
      <point x="463.86055011486496" y="619"/>
      <point x="403.12849930729607" y="620"/>
      <point x="327.6977186889491" y="596" type="curve" smooth="yes"/>
      <point x="209.7118017992731" y="555"/>
      <point x="93.43354305455622" y="442"/>
      <point x="71.03985699103832" y="239" type="curve" smooth="yes"/>
      <point x="59.976988555494934" y="138"/>
      <point x="62.18722408852553" y="94"/>
      <point x="112.43078061834694" y="24" type="curve" smooth="yes"/>
      <point x="125.60769515458674" y="6"/>
      <point x="164.5166604983954" y="-13"/>
      <point x="197.5166604983954" y="-13" type="curve" smooth="yes"/>
      <point x="304.5166604983954" y="-13"/>
      <point x="425.1346652052679" y="105"/>
      <point x="451.661635255949" y="204" type="curve" smooth="yes"/>
      <point x="471.221926303421" y="277"/>
      <point x="465.23223585570673" y="389"/>
      <point x="325.23223585570673" y="389" type="curve" smooth="yes"/>
      <point x="282.23223585570673" y="389"/>
      <point x="186.480947161671" y="375"/>
      <point x="115.4898754958521" y="278" type="curve"/>
      <point x="116.92958444838015" y="205" type="line"/>
      <point x="182.26040207635467" y="307"/>
      <point x="267.54758915525264" y="323"/>
      <point x="307.54758915525264" y="323" type="curve" smooth="yes"/>
      <point x="405.54758915525264" y="323"/>
      <point x="399.2552473002118" y="251"/>
      <point x="387.4654828332424" y="207" type="curve" smooth="yes"/>
      <point x="368.44109017063266" y="136"/>
      <point x="291.7372055837117" y="55"/>
      <point x="215.73720558371176" y="55" type="curve" smooth="yes"/>
      <point x="135.73720558371176" y="55"/>
      <point x="121.96290544517096" y="179"/>
    </contour>
  </outline>
</glyph>
<glyph name="seven" format="2">
  <advance width="500"/>
  <unicode hex="0037"/>
  <anchor x="193.0" y="0" name="bottom"/>
  <anchor x="353.7695154586736" y="600" name="top"/>
  <outline>
    <contour>
      <point x="488.4630904933088" y="569" type="curve"/>
      <point x="551.6592429160155" y="566" type="line"/>
      <point x="528.4386978306991" y="498"/>
      <point x="424.480947161671" y="375"/>
      <point x="350.36551984286996" y="285" type="curve" smooth="yes"/>
      <point x="277.7859909089312" y="197"/>
      <point x="221.15390309173472" y="120"/>
      <point x="190.91412011995155" y="37" type="curve" smooth="yes"/>
      <point x="180.21539030917347" y="12"/>
      <point x="157.85640646055103" y="-8"/>
      <point x="141.6602540378444" y="-5" type="curve" smooth="yes"/>
      <point x="124.19615242270663" y="-3"/>
      <point x="115.82308546376021" y="18"/>
      <point x="122.11027254265818" y="34" type="curve" smooth="yes"/>
      <point x="175.96290544517097" y="179"/>
      <point x="265.3462819564031" y="270"/>
      <point x="334.3899125054797" y="356" type="curve" smooth="yes"/>
      <point x="392.9502035529516" y="429"/>
      <point x="447.6348502534057" y="495"/>
    </contour>
    <contour>
      <point x="551.6592429160155" y="566" type="curve" smooth="yes"/>
      <point x="544.300259067393" y="546"/>
      <point x="522.6207671430818" y="536"/>
      <point x="494.35281795065066" y="535" type="curve" smooth="yes"/>
      <point x="472.0848687582195" y="534"/>
      <point x="400.5489703733573" y="532"/>
      <point x="359.7451227960639" y="529" type="curve" smooth="yes"/>
      <point x="321.94127521877056" y="526"/>
      <point x="241.4771736036328" y="528"/>
      <point x="194.35281795065063" y="535" type="curve" smooth="yes"/>
      <point x="163.69256391280626" y="540"/>
      <point x="150.17590341441084" y="553"/>
      <point x="154.19514130087768" y="568" type="curve" smooth="yes"/>
      <point x="159.28617595706902" y="587"/>
      <point x="175.30541384353586" y="602"/>
      <point x="201.5015662662425" y="599" type="curve" smooth="yes"/>
      <point x="252.1618203040869" y="594"/>
      <point x="325.3579727267935" y="591"/>
      <point x="380.16182030408686" y="594" type="curve" smooth="yes"/>
      <point x="430.9656678813802" y="597"/>
      <point x="471.30541384353586" y="602"/>
      <point x="521.9656678813802" y="597" type="curve" smooth="yes"/>
      <point x="556.1618203040869" y="594"/>
      <point x="557.7502775722068" y="585"/>
    </contour>
    <contour>
      <point x="136.59121970432918" y="409" type="curve" smooth="yes"/>
      <point x="123.59121970432918" y="409"/>
      <point x="110.53866082107153" y="420"/>
      <point x="120.57713659400521" y="450" type="curve" smooth="yes"/>
      <point x="131.68740913666338" y="484"/>
      <point x="144.45793571716595" y="513"/>
      <point x="154.19514130087768" y="568" type="curve"/>
      <point x="209.90795422197974" y="552" type="line"/>
      <point x="194.31434217771695" y="505"/>
      <point x="192.34766317450777" y="479"/>
      <point x="177.77328901671183" y="447" type="curve" smooth="yes"/>
      <point x="167.34250839836488" y="423"/>
      <point x="154.32327051189804" y="408"/>
    </contour>
  </outline>
</glyph>
<glyph name="eight" format="2">
  <advance width="500"/>
  <unicode hex="0038"/>
  <anchor x="200.0" y="0" name="bottom"/>
  <anchor x="360.7695154586736" y="600" name="top"/>
  <outline>
    <contour>
      <point x="367.98490576784707" y="612" type="curve" smooth="yes"/>
      <point x="400.98490576784707" y="612"/>
      <point x="454.6451598056915" y="607"/>
      <point x="488.33873484032665" y="576" type="curve" smooth="yes"/>
      <point x="509.97975099170424" y="556"/>
      <point x="519.6733260263394" y="525"/>
      <point x="509.2233075215256" y="486" type="curve" smooth="yes"/>
      <point x="490.73481324377815" y="417"/>
      <point x="457.3899125054797" y="356"/>
      <point x="343.47579238552817" y="319" type="curve"/>
      <point x="312.8014552373598" y="365" type="line"/>
      <point x="379.8014552373598" y="365"/>
      <point x="424.78737212703584" y="406"/>
      <point x="443.5438155972144" y="476" type="curve" smooth="yes"/>
      <point x="459.62076714308176" y="536"/>
      <point x="405.10410664468634" y="549"/>
      <point x="358.10410664468634" y="549" type="curve" smooth="yes"/>
      <point x="293.10410664468634" y="549"/>
      <point x="237.26178329445932" y="516"/>
      <point x="220.11303497886746" y="452" type="curve" smooth="yes"/>
      <point x="202.42838827841337" y="386"/>
      <point x="239.8014552373598" y="365"/>
      <point x="312.8014552373598" y="365" type="curve" smooth="yes"/>
      <point x="379.8014552373598" y="365"/>
      <point x="412.8540141206174" y="354"/>
      <point x="444.351436732546" y="326" type="curve" smooth="yes"/>
      <point x="468.4565544990613" y="304"/>
      <point x="474.5757553759006" y="241"/>
      <point x="460.6423973694822" y="189" type="curve" smooth="yes"/>
      <point x="444.5654458236148" y="129"/>
      <point x="417.5077321642143" y="84"/>
      <point x="378.66540881398726" y="51" type="curve" smooth="yes"/>
      <point x="334.4833395016046" y="13"/>
      <point x="269.5884572681199" y="-9"/>
      <point x="192.5884572681199" y="-9" type="curve" smooth="yes"/>
      <point x="109.5884572681199" y="-9"/>
      <point x="7.59361204426277" y="47"/>
      <point x="41.62315948301535" y="174" type="curve" smooth="yes"/>
      <point x="59.30780618346945" y="240"/>
      <point x="137.44247138873732" y="345"/>
      <point x="237.05016654332405" y="351" type="curve"/>
      <point x="304.3847577293368" y="300" type="line"/>
      <point x="172.99245288392353" y="306"/>
      <point x="117.73343202567352" y="208"/>
      <point x="107.28341352085974" y="169" type="curve" smooth="yes"/>
      <point x="96.83339501604596" y="130"/>
      <point x="108.86671601283676" y="104"/>
      <point x="128.5795289339388" y="88" type="curve" smooth="yes"/>
      <point x="156.88079912316073" y="63"/>
      <point x="200.273103968574" y="57"/>
      <point x="212.273103968574" y="57" type="curve" smooth="yes"/>
      <point x="270.273103968574" y="57"/>
      <point x="312.8282402399031" y="74"/>
      <point x="340.9910716658189" y="97" type="curve" smooth="yes"/>
      <point x="366.8859538993036" y="119"/>
      <point x="387.53212482682403" y="155"/>
      <point x="395.5706005997577" y="185" type="curve" smooth="yes"/>
      <point x="416.38221646639136" y="262.6700078018834"/>
      <point x="378.64823236903965" y="300"/>
      <point x="304.3847577293368" y="300" type="curve" smooth="yes"/>
      <point x="182.3847577293368" y="300"/>
      <point x="127.51426815846182" y="349"/>
      <point x="155.64893336372972" y="454" type="curve" smooth="yes"/>
      <point x="184.85539533872208" y="563"/>
      <point x="280.98490576784707" y="612"/>
    </contour>
  </outline>
</glyph>
<glyph name="nine" format="2">
  <advance width="500"/>
  <unicode hex="0039"/>
  <anchor x="200.0" y="0" name="bottom"/>
  <anchor x="372.7695154586736" y="600" name="top"/>
  <outline>
    <contour>
      <point x="416.81553834768374" y="324" type="curve" smooth="yes"/>
      <point x="398.0590948775052" y="254"/>
      <point x="366.26933041053576" y="210"/>
      <point x="189.14874831559186" y="64" type="curve" smooth="yes"/>
      <point x="162.25386608210715" y="42"/>
      <point x="143.28718707889797" y="16"/>
      <point x="162.9282032302755" y="-4" type="curve" smooth="yes"/>
      <point x="173.71281292110203" y="-16"/>
      <point x="193.05255888325766" y="-11"/>
      <point x="232.35898384862247" y="20" type="curve" smooth="yes"/>
      <point x="359.9577506690281" y="123"/>
      <point x="449.68087314241586" y="219"/>
      <point x="479.1552843098394" y="329" type="curve" smooth="yes"/>
      <point x="506.754051130245" y="432"/>
      <point x="499.170748638268" y="497"/>
      <point x="479.7118017992731" y="555" type="curve" smooth="yes"/>
      <point x="472.6066840327578" y="577"/>
      <point x="435.8413122283981" y="604"/>
      <point x="403.1810581905537" y="609" type="curve" smooth="yes"/>
      <point x="301.4682452694517" y="625"/>
      <point x="167.13742764147716" y="523"/>
      <point x="126.14635597565827" y="426" type="curve" smooth="yes"/>
      <point x="94.85401412061744" y="354"/>
      <point x="75.02061910457148" y="224"/>
      <point x="213.6090763726914" y="215" type="curve" smooth="yes"/>
      <point x="248.07317798782913" y="213"/>
      <point x="381.0731779878291" y="213"/>
      <point x="443.7104205811685" y="346" type="curve"/>
      <point x="438.3950672816226" y="412" type="line"/>
      <point x="397.36551984286996" y="285"/>
      <point x="281.0257738807144" y="280"/>
      <point x="242.02577388071435" y="280" type="curve" smooth="yes"/>
      <point x="141.02577388071435" y="280"/>
      <point x="166.87325200708426" y="369"/>
      <point x="185.39506728162254" y="412" type="curve" smooth="yes"/>
      <point x="216.41945994423227" y="483"/>
      <point x="304.0515477614287" y="560"/>
      <point x="375.83615745225524" y="548" type="curve" smooth="yes"/>
      <point x="451.35281795065066" y="535"/>
      <point x="436.91172778001794" y="399"/>
    </contour>
  </outline>
</glyph>
<glyph name="less" format="2">
  <advance width="500"/>
  <unicode hex="003C"/>
  <outline>
    <contour>
      <point x="136.3847577293368" y="300" type="curve"/>
      <point x="163.77706257475006" y="294"/>
      <point x="178.02577388071435" y="280"/>
      <point x="189.81038357154088" y="268" type="curve" smooth="yes"/>
      <point x="220.8437045683317" y="242"/>
      <point x="253.80522879539802" y="212"/>
      <point x="264.1257368710868" y="202" type="curve" smooth="yes"/>
      <point x="285.2308546376021" y="180"/>
      <point x="368.67056359013014" y="107"/>
      <point x="398.90003700962757" y="78" type="curve" smooth="yes"/>
      <point x="419.273103968574" y="57"/>
      <point x="421.9141201199515" y="37"/>
      <point x="403.0910346561913" y="19" type="curve" smooth="yes"/>
      <point x="389.60769515458674" y="6"/>
      <point x="367.80384757729337" y="3"/>
      <point x="353.28718707889794" y="16" type="curve" smooth="yes"/>
      <point x="331.84232335022705" y="33"/>
      <point x="235.22569986145922" y="124"/>
      <point x="214.8526329025128" y="145" type="curve" smooth="yes"/>
      <point x="208.46032805709953" y="151"/>
      <point x="113.89626345158933" y="231"/>
      <point x="80.93473922452303" y="261" type="curve" smooth="yes"/>
      <point x="67.72418546272434" y="274.274169921875"/>
      <point x="66.16936742016334" y="288"/>
      <point x="69.38475772933681" y="300" type="curve" smooth="yes"/>
      <point x="72.60014803851028" y="312"/>
      <point x="81.5106162508321" y="325.725830078125"/>
      <point x="101.8347762341506" y="339" type="curve" smooth="yes"/>
      <point x="150.87325200708426" y="369"/>
      <point x="288.3091874015741" y="449"/>
      <point x="297.91688255616083" y="455" type="curve" smooth="yes"/>
      <point x="329.5438155972144" y="476"/>
      <point x="474.92719210844655" y="567"/>
      <point x="505.48232837977565" y="584" type="curve" smooth="yes"/>
      <point x="526.9656678813802" y="597"/>
      <point x="547.1618203040869" y="594"/>
      <point x="553.6784808024822" y="581" type="curve" smooth="yes"/>
      <point x="562.855395338722" y="563"/>
      <point x="549.4964114900996" y="543"/>
      <point x="517.869478449046" y="522" type="curve" smooth="yes"/>
      <point x="472.0989518685435" y="493"/>
      <point x="349.8066100135027" y="421"/>
      <point x="316.91172778001794" y="399" type="curve" smooth="yes"/>
      <point x="301.23223585570673" y="389"/>
      <point x="252.46170927520416" y="360"/>
      <point x="208.22708107956385" y="333" type="curve" smooth="yes"/>
      <point x="189.2796399628215" y="322"/>
      <point x="166.99245288392353" y="306"/>
    </contour>
  </outline>
</glyph>
<glyph name="equal" format="2">
  <advance width="500"/>
  <unicode hex="003D"/>
  <outline>
    <contour>
      <point x="89.17967697244907" y="400" type="curve" smooth="yes"/>
      <point x="93.46686405134705" y="416"/>
      <point x="111.28994951510725" y="434"/>
      <point x="140.28994951510725" y="434" type="curve" smooth="yes"/>
      <point x="192.28994951510725" y="434"/>
      <point x="299.754051130245" y="432"/>
      <point x="311.754051130245" y="432" type="curve" smooth="yes"/>
      <point x="344.754051130245" y="432"/>
      <point x="465.55789870753836" y="435"/>
      <point x="497.02200032267615" y="433" type="curve" smooth="yes"/>
      <point x="519.754051130245" y="432"/>
      <point x="530.2707116286404" y="419"/>
      <point x="525.1796769724491" y="400" type="curve" smooth="yes"/>
      <point x="519.5527439313955" y="379"/>
      <point x="499.33735362222205" y="367"/>
      <point x="464.0694044297909" y="366" type="curve" smooth="yes"/>
      <point x="416.8014552373598" y="365"/>
      <point x="323.0694044297909" y="366"/>
      <point x="285.8014552373598" y="365" type="curve" smooth="yes"/>
      <point x="254.8014552373598" y="365"/>
      <point x="135.53350604492866" y="364"/>
      <point x="118.33735362222203" y="367" type="curve" smooth="yes"/>
      <point x="91.40915039194653" y="371"/>
      <point x="84.89248989355112" y="384"/>
    </contour>
    <contour>
      <point x="35.58983848622454" y="200" type="curve" smooth="yes"/>
      <point x="39.8770255651225" y="216"/>
      <point x="57.968060221313834" y="235"/>
      <point x="86.96806022131383" y="235" type="curve" smooth="yes"/>
      <point x="138.96806022131383" y="235"/>
      <point x="246.4321618364516" y="233"/>
      <point x="258.4321618364516" y="233" type="curve" smooth="yes"/>
      <point x="291.4321618364516" y="233"/>
      <point x="412.23600941374497" y="236"/>
      <point x="443.7001110288827" y="234" type="curve" smooth="yes"/>
      <point x="466.4321618364516" y="233"/>
      <point x="476.68087314241586" y="219"/>
      <point x="471.58983848622455" y="200" type="curve" smooth="yes"/>
      <point x="465.962905445171" y="179"/>
      <point x="446.0154643284286" y="168"/>
      <point x="410.7475151359975" y="167" type="curve" smooth="yes"/>
      <point x="363.4795659435664" y="166"/>
      <point x="269.7475151359975" y="167"/>
      <point x="232.47956594356637" y="166" type="curve" smooth="yes"/>
      <point x="201.47956594356637" y="166"/>
      <point x="82.21161675113524" y="165"/>
      <point x="65.0154643284286" y="168" type="curve" smooth="yes"/>
      <point x="38.08726109815311" y="172"/>
      <point x="31.30265140732658" y="184"/>
    </contour>
  </outline>
</glyph>
<glyph name="question" format="2">
  <advance width="500"/>
  <unicode hex="003F"/>
  <outline>
    <contour>
      <point x="244.6911826947016" y="331" type="curve" smooth="yes"/>
      <point x="265.9065730038751" y="343"/>
      <point x="299.9065730038751" y="343"/>
      <point x="316.7104205811685" y="346" type="curve" smooth="yes"/>
      <point x="359.5860649281863" y="353"/>
      <point x="417.08864231625773" y="381"/>
      <point x="437.70149224698736" y="443" type="curve" smooth="yes"/>
      <point x="461.4579357171659" y="513"/>
      <point x="418.300259067393" y="546"/>
      <point x="359.10410664468634" y="549" type="curve" smooth="yes"/>
      <point x="290.17590341441087" y="553"/>
      <point x="255.62076714308176" y="536"/>
      <point x="239.4771736036328" y="528" type="curve" smooth="yes"/>
      <point x="223.3335800641838" y="520"/>
      <point x="211.58229137014808" y="506"/>
      <point x="191.24254540799248" y="501" type="curve" smooth="yes"/>
      <point x="178.4386978306991" y="498"/>
      <point x="166.97459621556135" y="500"/>
      <point x="164.65408813987258" y="510" type="curve" smooth="yes"/>
      <point x="161.01307198849503" y="530"/>
      <point x="170.17590341441084" y="553"/>
      <point x="209.60668403275778" y="577" type="curve" smooth="yes"/>
      <point x="237.429769496518" y="595"/>
      <point x="297.3246517300027" y="617"/>
      <point x="380.98490576784707" y="612" type="curve" smooth="yes"/>
      <point x="504.1092614208292" y="605"/>
      <point x="533.869478449046" y="522"/>
      <point x="507.3617462848317" y="438" type="curve" smooth="yes"/>
      <point x="481.46170927520416" y="360"/>
      <point x="423.27963996282153" y="322"/>
      <point x="384.72450369149243" y="305" type="curve" smooth="yes"/>
      <point x="348.4373166125945" y="289"/>
      <point x="315.2937230731455" y="281"/>
      <point x="290.4898754958521" y="278" type="curve"/>
      <point x="287.13089164722965" y="258"/>
      <point x="283.9155013380562" y="246"/>
      <point x="279.89626345158933" y="231" type="curve" smooth="yes"/>
      <point x="265.03470221489545" y="183"/>
      <point x="263.94366755870413" y="164"/>
      <point x="236.675718366273" y="163" type="curve" smooth="yes"/>
      <point x="203.13981998141077" y="161"/>
      <point x="214.92958444838015" y="205"/>
      <point x="217.3603650667271" y="229" type="curve" smooth="yes"/>
      <point x="218.91550133805617" y="246"/>
      <point x="221.2937230731455" y="281"/>
      <point x="221.2937230731455" y="281" type="curve" smooth="yes"/>
      <point x="227.40399561580364" y="315"/>
      <point x="233.81553834768374" y="324"/>
    </contour>
    <component base="period"/>
  </outline>
</glyph>
<glyph name="at" format="2">
  <advance width="500"/>
  <unicode hex="0040"/>
  <outline>
    <contour>
      <point x="327.7475151359975" y="167" type="curve" smooth="yes"/>
      <point x="302.7141941392067" y="193"/>
      <point x="325.5283512687858" y="308"/>
      <point x="348.83993101029347" y="395" type="curve"/>
      <point x="254.59121970432918" y="409"/>
      <point x="232.207843193097" y="318"/>
      <point x="218.73858680181638" y="264" type="curve" smooth="yes"/>
      <point x="208.21677152727813" y="221"/>
      <point x="216.44624494677555" y="192"/>
      <point x="248.44624494677555" y="192" type="curve" smooth="yes"/>
      <point x="279.44624494677555" y="192"/>
      <point x="309.4321618364516" y="233"/>
      <point x="326.3129609596123" y="296" type="curve"/>
      <point x="337.7001110288827" y="234" type="line"/>
      <point x="301.99622644196177" y="153"/>
      <point x="260.8333950160459" y="130"/>
      <point x="228.63724259333932" y="133" type="curve" smooth="yes"/>
      <point x="195.4410901706327" y="136"/>
      <point x="140.1923788646684" y="150"/>
      <point x="176.90141822773222" y="287" type="curve" smooth="yes"/>
      <point x="198.60530281465316" y="368"/>
      <point x="229.46686405134705" y="416"/>
      <point x="293.897644669694" y="440" type="curve" smooth="yes"/>
      <point x="339.4527809410231" y="457"/>
      <point x="368.84508578643636" y="451"/>
      <point x="382.2373906318496" y="445" type="curve" smooth="yes"/>
      <point x="400.0937970924006" y="437"/>
      <point x="400.4143051680894" y="427"/>
      <point x="399.5386608210715" y="420" type="curve" smooth="yes"/>
      <point x="391.82069312382663" y="380"/>
      <point x="381.78221735089295" y="350"/>
      <point x="373.5283512687858" y="308" type="curve" smooth="yes"/>
      <point x="358.50395860617607" y="237"/>
      <point x="359.805228795398" y="212"/>
      <point x="375.805228795398" y="212" type="curve" smooth="yes"/>
      <point x="391.805228795398" y="212"/>
      <point x="401.48472071970923" y="222"/>
      <point x="422.4898754958521" y="278" type="curve" smooth="yes"/>
      <point x="459.8924898935511" y="384"/>
      <point x="492.7835985689976" y="559"/>
      <point x="373.0515477614287" y="560" type="curve" smooth="yes"/>
      <point x="233.31949695385984" y="561"/>
      <point x="178.06047609560983" y="463"/>
      <point x="126.97321499745671" y="291" type="curve" smooth="yes"/>
      <point x="101.92958444838015" y="205"/>
      <point x="89.12058209494391" y="146"/>
      <point x="102.93851278256125" y="108" type="curve" smooth="yes"/>
      <point x="130.57437415779594" y="32"/>
      <point x="267.39745962155615" y="50"/>
      <point x="271.39745962155615" y="50" type="curve" smooth="yes"/>
      <point x="289.2013071988495" y="53"/>
      <point x="305.4500185048138" y="39"/>
      <point x="300.6269330410536" y="21" type="curve" smooth="yes"/>
      <point x="294.80384757729337" y="3"/>
      <point x="274.5884572681199" y="-9"/>
      <point x="263.05255888325763" y="-11" type="curve" smooth="yes"/>
      <point x="203.90896534380866" y="-19"/>
      <point x="78.83716857408417" y="-23"/>
      <point x="44.14874831559185" y="64" type="curve" smooth="yes"/>
      <point x="23.350055514441355" y="117"/>
      <point x="38.230854637602086" y="180"/>
      <point x="67.97321499745671" y="291" type="curve" smooth="yes"/>
      <point x="110.38098417129858" y="453"/>
      <point x="164.79768167932156" y="518"/>
      <point x="221.1233445311532" y="564" type="curve" smooth="yes"/>
      <point x="272.37721061326033" y="606"/>
      <point x="321.86055011486496" y="619"/>
      <point x="394.0567025375716" y="616" type="curve" smooth="yes"/>
      <point x="482.98490576784707" y="612"/>
      <point x="508.4630904933088" y="569"/>
      <point x="516.9027994458369" y="496" type="curve" smooth="yes"/>
      <point x="521.7732890167118" y="447"/>
      <point x="510.87325200708426" y="369"/>
      <point x="475.6142311488343" y="271" type="curve" smooth="yes"/>
      <point x="451.4654828332424" y="207"/>
      <point x="420.0154643284286" y="168"/>
      <point x="389.3359724041174" y="158" type="curve" smooth="yes"/>
      <point x="368.1923788646684" y="150"/>
      <point x="346.85263290251277" y="145"/>
    </contour>
  </outline>
</glyph>
<glyph name="A" format="2">
  <advance width="500"/>
  <unicode hex="0041"/>
  <anchor x="373.7695154586736" y="600" name="top"/>
  <anchor x="28.85640646055102" y="-8" name="cedilla"/>
  <anchor x="361.856406460551" y="-8" name="ogonek"/>
  <anchor x="200.0" y="0" name="bottom"/>
  <outline>
    <contour>
      <point x="28.85640646055102" y="-8" type="curve" smooth="yes"/>
      <point x="4.856406460551021" y="-8"/>
      <point x="-3.392304845413264" y="6"/>
      <point x="8.129510429125013" y="49" type="curve" smooth="yes"/>
      <point x="77.92065611419905" y="302"/>
      <point x="164.8258478999695" y="436"/>
      <point x="233.9938341020282" y="515" type="curve" smooth="yes"/>
      <point x="290.9464299949134" y="582"/>
      <point x="332.1810581905537" y="609"/>
      <point x="378.1810581905537" y="609" type="curve" smooth="yes"/>
      <point x="429.9131089981226" y="608"/>
      <point x="452.5541251495001" y="588"/>
      <point x="465.2284622976685" y="542" type="curve" smooth="yes"/>
      <point x="482.6156123669389" y="480"/>
      <point x="482.42838827841337" y="386"/>
      <point x="449.661635255949" y="204" type="curve" smooth="yes"/>
      <point x="438.3692934009082" y="132"/>
      <point x="423.75644347017857" y="70"/>
      <point x="416.25386608210715" y="42" type="curve" smooth="yes"/>
      <point x="409.01923788646684" y="15"/>
      <point x="389.856406460551" y="-8"/>
      <point x="361.856406460551" y="-8" type="curve" smooth="yes"/>
      <point x="341.856406460551" y="-8"/>
      <point x="343.8230854637602" y="18"/>
      <point x="351.52181527453826" y="43" type="curve" smooth="yes"/>
      <point x="367.7231224733878" y="96"/>
      <point x="387.0539401013623" y="198"/>
      <point x="408.69118269470164" y="331" type="curve" smooth="yes"/>
      <point x="421.6630164740537" y="413"/>
      <point x="439" y="548"/>
      <point x="369" y="548" type="curve" smooth="yes"/>
      <point x="310" y="548"/>
      <point x="215.66301647405368" y="413"/>
      <point x="174.6911826947016" y="331" type="curve" smooth="yes"/>
      <point x="134.98729810778067" y="250"/>
      <point x="99.47956594356637" y="166"/>
      <point x="67.84232335022705" y="33" type="curve" smooth="yes"/>
      <point x="63.4833395016046" y="13"/>
      <point x="44.85640646055102" y="-8"/>
    </contour>
    <contour>
      <point x="422.60014803851027" y="312" type="curve"/>
      <point x="406.71934891534954" y="249" type="line"/>
      <point x="313.71934891534954" y="249"/>
      <point x="182.1116537607628" y="243"/>
      <point x="122.71934891534956" y="249" type="curve"/>
      <point x="148.8680972309414" y="313" type="line"/>
      <point x="233.5283512687858" y="308"/>
      <point x="340.60014803851027" y="312"/>
    </contour>
  </outline>
</glyph>
<glyph name="B" format="2">
  <advance width="500"/>
  <unicode hex="0042"/>
  <anchor x="326.7695154586736" y="600" name="top"/>
  <anchor x="139.78460969082653" y="-12" name="cedilla"/>
  <anchor x="139.78460969082653" y="-12" name="ogonek"/>
  <anchor x="175.0" y="0" name="bottom"/>
  <outline>
    <contour>
      <point x="37.469256391280624" y="54" type="curve" smooth="yes"/>
      <point x="21.70903936306381" y="137"/>
      <point x="130.91688255616083" y="455"/>
      <point x="157.0656308717527" y="519" type="curve" smooth="yes"/>
      <point x="185.28617595706902" y="587"/>
      <point x="241.2218332359989" y="608"/>
      <point x="326.9131089981226" y="608" type="curve" smooth="yes"/>
      <point x="475.9131089981226" y="608"/>
      <point x="523.5489703733573" y="532"/>
      <point x="506.4002220577654" y="468" type="curve" smooth="yes"/>
      <point x="487.91172778001794" y="399"/>
      <point x="422.92581089034195" y="358"/>
      <point x="365.95913188713274" y="332" type="curve" smooth="yes"/>
      <point x="334.47579238552817" y="319"/>
      <point x="276.5283512687858" y="308"/>
      <point x="197.5283512687858" y="308" type="curve" smooth="yes"/>
      <point x="173.5283512687858" y="308"/>
      <point x="142.5283512687858" y="308"/>
      <point x="137.5283512687858" y="308" type="curve"/>
      <point x="154" y="367" type="line"/>
      <point x="321" y="341"/>
      <point x="428.19891485891594" y="415"/>
      <point x="442.93612044262767" y="470" type="curve" smooth="yes"/>
      <point x="458.47717360363276" y="528"/>
      <point x="395" y="554"/>
      <point x="314" y="554" type="curve" smooth="yes"/>
      <point x="263" y="554"/>
      <point x="225.6400050295486" y="551"/>
      <point x="204.4386978306991" y="498" type="curve" smooth="yes"/>
      <point x="148.38991250547969" y="356"/>
      <point x="92.24493774792606" y="139"/>
      <point x="97.11542731880104" y="90" type="curve" smooth="yes"/>
      <point x="100.00515477614287" y="56"/>
      <point x="111.43938143142802" y="51"/>
      <point x="159.66540881398726" y="51" type="curve" smooth="yes"/>
      <point x="270.66540881398726" y="51"/>
      <point x="362.31157974150767" y="87"/>
      <point x="388.5706005997577" y="185" type="curve" smooth="yes"/>
      <point x="408.6667900320919" y="260"/>
      <point x="349.40399561580364" y="315"/>
      <point x="260.207843193097" y="318" type="curve"/>
      <point x="366.7104205811685" y="346" type="line"/>
      <point x="456.88733511740827" y="328"/>
      <point x="472.45139972291844" y="248"/>
      <point x="454.49880383003324" y="181" type="curve" smooth="yes"/>
      <point x="411.8948822334847" y="22"/>
      <point x="245.98076211353316" y="-15"/>
      <point x="139.78460969082653" y="-12" type="curve" smooth="yes"/>
      <point x="78.32050807568876" y="-10"/>
      <point x="48.03500699177691" y="0.18550588198070272"/>
    </contour>
  </outline>
</glyph>
<glyph name="C" format="2">
  <advance width="500"/>
  <unicode hex="0043"/>
  <anchor x="376.7695154586736" y="600" name="top"/>
  <anchor x="213.05255888325766" y="-11" name="cedilla"/>
  <anchor x="213.05255888325766" y="-11" name="ogonek"/>
  <anchor x="200.0" y="0" name="bottom"/>
  <outline>
    <contour>
      <point x="498.8066100135027" y="421" type="curve" smooth="yes"/>
      <point x="481.8066100135027" y="421"/>
      <point x="474.0937970924006" y="437"/>
      <point x="478.79252690317867" y="462" type="curve" smooth="yes"/>
      <point x="488.3335800641838" y="520"/>
      <point x="442.443852606842" y="554"/>
      <point x="361.443852606842" y="554" type="curve" smooth="yes"/>
      <point x="272.443852606842" y="554"/>
      <point x="192.77844379285472" y="503"/>
      <point x="134.90141822773222" y="287" type="curve" smooth="yes"/>
      <point x="79.1679862020587" y="79"/>
      <point x="169.39745962155615" y="50"/>
      <point x="215.39745962155615" y="50" type="curve" smooth="yes"/>
      <point x="307.39745962155615" y="50"/>
      <point x="363.5795289339388" y="88"/>
      <point x="383.1013442084771" y="131" type="curve" smooth="yes"/>
      <point x="396.87187078897966" y="160"/>
      <point x="408.35521029058424" y="173"/>
      <point x="426.35521029058424" y="173" type="curve" smooth="yes"/>
      <point x="444.35521029058424" y="173"/>
      <point x="454.3359724041174" y="158"/>
      <point x="442.49364905389035" y="125" type="curve" smooth="yes"/>
      <point x="426.0961894323342" y="75"/>
      <point x="332.05255888325763" y="-11"/>
      <point x="213.05255888325766" y="-11" type="curve" smooth="yes"/>
      <point x="76.05255888325766" y="-11"/>
      <point x="17.90003700962757" y="78"/>
      <point x="72.5616722655766" y="282" type="curve" smooth="yes"/>
      <point x="113.82584789996949" y="436"/>
      <point x="195.71695657541596" y="611"/>
      <point x="378.71695657541596" y="611" type="curve" smooth="yes"/>
      <point x="561.7169565754159" y="611"/>
      <point x="542.0797139820767" y="478"/>
      <point x="536.9886793258853" y="459" type="curve" smooth="yes"/>
      <point x="531.0937970924006" y="437"/>
      <point x="513.8066100135027" y="421"/>
    </contour>
  </outline>
</glyph>
<glyph name="D" format="2">
  <advance width="500"/>
  <unicode hex="0044"/>
  <anchor x="290.7695154586736" y="600" name="top"/>
  <anchor x="111.85640646055103" y="-8" name="cedilla"/>
  <anchor x="111.85640646055103" y="-8" name="ogonek"/>
  <anchor x="130.0" y="0" name="bottom"/>
  <outline>
    <contour>
      <point x="32.53589838486224" y="2" type="curve" smooth="yes"/>
      <point x="15.411542731880104" y="9"/>
      <point x="7.306424965364805" y="31"/>
      <point x="21.02439266260971" y="71" type="curve" smooth="yes"/>
      <point x="35.742360359854615" y="111"/>
      <point x="66.55651748943373" y="226"/>
      <point x="94.63862381144396" y="342" type="curve" smooth="yes"/>
      <point x="108.57198181786234" y="394"/>
      <point x="130.68740913666338" y="484"/>
      <point x="141.01307198849503" y="530" type="curve" smooth="yes"/>
      <point x="149.07078564789555" y="575"/>
      <point x="164.55412514950015" y="588"/>
      <point x="179.1618203040869" y="594" type="curve" smooth="yes"/>
      <point x="196.03746465110473" y="601"/>
      <point x="232.18105819055373" y="609"/>
      <point x="292.1810581905537" y="609" type="curve" smooth="yes"/>
      <point x="485.1810581905537" y="609"/>
      <point x="527.7732890167118" y="447"/>
      <point x="491.86809723094143" y="313" type="curve" smooth="yes"/>
      <point x="444.6372425933393" y="133"/>
      <point x="292.5884572681199" y="-9"/>
      <point x="111.85640646055103" y="-8" type="curve" smooth="yes"/>
      <point x="83.85640646055103" y="-8"/>
      <point x="57.85640646055102" y="-8"/>
    </contour>
    <contour>
      <point x="87.14874831559186" y="64" type="curve" smooth="yes"/>
      <point x="92.80900235343624" y="59"/>
      <point x="116.54105316100512" y="58"/>
      <point x="128.54105316100512" y="58" type="curve" smooth="yes"/>
      <point x="286.0051547761429" y="56"/>
      <point x="397.44624494677555" y="192"/>
      <point x="430.40399561580364" y="315" type="curve" smooth="yes"/>
      <point x="463" y="436"/>
      <point x="411" y="550"/>
      <point x="304" y="550" type="curve" smooth="yes"/>
      <point x="275" y="550"/>
      <point x="231" y="546"/>
      <point x="213.49641149009963" y="543" type="curve" smooth="yes"/>
      <point x="199.69256391280626" y="540"/>
      <point x="202.42461472037513" y="539"/>
      <point x="200.8169195657884" y="533" type="curve" smooth="yes"/>
      <point x="198.94127521877053" y="526"/>
      <point x="185.38098417129856" y="453"/>
      <point x="138.88218034126538" y="272" type="curve" smooth="yes"/>
      <point x="106.12058209494391" y="146"/>
      <point x="82.48849427774746" y="69"/>
    </contour>
  </outline>
</glyph>
<glyph name="E" format="2">
  <advance width="500"/>
  <unicode hex="0045"/>
  <anchor x="360.7695154586736" y="600" name="top"/>
  <anchor x="200.80384757729337" y="3" name="cedilla"/>
  <anchor x="348.53589838486226" y="2" name="ogonek"/>
  <anchor x="200.0" y="0" name="bottom"/>
  <outline>
    <contour>
      <point x="187.76951545867362" y="600" type="curve" smooth="yes"/>
      <point x="213.37721061326036" y="606"/>
      <point x="309.5015662662425" y="599"/>
      <point x="391.2336170738114" y="598" type="curve" smooth="yes"/>
      <point x="516.9656678813802" y="597"/>
      <point x="523.7695154586736" y="600"/>
      <point x="544.9656678813802" y="597" type="curve" smooth="yes"/>
      <point x="567.8938711116557" y="593"/>
      <point x="568.14258241762" y="579"/>
      <point x="568.2669380706022" y="572" type="curve" smooth="yes"/>
      <point x="567.9079542219797" y="552"/>
      <point x="545.8887163355129" y="537"/>
      <point x="517.6207671430818" y="536" type="curve" smooth="yes"/>
      <point x="406.7451227960639" y="529"/>
      <point x="320.62076714308176" y="536"/>
      <point x="209.62076714308176" y="536" type="curve"/>
      <point x="190.027155098819" y="489"/>
      <point x="120.33037950793255" y="222.19461083491493"/>
      <point x="83.6846467004541" y="66" type="curve"/>
      <point x="174.7564434701786" y="70"/>
      <point x="300.0376469470891" y="74.74716732632061"/>
      <point x="405.22054508531636" y="68" type="curve" smooth="yes"/>
      <point x="432.9525958928852" y="67"/>
      <point x="447.2013071988495" y="53"/>
      <point x="435.5025773880714" y="28" type="curve" smooth="yes"/>
      <point x="431.6269330410536" y="21"/>
      <point x="423.60769515458674" y="6"/>
      <point x="398.80384757729337" y="3" type="curve" smooth="yes"/>
      <point x="376.7320508075689" y="-1"/>
      <point x="364.80384757729337" y="3"/>
      <point x="238.80384757729337" y="3" type="curve" smooth="yes"/>
      <point x="170.80384757729337" y="3"/>
      <point x="100.46410161513776" y="-2"/>
      <point x="32.46410161513776" y="-2" type="curve" smooth="yes"/>
      <point x="6.464101615137757" y="-2"/>
      <point x="8.842323350227048" y="33"/>
      <point x="19.02439266260971" y="71" type="curve" smooth="yes"/>
      <point x="30.278258744716865" y="113"/>
      <point x="62.09241587429597" y="228"/>
      <point x="93.44247138873733" y="345" type="curve" smooth="yes"/>
      <point x="141.4053768339083" y="524"/>
      <point x="140.20922441120166" y="527"/>
      <point x="151.51564937656647" y="558" type="curve" smooth="yes"/>
      <point x="158.02148164128639" y="574.2125979752697"/>
      <point x="168.429769496518" y="595"/>
    </contour>
    <contour>
      <point x="374.8347762341506" y="339" type="curve" smooth="yes"/>
      <point x="370.40399561580364" y="315"/>
      <point x="352.65270692176796" y="301"/>
      <point x="327.3847577293368" y="300" type="curve" smooth="yes"/>
      <point x="259.50911338231896" y="293"/>
      <point x="197.92065611419906" y="302"/>
      <point x="127.65270692176793" y="301" type="curve"/>
      <point x="143.53350604492866" y="364" type="line"/>
      <point x="150.1412011995154" y="370"/>
      <point x="181.26555685249753" y="363"/>
      <point x="229.26555685249753" y="363" type="curve" smooth="yes"/>
      <point x="307.2655568524975" y="363"/>
      <point x="338.9976076600664" y="362"/>
      <point x="350.7296584676353" y="361" type="curve" smooth="yes"/>
      <point x="373.6578616979108" y="357"/>
      <point x="375.4424713887373" y="345"/>
    </contour>
  </outline>
</glyph>
<glyph name="F" format="2">
  <advance width="500"/>
  <unicode hex="0046"/>
  <anchor x="360.7695154586736" y="600" name="top"/>
  <anchor x="31.85640646055102" y="-8" name="cedilla"/>
  <anchor x="31.85640646055102" y="-8" name="ogonek"/>
  <anchor x="200.0" y="0" name="bottom"/>
  <outline>
    <contour>
      <point x="185.96566788138026" y="597" type="curve" smooth="yes"/>
      <point x="208.64515980569146" y="607"/>
      <point x="311.2336170738114" y="598"/>
      <point x="394.5015662662425" y="599" type="curve" smooth="yes"/>
      <point x="521.0374646511048" y="601"/>
      <point x="523.0374646511048" y="601"/>
      <point x="543.9656678813802" y="597" type="curve" smooth="yes"/>
      <point x="567.1618203040869" y="594"/>
      <point x="567.14258241762" y="579"/>
      <point x="567.2669380706022" y="572" type="curve" smooth="yes"/>
      <point x="566.9079542219797" y="552"/>
      <point x="544.8887163355129" y="537"/>
      <point x="516.6207671430818" y="536" type="curve" smooth="yes"/>
      <point x="405.7451227960639" y="529"/>
      <point x="219.156665527944" y="538"/>
      <point x="210.08486875821953" y="534" type="curve"/>
      <point x="200.52973248689042" y="517"/>
      <point x="118.17800601878153" y="222.00455347298353"/>
      <point x="84.6846467004541" y="66" type="curve" smooth="yes"/>
      <point x="76.23462819564031" y="27"/>
      <point x="63.85640646055102" y="-8"/>
      <point x="31.85640646055102" y="-8" type="curve" smooth="yes"/>
      <point x="5.856406460551021" y="-8"/>
      <point x="8.234628195640312" y="27"/>
      <point x="18.416697508022978" y="65" type="curve" smooth="yes"/>
      <point x="29.67056359013013" y="107"/>
      <point x="63.09241587429597" y="228"/>
      <point x="94.71042058116845" y="346" type="curve" smooth="yes"/>
      <point x="142.4053768339083" y="524"/>
      <point x="140.94127521877053" y="526"/>
      <point x="152.24770018413534" y="557" type="curve" smooth="yes"/>
      <point x="158.64818282062322" y="573.5989233963297"/>
      <point x="167.82207434193126" y="589"/>
    </contour>
    <contour>
      <point x="419.18860530663017" y="303" type="curve" smooth="yes"/>
      <point x="415.1693674201633" y="288"/>
      <point x="393.6142311488343" y="271"/>
      <point x="364.3462819564031" y="270" type="curve" smooth="yes"/>
      <point x="297.7385868018164" y="264"/>
      <point x="186.54243437910975" y="267"/>
      <point x="116.27448518667863" y="266" type="curve"/>
      <point x="133.6911826947016" y="331" type="line"/>
      <point x="140.0309286568572" y="336"/>
      <point x="190.88733511740824" y="328"/>
      <point x="239.42323350227048" y="330" type="curve" smooth="yes"/>
      <point x="338.7629794644261" y="335"/>
      <point x="379.95913188713274" y="332"/>
      <point x="391.69118269470164" y="331" type="curve" smooth="yes"/>
      <point x="417.6193859249771" y="327"/>
      <point x="421.06424965364806" y="310"/>
    </contour>
  </outline>
</glyph>
<glyph name="G" format="2">
  <advance width="500"/>
  <unicode hex="0047"/>
  <anchor x="394.7695154586736" y="600" name="top"/>
  <anchor x="221.39230484541326" y="-6" name="cedilla"/>
  <anchor x="221.39230484541326" y="-6" name="ogonek"/>
  <anchor x="223.0" y="0" name="bottom"/>
  <outline>
    <contour>
      <point x="508.18483174859193" y="456" type="curve" smooth="yes"/>
      <point x="486.84508578643636" y="451"/>
      <point x="475.79252690317867" y="462"/>
      <point x="470.4912567139568" y="487" type="curve" smooth="yes"/>
      <point x="453.94127521877056" y="526"/>
      <point x="448.56820825982413" y="547"/>
      <point x="386.56820825982413" y="547" type="curve" smooth="yes"/>
      <point x="288.56820825982413" y="547"/>
      <point x="180.20406963505877" y="471"/>
      <point x="141.08348754011487" y="325" type="curve" smooth="yes"/>
      <point x="87.22569986145922" y="124"/>
      <point x="125.73720558371176" y="55"/>
      <point x="219.73720558371176" y="55" type="curve" smooth="yes"/>
      <point x="340.7372055837117" y="55"/>
      <point x="370.7231224733878" y="96"/>
      <point x="416.54243437910975" y="267" type="curve"/>
      <point x="366.3462819564031" y="270"/>
      <point x="307.8103835715409" y="268"/>
      <point x="292.8103835715409" y="268" type="curve" smooth="yes"/>
      <point x="276.6142311488343" y="271"/>
      <point x="267.2937230731455" y="281"/>
      <point x="273.1168085369057" y="299" type="curve" smooth="yes"/>
      <point x="276.40399561580364" y="315"/>
      <point x="294.351436732546" y="326"/>
      <point x="319.88733511740827" y="328" type="curve" smooth="yes"/>
      <point x="346.4232335022705" y="330"/>
      <point x="399.0834875401149" y="325"/>
      <point x="461.351436732546" y="326" type="curve" smooth="yes"/>
      <point x="489.351436732546" y="326"/>
      <point x="491.6719448082348" y="316"/>
      <point x="480.41807872612765" y="274" type="curve" smooth="yes"/>
      <point x="433.79491924311225" y="100"/>
      <point x="372.39230484541326" y="-6"/>
      <point x="221.39230484541326" y="-6" type="curve" smooth="yes"/>
      <point x="67.39230484541326" y="-6"/>
      <point x="12.560291047471956" y="73"/>
      <point x="77.67194480823477" y="316" type="curve" smooth="yes"/>
      <point x="128.04639298528585" y="504"/>
      <point x="285.9131089981226" y="608"/>
      <point x="398.9131089981226" y="608" type="curve" smooth="yes"/>
      <point x="528.9131089981227" y="608"/>
      <point x="532.1374276414772" y="523"/>
      <point x="534.8502405625792" y="507" type="curve" smooth="yes"/>
      <point x="536.88356155937" y="481"/>
      <point x="525.7925269031787" y="462"/>
    </contour>
  </outline>
</glyph>
<glyph name="H" format="2">
  <advance width="500"/>
  <unicode hex="0048"/>
  <anchor x="360.7695154586736" y="600" name="top"/>
  <anchor x="23.12435565298214" y="-7" name="cedilla"/>
  <anchor x="373.12435565298216" y="-7" name="ogonek"/>
  <anchor x="200.0" y="0" name="bottom"/>
  <outline>
    <contour>
      <point x="125.00653599424751" y="265" type="curve"/>
      <point x="140.88733511740824" y="328" type="line"/>
      <point x="235.6193859249771" y="327"/>
      <point x="355.495030271995" y="334"/>
      <point x="439.88733511740827" y="328" type="curve"/>
      <point x="417.27448518667865" y="266" type="line"/>
      <point x="336.1501295336965" y="273"/>
      <point x="221.0065359942475" y="265"/>
    </contour>
    <contour>
      <point x="187.10926142082923" y="605" type="curve" smooth="yes"/>
      <point x="214.52080415270933" y="614"/>
      <point x="222.41053161005115" y="580"/>
      <point x="215.51564937656647" y="558" type="curve" smooth="yes"/>
      <point x="210.96051310523737" y="541"/>
      <point x="170.42838827841337" y="386"/>
      <point x="140.95397711098985" y="276" type="curve" smooth="yes"/>
      <point x="126.48472071970923" y="222"/>
      <point x="86.97183377935207" y="82"/>
      <point x="85.36413862476533" y="76" type="curve" smooth="yes"/>
      <point x="73.77052658050256" y="29"/>
      <point x="57.5166604983954" y="-13"/>
      <point x="23.12435565298214" y="-7" type="curve" smooth="yes"/>
      <point x="2.196152422706632" y="-3"/>
      <point x="1.7705265805025618" y="29"/>
      <point x="16.75644347017859" y="70" type="curve" smooth="yes"/>
      <point x="30.74236035985462" y="111"/>
      <point x="60.3603650667271" y="229"/>
      <point x="91.71042058116845" y="346" type="curve" smooth="yes"/>
      <point x="139.67332602633942" y="525"/>
      <point x="139.54897037335726" y="532"/>
      <point x="150.85539533872208" y="563" type="curve" smooth="yes"/>
      <point x="163.69771868894912" y="596"/>
      <point x="179.30541384353586" y="602"/>
    </contour>
    <contour>
      <point x="537.1092614208292" y="605" type="curve" smooth="yes"/>
      <point x="543.3054138435359" y="602"/>
      <point x="555.6977186889492" y="596"/>
      <point x="550.855395338722" y="563" type="curve" smooth="yes"/>
      <point x="545.5489703733573" y="532"/>
      <point x="541.6733260263394" y="525"/>
      <point x="493.7104205811685" y="346" type="curve" smooth="yes"/>
      <point x="462.3603650667271" y="229"/>
      <point x="428.7423603598546" y="111"/>
      <point x="420.75644347017857" y="70" type="curve" smooth="yes"/>
      <point x="413.7705265805026" y="29"/>
      <point x="396.19615242270663" y="-3"/>
      <point x="373.12435565298216" y="-7" type="curve" smooth="yes"/>
      <point x="335.5166604983954" y="-13"/>
      <point x="341.7705265805026" y="29"/>
      <point x="355.3641386247653" y="76" type="curve" smooth="yes"/>
      <point x="356.97183377935204" y="82"/>
      <point x="392.48472071970923" y="222"/>
      <point x="406.95397711098985" y="276" type="curve" smooth="yes"/>
      <point x="436.42838827841337" y="386"/>
      <point x="478.9605131052374" y="541"/>
      <point x="483.51564937656644" y="558" type="curve" smooth="yes"/>
      <point x="488.4105316100512" y="580"/>
      <point x="514.5208041527094" y="614"/>
    </contour>
  </outline>
</glyph>
<glyph name="I" format="2">
  <advance width="500"/>
  <unicode hex="0049"/>
  <anchor x="360.7695154586736" y="600" name="top"/>
  <anchor x="200.0" y="0" name="cedilla"/>
  <anchor x="200.0" y="0" name="ogonek"/>
  <anchor x="200.0" y="0" name="bottom"/>
  <outline>
    <contour>
      <point x="377.6400050295486" y="551" type="line"/>
      <point x="350.91688255616083" y="455"/>
      <point x="359.41945994423224" y="483"/>
      <point x="313.60014803851027" y="312" type="curve" smooth="yes"/>
      <point x="292.1642126440205" y="232"/>
      <point x="271.72827724953066" y="152"/>
      <point x="244.12951042912502" y="49" type="curve"/>
      <point x="180.39745962155615" y="50" type="line"/>
      <point x="188.1679862020587" y="79"/>
      <point x="234.5231964926429" y="252"/>
      <point x="245.9732149974567" y="291" type="curve" smooth="yes"/>
      <point x="239.81038357154088" y="268"/>
      <point x="306.52973248689045" y="517"/>
      <point x="315.6400050295486" y="551" type="curve"/>
    </contour>
    <contour>
      <point x="178.99898887817105" y="571" type="curve" smooth="yes"/>
      <point x="182.48232837977565" y="584"/>
      <point x="196.5015662662425" y="599"/>
      <point x="226.76951545867362" y="600" type="curve" smooth="yes"/>
      <point x="279.03746465110476" y="601"/>
      <point x="322.7695154586736" y="600"/>
      <point x="345.7695154586736" y="600" type="curve" smooth="yes"/>
      <point x="399.5015662662425" y="599"/>
      <point x="442.30541384353586" y="602"/>
      <point x="495.7695154586736" y="600" type="curve" smooth="yes"/>
      <point x="519.5015662662424" y="599"/>
      <point x="531.5541251495001" y="588"/>
      <point x="526.4630904933088" y="569" type="curve" smooth="yes"/>
      <point x="522.1759034144109" y="553"/>
      <point x="500.62076714308176" y="536"/>
      <point x="468.62076714308176" y="536" type="curve" smooth="yes"/>
      <point x="420.62076714308176" y="536"/>
      <point x="369.156665527944" y="538"/>
      <point x="331.62076714308176" y="536" type="curve" smooth="yes"/>
      <point x="291.0848687582195" y="534"/>
      <point x="227.35281795065063" y="535"/>
      <point x="210.156665527944" y="538" type="curve" smooth="yes"/>
      <point x="177.69256391280626" y="540"/>
      <point x="174.17590341441084" y="553"/>
    </contour>
    <contour>
      <point x="33.50257738807144" y="28" type="curve" smooth="yes"/>
      <point x="38.86156123669389" y="48"/>
      <point x="60.07695154586736" y="60"/>
      <point x="88.88079912316073" y="63" type="curve" smooth="yes"/>
      <point x="111.41669750802298" y="65"/>
      <point x="164.88079912316073" y="63"/>
      <point x="205.416697508023" y="65" type="curve" smooth="yes"/>
      <point x="242.95259589288523" y="67"/>
      <point x="294.416697508023" y="65"/>
      <point x="342.14874831559183" y="64" type="curve" smooth="yes"/>
      <point x="373.8807991231607" y="63"/>
      <point x="386.3256628518316" y="46"/>
      <point x="382.3064249653648" y="31" type="curve" smooth="yes"/>
      <point x="377.2153903091735" y="12"/>
      <point x="362.2679491924311" y="1"/>
      <point x="335.0" y="0" type="curve" smooth="yes"/>
      <point x="280.46410161513774" y="-2"/>
      <point x="239.26794919243113" y="1"/>
      <point x="185.0" y="0" type="curve" smooth="yes"/>
      <point x="162.0" y="0"/>
      <point x="117.46410161513776" y="-2"/>
      <point x="66.0" y="0" type="curve" smooth="yes"/>
      <point x="34.267949192431125" y="1"/>
      <point x="28.411542731880104" y="9"/>
    </contour>
  </outline>
</glyph>
<glyph name="J" format="2">
  <advance width="500"/>
  <unicode hex="004A"/>
  <anchor x="427.7695154586736" y="600" name="top"/>
  <anchor x="190.05255888325766" y="-11" name="cedilla"/>
  <anchor x="190.05255888325766" y="-11" name="ogonek"/>
  <anchor x="195.0" y="0" name="bottom"/>
  <outline>
    <contour>
      <point x="298.5348872630333" y="573" type="curve" smooth="yes"/>
      <point x="303.0182267646379" y="586"/>
      <point x="316.7695154586736" y="600"/>
      <point x="346.7695154586736" y="600" type="curve" smooth="yes"/>
      <point x="355.7695154586736" y="600"/>
      <point x="399.5015662662425" y="599"/>
      <point x="411.5015662662425" y="599" type="curve" smooth="yes"/>
      <point x="457.2336170738114" y="598"/>
      <point x="487.57336303596696" y="603"/>
      <point x="520.7695154586736" y="600" type="curve" smooth="yes"/>
      <point x="544.2336170738114" y="598"/>
      <point x="556.5541251495001" y="588"/>
      <point x="551.1951413008777" y="568" type="curve" smooth="yes"/>
      <point x="523.0797139820767" y="478"/>
      <point x="507.754051130245" y="432"/>
      <point x="466.0590948775052" y="254" type="curve" smooth="yes"/>
      <point x="433.8859538993036" y="119"/>
      <point x="314.05255888325763" y="-11"/>
      <point x="190.05255888325766" y="-11" type="curve" smooth="yes"/>
      <point x="91.05255888325766" y="-11"/>
      <point x="40.430780618346944" y="24"/>
      <point x="25.91927489609441" y="93" type="curve" smooth="yes"/>
      <point x="18.833395016045948" y="130"/>
      <point x="24.532124826824017" y="155"/>
      <point x="51.94366755870412" y="164" type="curve" smooth="yes"/>
      <point x="77.35521029058422" y="173"/>
      <point x="86.46032805709953" y="151"/>
      <point x="95.35005551444135" y="117" type="curve" smooth="yes"/>
      <point x="104" y="83"/>
      <point x="129" y="48"/>
      <point x="185" y="48" type="curve" smooth="yes"/>
      <point x="263" y="48"/>
      <point x="353" y="130"/>
      <point x="380.17829575434445" y="191" type="curve" smooth="yes"/>
      <point x="399.96806022131386" y="235"/>
      <point x="419.13604642337253" y="314"/>
      <point x="427.78221735089295" y="350" type="curve" smooth="yes"/>
      <point x="441.32327051189804" y="408"/>
      <point x="447.4861019378139" y="431"/>
      <point x="478.62076714308176" y="536" type="curve"/>
      <point x="465.35281795065066" y="535"/>
      <point x="380.35281795065066" y="535"/>
      <point x="329.156665527944" y="538" type="curve" smooth="yes"/>
      <point x="296.69256391280624" y="540"/>
      <point x="293.443852606842" y="554"/>
    </contour>
  </outline>
</glyph>
<glyph name="K" format="2">
  <advance width="500"/>
  <unicode hex="004B"/>
  <anchor x="360.7695154586736" y="600" name="top"/>
  <anchor x="30.12435565298214" y="-7" name="cedilla"/>
  <anchor x="390.46410161513774" y="-2" name="ogonek"/>
  <anchor x="183.0" y="0" name="bottom"/>
  <outline>
    <contour>
      <point x="202.64515980569146" y="607" type="curve" smooth="yes"/>
      <point x="227.9849057678471" y="612"/>
      <point x="231.48232837977565" y="584"/>
      <point x="225.1233445311532" y="564" type="curve" smooth="yes"/>
      <point x="174.4476261648802" y="401"/>
      <point x="134.1116537607628" y="243"/>
      <point x="84.95259589288523" y="67" type="curve" smooth="yes"/>
      <point x="72.9666790032092" y="26"/>
      <point x="60.588457268119896" y="-9"/>
      <point x="30.12435565298214" y="-7" type="curve" smooth="yes"/>
      <point x="4.660254037844389" y="-5"/>
      <point x="9.03847577293368" y="30"/>
      <point x="22.220545085316342" y="68" type="curve" smooth="yes"/>
      <point x="42.10134420847707" y="131"/>
      <point x="70.7719077986072" y="238"/>
      <point x="99.44247138873733" y="345" type="curve" smooth="yes"/>
      <point x="122.21815274538275" y="430"/>
      <point x="145.26178329445932" y="516"/>
      <point x="164.65924291601544" y="566" type="curve" smooth="yes"/>
      <point x="176.69771868894912" y="596"/>
      <point x="188.8413122283981" y="604"/>
    </contour>
    <contour>
      <point x="546.8938711116557" y="593" type="curve" smooth="yes"/>
      <point x="560.14258241762" y="579"/>
      <point x="552.9797509917042" y="556"/>
      <point x="528.8887163355129" y="537" type="curve" smooth="yes"/>
      <point x="392.87840678322715" y="425"/>
      <point x="356.1796769724491" y="400"/>
      <point x="300.19376008277305" y="359" type="curve" smooth="yes"/>
      <point x="271.8347762341506" y="339"/>
      <point x="244.01169077039037" y="321"/>
      <point x="109.2885682970026" y="225" type="curve"/>
      <point x="133.13604642337253" y="314" type="line"/>
      <point x="183.24631896603069" y="348"/>
      <point x="220.33735362222203" y="367"/>
      <point x="327.041238209143" y="448" type="curve" smooth="yes"/>
      <point x="426.1374276414772" y="523"/>
      <point x="469.587446146291" y="562"/>
      <point x="507.0900235343624" y="590" type="curve" smooth="yes"/>
      <point x="529.3772106132603" y="606"/>
      <point x="543.9656678813802" y="597"/>
    </contour>
    <contour>
      <point x="425.8230854637602" y="18" type="curve" smooth="yes"/>
      <point x="420.4115427318801" y="9"/>
      <point x="408.46410161513774" y="-2"/>
      <point x="390.46410161513774" y="-2" type="curve" smooth="yes"/>
      <point x="365.46410161513774" y="-2"/>
      <point x="352.87564434701784" y="7"/>
      <point x="333.3782217350893" y="35" type="curve" smooth="yes"/>
      <point x="321.39745962155615" y="50"/>
      <point x="306.31157974150767" y="87"/>
      <point x="283.9244296722373" y="149" type="curve" smooth="yes"/>
      <point x="275.35521029058424" y="173"/>
      <point x="269.7141941392067" y="193"/>
      <point x="223.54758915525264" y="323" type="curve"/>
      <point x="282.0694044297909" y="366" type="line"/>
      <point x="311.36551984286996" y="285"/>
      <point x="342.0539401013623" y="198"/>
      <point x="372.08210632201025" y="116" type="curve" smooth="yes"/>
      <point x="384.7756813566454" y="85"/>
      <point x="393.416697508023" y="65"/>
      <point x="416.80900235343626" y="59" type="curve" smooth="yes"/>
      <point x="434.4692563912806" y="54"/>
      <point x="433.57437415779594" y="32"/>
    </contour>
  </outline>
</glyph>
<glyph name="L" format="2">
  <advance width="500"/>
  <unicode hex="004C"/>
  <anchor x="310.7695154586736" y="600" name="top"/>
  <anchor x="200.80384757729337" y="3" name="cedilla"/>
  <anchor x="264.80384757729337" y="3" name="ogonek"/>
  <anchor x="200.0" y="0" name="bottom"/>
  <outline>
    <contour>
      <point x="185.5015662662425" y="599" type="curve" smooth="yes"/>
      <point x="211.37721061326036" y="606"/>
      <point x="218.87463322518892" y="578"/>
      <point x="214.51564937656647" y="558" type="curve" smooth="yes"/>
      <point x="204.85024056257922" y="507"/>
      <point x="186.70149224698736" y="443"/>
      <point x="167.480947161671" y="375" type="curve" smooth="yes"/>
      <point x="137.73858680181638" y="264"/>
      <point x="109.42700706030871" y="177"/>
      <point x="82.14874831559186" y="64" type="curve"/>
      <point x="119.48849427774746" y="69"/>
      <point x="164.48849427774746" y="69"/>
      <point x="217.48849427774746" y="69" type="curve" smooth="yes"/>
      <point x="272.48849427774746" y="69"/>
      <point x="316.48849427774746" y="69"/>
      <point x="388.416697508023" y="65" type="curve" smooth="yes"/>
      <point x="416.14874831559183" y="64"/>
      <point x="430.39745962155615" y="50"/>
      <point x="418.9666790032092" y="26" type="curve" smooth="yes"/>
      <point x="415.0910346561913" y="19"/>
      <point x="407.0717967697245" y="4"/>
      <point x="382.2679491924311" y="1" type="curve" smooth="yes"/>
      <point x="370.7320508075689" y="-1"/>
      <point x="362.7320508075689" y="-1"/>
      <point x="341.0" y="0" type="curve" smooth="yes"/>
      <point x="329.0" y="0"/>
      <point x="323.80384757729337" y="3"/>
      <point x="200.80384757729337" y="3" type="curve" smooth="yes"/>
      <point x="118.80384757729337" y="3"/>
      <point x="60.92820323027551" y="-4"/>
      <point x="29.928203230275507" y="-4" type="curve" smooth="yes"/>
      <point x="3.928203230275507" y="-4"/>
      <point x="6.306424965364805" y="31"/>
      <point x="16.488494277747467" y="69" type="curve" smooth="yes"/>
      <point x="27.74236035985462" y="111"/>
      <point x="61.948822334846994" y="220"/>
      <point x="93.29887784928835" y="337" type="curve" smooth="yes"/>
      <point x="111.51942293460469" y="405"/>
      <point x="130.47201882748993" y="472"/>
      <point x="150.24770018413534" y="557" type="curve" smooth="yes"/>
      <point x="157.28617595706902" y="587"/>
      <point x="172.69771868894912" y="596"/>
    </contour>
  </outline>
</glyph>
<glyph name="M" format="2">
  <advance width="500"/>
  <unicode hex="004D"/>
  <anchor x="360.7695154586736" y="600" name="top"/>
  <anchor x="26.392304845413264" y="-6" name="cedilla"/>
  <anchor x="372.39230484541326" y="-6" name="ogonek"/>
  <anchor x="200.0" y="0" name="bottom"/>
  <outline>
    <contour>
      <point x="531.1092614208292" y="605" type="curve" smooth="yes"/>
      <point x="553.8413122283981" y="604"/>
      <point x="553.4823283797757" y="584"/>
      <point x="550.855395338722" y="563" type="curve" smooth="yes"/>
      <point x="548.7643606825308" y="544"/>
      <point x="544.5489703733573" y="532"/>
      <point x="531.6991699093669" y="485.98394775390625" type="curve" smooth="yes"/>
      <point x="523.4527809410231" y="457"/>
      <point x="511.8695224831374" y="413.77069091796875"/>
      <point x="493.7104205811685" y="346" type="curve" smooth="yes"/>
      <point x="484.23188961928616" y="310.6256408691406"/>
      <point x="474.54603725141845" y="275.1598815917969"/>
      <point x="465.42397953449074" y="241.75848388671875" type="curve" smooth="yes"/>
      <point x="445.819311905722" y="171"/>
      <point x="429.7423603598546" y="111"/>
      <point x="420.75644347017857" y="70" type="curve" smooth="yes"/>
      <point x="412.7705265805026" y="29"/>
      <point x="395.19615242270663" y="-3"/>
      <point x="372.39230484541326" y="-6" type="curve" smooth="yes"/>
      <point x="335.05255888325763" y="-11"/>
      <point x="343.3064249653648" y="31"/>
      <point x="357.90003700962757" y="78" type="curve" smooth="yes"/>
      <point x="360.5795289339388" y="88"/>
      <point x="384.1590578678776" y="176"/>
      <point x="402.9872981077807" y="250" type="curve" smooth="yes"/>
      <point x="416.18860530663017" y="303"/>
      <point x="448.4861019378139" y="431"/>
      <point x="466.2040696350588" y="471" type="curve"/>
      <point x="452.84508578643636" y="451"/>
      <point x="425.8066100135027" y="421"/>
      <point x="408.1796769724491" y="400" type="curve" smooth="yes"/>
      <point x="375.9976076600664" y="362"/>
      <point x="361.9065730038751" y="343"/>
      <point x="345.0834875401149" y="325" type="curve" smooth="yes"/>
      <point x="313.9732149974567" y="291"/>
      <point x="298.1501295336965" y="273"/>
      <point x="273.1501295336965" y="273" type="curve" smooth="yes"/>
      <point x="248.1501295336965" y="273"/>
      <point x="240.7052658050256" y="290"/>
      <point x="228.81553834768374" y="324" type="curve" smooth="yes"/>
      <point x="220.97836977359958" y="347"/>
      <point x="215.40915039194653" y="371"/>
      <point x="207.83993101029347" y="395" type="curve" smooth="yes"/>
      <point x="193.8258478999695" y="436"/>
      <point x="189.62969547726286" y="439"/>
      <point x="186.20406963505877" y="471" type="curve"/>
      <point x="180.61045759079602" y="424"/>
      <point x="154.95913188713274" y="332"/>
      <point x="138.95397711098985" y="276" type="curve" smooth="yes"/>
      <point x="123.48472071970923" y="222"/>
      <point x="97.36929340090819" y="132"/>
      <point x="84.63208781719645" y="77" type="curve" smooth="yes"/>
      <point x="73.03847577293368" y="30"/>
      <point x="59.78460969082653" y="-12"/>
      <point x="26.392304845413264" y="-6" type="curve" smooth="yes"/>
      <point x="3.196152422706632" y="-3"/>
      <point x="2.770526580502562" y="29"/>
      <point x="16.75644347017859" y="70" type="curve" smooth="yes"/>
      <point x="26.259020858250025" y="98"/>
      <point x="43.94366755870412" y="164"/>
      <point x="64.13399769244974" y="241.75848388671875" type="curve" smooth="yes"/>
      <point x="72.91169124311766" y="275.1598815917969"/>
      <point x="82.33219884607915" y="311"/>
      <point x="91.71042058116845" y="346" type="curve" smooth="yes"/>
      <point x="109.9309656664848" y="414"/>
      <point x="121.13563507487909" y="456.8863220214844"/>
      <point x="128.73885093808977" y="485.9839782714844" type="curve" smooth="yes"/>
      <point x="141.21768518464484" y="533.74072265625"/>
      <point x="143.76436068253074" y="544"/>
      <point x="150.85539533872208" y="563" type="curve" smooth="yes"/>
      <point x="159.28617595706902" y="587"/>
      <point x="170.64515980569146" y="607"/>
      <point x="195.64515980569146" y="607" type="curve" smooth="yes"/>
      <point x="215.64515980569146" y="607"/>
      <point x="222.23361707381136" y="598"/>
      <point x="230.80283645546442" y="574" type="curve" smooth="yes"/>
      <point x="238.17590341441084" y="553"/>
      <point x="238.62076714308176" y="536"/>
      <point x="258.73996801992104" y="473" type="curve" smooth="yes"/>
      <point x="271.28994951510725" y="434"/>
      <point x="280.8924898935511" y="384"/>
      <point x="292.1745221963062" y="344" type="curve"/>
      <point x="312.4091503919465" y="371"/>
      <point x="354.0745592059338" y="422"/>
      <point x="399.00791721235214" y="474" type="curve" smooth="yes"/>
      <point x="452.88871633551287" y="537"/>
      <point x="470.587446146291" y="562"/>
      <point x="489.21437918734455" y="583" type="curve" smooth="yes"/>
      <point x="505.03746465110476" y="601"/>
      <point x="515.1092614208292" y="605"/>
    </contour>
  </outline>
</glyph>
<glyph name="O" format="2">
  <advance width="500"/>
  <unicode hex="004F"/>
  <anchor x="360.7695154586736" y="600" name="top"/>
  <anchor x="196.5166604983954" y="-13" name="cedilla"/>
  <anchor x="196.5166604983954" y="-13" name="ogonek"/>
  <anchor x="200.0" y="0" name="bottom"/>
  <anchor x="485" y="535" name="horn"/>
  <outline>
    <contour>
      <point x="364.2528549602782" y="613" type="curve" smooth="yes"/>
      <point x="454.2528549602782" y="613"/>
      <point x="489.6784808024823" y="581"/>
      <point x="503.4579357171659" y="513" type="curve" smooth="yes"/>
      <point x="512.8643236729032" y="466"/>
      <point x="511.1796769724491" y="400"/>
      <point x="484.65270692176796" y="301" type="curve" smooth="yes"/>
      <point x="459.4654828332424" y="207"/>
      <point x="433.9769885554949" y="138"/>
      <point x="398.11542731880104" y="90" type="curve" smooth="yes"/>
      <point x="341.75128869403574" y="14"/>
      <point x="288.5166604983954" y="-13"/>
      <point x="196.5166604983954" y="-13" type="curve" smooth="yes"/>
      <point x="119.5166604983954" y="-13"/>
      <point x="91.4115427318801" y="9"/>
      <point x="64.54105316100512" y="58" type="curve" smooth="yes"/>
      <point x="37.67056359013013" y="107"/>
      <point x="46.910346561913315" y="190"/>
      <point x="76.65270692176793" y="301" type="curve" smooth="yes"/>
      <point x="108.00276243620928" y="418"/>
      <point x="154.83100267611238" y="492"/>
      <point x="203.300259067393" y="546" type="curve" smooth="yes"/>
      <point x="243.35797272679352" y="591"/>
      <point x="291.2528549602782" y="613"/>
    </contour>
    <contour>
      <point x="349.24770018413534" y="557" type="curve" smooth="yes"/>
      <point x="293.24770018413534" y="557"/>
      <point x="260.62076714308176" y="536"/>
      <point x="231.3669010609746" y="494" type="curve" smooth="yes"/>
      <point x="202.11303497886746" y="452"/>
      <point x="168.3040326254312" y="393"/>
      <point x="143.65270692176793" y="301" type="curve" smooth="yes"/>
      <point x="118" y="205"/>
      <point x="108" y="137"/>
      <point x="119" y="102" type="curve" smooth="yes"/>
      <point x="129" y="75"/>
      <point x="143" y="51"/>
      <point x="213.66540881398726" y="51" type="curve" smooth="yes"/>
      <point x="281.66540881398726" y="51"/>
      <point x="310.29234185504083" y="72"/>
      <point x="349.8333950160459" y="130" type="curve" smooth="yes"/>
      <point x="380.8911086754465" y="175"/>
      <point x="397.0206191045715" y="224"/>
      <point x="417.65270692176796" y="301" type="curve" smooth="yes"/>
      <point x="444" y="401"/>
      <point x="447" y="459"/>
      <point x="441" y="495" type="curve" smooth="yes"/>
      <point x="435" y="537"/>
      <point x="415" y="557"/>
    </contour>
  </outline>
</glyph>
<glyph name="P" format="2">
  <advance width="500"/>
  <unicode hex="0050"/>
  <anchor x="320.7695154586736" y="600" name="top"/>
  <anchor x="24.85640646055102" y="-8" name="cedilla"/>
  <anchor x="24.85640646055102" y="-8" name="ogonek"/>
  <anchor x="160.0" y="0" name="bottom"/>
  <outline>
    <contour>
      <point x="150.31949695385984" y="561" type="curve" smooth="yes"/>
      <point x="157.14258241762005" y="579"/>
      <point x="184.9131089981226" y="608"/>
      <point x="311.52080415270933" y="614" type="curve" smooth="yes"/>
      <point x="354.0567025375716" y="616"/>
      <point x="387.71695657541596" y="611"/>
      <point x="424.03746465110476" y="601" type="curve" smooth="yes"/>
      <point x="519.3387348403267" y="576"/>
      <point x="541.7258849095971" y="514"/>
      <point x="519.9502035529516" y="429" type="curve" smooth="yes"/>
      <point x="496.8347762341506" y="339"/>
      <point x="441.4898754958521" y="278"/>
      <point x="369.5231964926429" y="252" type="curve" smooth="yes"/>
      <point x="332.23600941374497" y="236"/>
      <point x="282.2167715272781" y="221"/>
      <point x="186.89626345158933" y="231" type="curve" smooth="yes"/>
      <point x="160.4321618364516" y="233"/>
      <point x="117.7719077986072" y="238"/>
      <point x="118.7719077986072" y="238" type="curve"/>
      <point x="135.65270692176793" y="301" type="line"/>
      <point x="142.3847577293368" y="300"/>
      <point x="145.1168085369057" y="299"/>
      <point x="152.1168085369057" y="299" type="curve" smooth="yes"/>
      <point x="282.09757065043885" y="284"/>
      <point x="351.65270692176796" y="301"/>
      <point x="390.1552843098394" y="329" type="curve" smooth="yes"/>
      <point x="432.92581089034195" y="358"/>
      <point x="448.37582939515573" y="397"/>
      <point x="456.4143051680894" y="427" type="curve" smooth="yes"/>
      <point x="475" y="502"/>
      <point x="447" y="531"/>
      <point x="396" y="546" type="curve" smooth="yes"/>
      <point x="373" y="553"/>
      <point x="337" y="557"/>
      <point x="290.443852606842" y="554" type="curve" smooth="yes"/>
      <point x="267.17590341441087" y="553"/>
      <point x="232.37205583711747" y="550"/>
      <point x="200.35281795065063" y="535" type="curve"/>
      <point x="180.43354305455622" y="442"/>
      <point x="108.98397595798272" y="136.7530805718888"/>
      <point x="72.52181527453828" y="43" type="curve" smooth="yes"/>
      <point x="60.287187078897965" y="16"/>
      <point x="48.85640646055102" y="-8"/>
      <point x="24.85640646055102" y="-8" type="curve" smooth="yes"/>
      <point x="-0.41154273188010393" y="-9"/>
      <point x="-0.37306695894642417" y="21"/>
      <point x="15.005154776142874" y="56" type="curve" smooth="yes"/>
      <point x="34.742360359854615" y="111"/>
      <point x="91.67194480823477" y="316"/>
      <point x="121.89764466969399" y="440" type="curve" smooth="yes"/>
      <point x="131.66768033968356" y="479.1165407385739"/>
      <point x="139.8169195657884" y="533"/>
    </contour>
  </outline>
</glyph>
<glyph name="Q" format="2">
  <advance width="500"/>
  <unicode hex="0051"/>
  <anchor x="360.7695154586736" y="600" name="top"/>
  <anchor x="177.73205080756887" y="-1" name="cedilla"/>
  <anchor x="337.4974226119286" y="-28" name="ogonek"/>
  <anchor x="220.0" y="0" name="bottom"/>
  <outline>
    <contour>
      <point x="203.416697508023" y="65" type="curve" smooth="yes"/>
      <point x="318" y="65"/>
      <point x="387.7141941392067" y="193"/>
      <point x="416.65270692176796" y="301" type="curve" smooth="yes"/>
      <point x="441.3040326254312" y="393"/>
      <point x="491" y="553"/>
      <point x="347.17590341441087" y="553" type="curve" smooth="yes"/>
      <point x="234" y="553"/>
      <point x="175.39506728162254" y="412"/>
      <point x="147.5283512687858" y="308" type="curve" smooth="yes"/>
      <point x="121.26933041053576" y="210"/>
      <point x="101" y="65"/>
    </contour>
    <contour>
      <point x="390.8859538993036" y="119" type="curve" smooth="yes"/>
      <point x="344.80900235343626" y="59"/>
      <point x="288.7320508075689" y="-1"/>
      <point x="177.73205080756887" y="-1" type="curve" smooth="yes"/>
      <point x="57.732050807568875" y="-1"/>
      <point x="40.316734517650545" y="143"/>
      <point x="85.52835126878578" y="308" type="curve" smooth="yes"/>
      <point x="121.70149224698736" y="443"/>
      <point x="197.9849057678471" y="612"/>
      <point x="362.98490576784707" y="612" type="curve" smooth="yes"/>
      <point x="440.98490576784707" y="612"/>
      <point x="466.48232837977565" y="584"/>
      <point x="487.56820825982413" y="547" type="curve" smooth="yes"/>
      <point x="513.7066470231302" y="499"/>
      <point x="508.5386608210715" y="420"/>
      <point x="476.65270692176796" y="301" type="curve" smooth="yes"/>
      <point x="458.7001110288827" y="234"/>
      <point x="424.4795659435664" y="166"/>
    </contour>
    <contour>
      <point x="255.65270692176793" y="301" type="curve" smooth="yes"/>
      <point x="275.86809723094143" y="313"/>
      <point x="290.5283512687858" y="308"/>
      <point x="304.0257738807144" y="280" type="curve" smooth="yes"/>
      <point x="312.2026884169542" y="262"/>
      <point x="333.6423973694822" y="189"/>
      <point x="347.53212482682403" y="155" type="curve" smooth="yes"/>
      <point x="360.49364905389035" y="125"/>
      <point x="385.0051547761429" y="56"/>
      <point x="398.28718707889794" y="16" type="curve" smooth="yes"/>
      <point x="405.5166604983954" y="-13"/>
      <point x="394.3538290724796" y="-36"/>
      <point x="380.2102355330306" y="-44" type="curve" smooth="yes"/>
      <point x="361.7986928011505" y="-53"/>
      <point x="346.1384387633061" y="-48"/>
      <point x="337.4974226119286" y="-28" type="curve" smooth="yes"/>
      <point x="319.8230854637602" y="18"/>
      <point x="298.16798620205867" y="79"/>
      <point x="282.49364905389035" y="125" type="curve" smooth="yes"/>
      <point x="275.31673451765056" y="143"/>
      <point x="253.51804171650005" y="196"/>
      <point x="236.57575537590057" y="241" type="curve" smooth="yes"/>
      <point x="227.73858680181638" y="264"/>
      <point x="235.43731661259446" y="289"/>
    </contour>
  </outline>
</glyph>
<glyph name="R" format="2">
  <advance width="500"/>
  <unicode hex="0052"/>
  <anchor x="330.7695154586736" y="600" name="top"/>
  <anchor x="21.588457268119896" y="-9" name="cedilla"/>
  <anchor x="353.0" y="0" name="ogonek"/>
  <anchor x="190.0" y="0" name="bottom"/>
  <outline>
    <contour>
      <point x="161.3912937235843" y="565" type="curve" smooth="yes"/>
      <point x="176.30541384353586" y="602"/>
      <point x="213.64515980569146" y="607"/>
      <point x="322.6451598056915" y="607" type="curve" smooth="yes"/>
      <point x="503.6451598056915" y="607"/>
      <point x="524.8169195657883" y="533"/>
      <point x="500.1655938621251" y="441" type="curve" smooth="yes"/>
      <point x="478.7296584676353" y="361"/>
      <point x="427.60014803851027" y="312"/>
      <point x="361.7052658050256" y="290" type="curve" smooth="yes"/>
      <point x="317.68602791855875" y="275"/>
      <point x="254.32704406993628" y="255"/>
      <point x="200.32704406993628" y="255" type="curve" smooth="yes"/>
      <point x="175.32704406993628" y="255"/>
      <point x="132.32704406993628" y="255"/>
      <point x="127.32704406993629" y="255" type="curve"/>
      <point x="147.67194480823477" y="316" type="line"/>
      <point x="153.67194480823477" y="316"/>
      <point x="161.40399561580364" y="315"/>
      <point x="166.40399561580364" y="315" type="curve" smooth="yes"/>
      <point x="366.40399561580364" y="315"/>
      <point x="418.74889635410216" y="376"/>
      <point x="436.43354305455625" y="442" type="curve" smooth="yes"/>
      <point x="457" y="518"/>
      <point x="429" y="540"/>
      <point x="343" y="546" type="curve" smooth="yes"/>
      <point x="296" y="549"/>
      <point x="236" y="549"/>
      <point x="212.69256391280626" y="540" type="curve"/>
      <point x="205.06047609560983" y="463"/>
      <point x="104.46399915809124" y="124.57519833785663"/>
      <point x="70.25386608210715" y="42" type="curve" smooth="yes"/>
      <point x="58.01923788646684" y="15"/>
      <point x="45.588457268119896" y="-9"/>
      <point x="21.588457268119896" y="-9" type="curve" smooth="yes"/>
      <point x="-3.411542731880104" y="-9"/>
      <point x="-2.373066958946424" y="21"/>
      <point x="13.005154776142874" y="56" type="curve" smooth="yes"/>
      <point x="34.742360359854615" y="111"/>
      <point x="95.67194480823477" y="316"/>
      <point x="128.897644669694" y="440" type="curve" smooth="yes"/>
      <point x="139.34577539971718" y="478.99295472856824"/>
      <point x="151.96051310523737" y="541"/>
    </contour>
    <contour>
      <point x="301.36551984286996" y="285" type="line"/>
      <point x="358.68602791855875" y="275"/>
      <point x="378.7001110288827" y="234"/>
      <point x="382.73343202567355" y="208" type="curve" smooth="yes"/>
      <point x="388.80007401925513" y="156"/>
      <point x="380.9910716658189" y="97"/>
      <point x="407.0577136594005" y="45" type="curve" smooth="yes"/>
      <point x="419.3589838486225" y="20"/>
      <point x="395.12435565298216" y="-7"/>
      <point x="374.856406460551" y="-8" type="curve" smooth="yes"/>
      <point x="349.5884572681199" y="-9"/>
      <point x="340.5551362713291" y="17"/>
      <point x="333.11027254265815" y="34" type="curve" smooth="yes"/>
      <point x="314.16798620205867" y="79"/>
      <point x="339" y="185"/>
      <point x="302" y="225" type="curve" smooth="yes"/>
      <point x="281" y="248"/>
      <point x="233" y="252"/>
      <point x="159.39884083966078" y="259" type="curve"/>
    </contour>
  </outline>
</glyph>
<glyph name="S" format="2">
  <advance width="500"/>
  <unicode hex="0053"/>
  <anchor x="370.7695154586736" y="600" name="top"/>
  <anchor x="182.5884572681199" y="-9" name="cedilla"/>
  <anchor x="182.5884572681199" y="-9" name="ogonek"/>
  <anchor x="210.0" y="0" name="bottom"/>
  <outline>
    <contour>
      <point x="357.98490576784707" y="612" type="curve" smooth="yes"/>
      <point x="435.98490576784707" y="612"/>
      <point x="475.429769496518" y="595"/>
      <point x="506.443852606842" y="554" type="curve" smooth="yes"/>
      <point x="523.2810211809261" y="531"/>
      <point x="514.3861389474414" y="509"/>
      <point x="498.4386978306991" y="498" type="curve" smooth="yes"/>
      <point x="486" y="489"/>
      <point x="465" y="501"/>
      <point x="454" y="515" type="curve" smooth="yes"/>
      <point x="438" y="535"/>
      <point x="419.3720558371175" y="550"/>
      <point x="348.3720558371175" y="550" type="curve" smooth="yes"/>
      <point x="283.3720558371175" y="550"/>
      <point x="223.24254540799248" y="501"/>
      <point x="206.09379709240062" y="437" type="curve" smooth="yes"/>
      <point x="188.40915039194653" y="371"/>
      <point x="221.7629794644261" y="335"/>
      <point x="294.7629794644261" y="335" type="curve" smooth="yes"/>
      <point x="361.7629794644261" y="335"/>
      <point x="398.0834875401149" y="325"/>
      <point x="429.58091015204343" y="297" type="curve" smooth="yes"/>
      <point x="453.68602791855875" y="275"/>
      <point x="464.5757553759006" y="241"/>
      <point x="450.6423973694822" y="189" type="curve" smooth="yes"/>
      <point x="434.5654458236148" y="129"/>
      <point x="407.5077321642143" y="84"/>
      <point x="368.66540881398726" y="51" type="curve" smooth="yes"/>
      <point x="324.4833395016046" y="13"/>
      <point x="259.5884572681199" y="-9"/>
      <point x="182.5884572681199" y="-9" type="curve" smooth="yes"/>
      <point x="115.5884572681199" y="-9"/>
      <point x="62.4833395016046" y="13"/>
      <point x="33.325662851831645" y="46" type="curve" smooth="yes"/>
      <point x="16.416697508022978" y="65"/>
      <point x="16.187224088525532" y="94"/>
      <point x="43.742360359854615" y="111" type="curve" smooth="yes"/>
      <point x="71.56544582361482" y="129"/>
      <point x="83" y="102"/>
      <point x="96" y="91" type="curve" smooth="yes"/>
      <point x="131" y="61"/>
      <point x="171" y="57"/>
      <point x="202.273103968574" y="57" type="curve" smooth="yes"/>
      <point x="260.273103968574" y="57"/>
      <point x="302.8282402399031" y="74"/>
      <point x="330.9910716658189" y="97" type="curve" smooth="yes"/>
      <point x="356.8859538993036" y="119"/>
      <point x="375.1923788646684" y="150"/>
      <point x="383.2308546376021" y="180" type="curve" smooth="yes"/>
      <point x="392" y="212"/>
      <point x="393" y="236"/>
      <point x="384" y="248" type="curve" smooth="yes"/>
      <point x="373" y="262"/>
      <point x="342" y="270"/>
      <point x="286.3462819564031" y="270" type="curve" smooth="yes"/>
      <point x="164.34628195640312" y="270"/>
      <point x="113.49503027199498" y="334"/>
      <point x="141.62969547726286" y="439" type="curve" smooth="yes"/>
      <point x="170.83615745225524" y="548"/>
      <point x="270.98490576784707" y="612"/>
    </contour>
  </outline>
</glyph>
<glyph name="T" format="2">
  <advance width="500"/>
  <unicode hex="0054"/>
  <anchor x="360.7695154586736" y="600" name="top"/>
  <anchor x="197.85640646055103" y="-8" name="cedilla"/>
  <anchor x="197.85640646055103" y="-8" name="ogonek"/>
  <anchor x="200.0" y="0" name="bottom"/>
  <outline>
    <contour>
      <point x="377.97975099170424" y="556" type="line"/>
      <point x="372.4053768339083" y="524"/>
      <point x="369.6015292566149" y="521"/>
      <point x="321.9065730038751" y="343" type="curve" smooth="yes"/>
      <point x="287.0731779878291" y="213"/>
      <point x="254.5795289339388" y="88"/>
      <point x="250.29234185504083" y="72" type="curve" smooth="yes"/>
      <point x="235.55513627132908" y="17"/>
      <point x="228.85640646055103" y="-8"/>
      <point x="197.85640646055103" y="-8" type="curve" smooth="yes"/>
      <point x="167.85640646055103" y="-8"/>
      <point x="173.2346281956403" y="27"/>
      <point x="186.56029104747196" y="73" type="curve" smooth="yes"/>
      <point x="188.1679862020587" y="79"/>
      <point x="237.20268841695415" y="262"/>
      <point x="248.65270692176793" y="301" type="curve" smooth="yes"/>
      <point x="242.48987549585212" y="278"/>
      <point x="306.52973248689045" y="517"/>
      <point x="315.6400050295486" y="551" type="curve"/>
    </contour>
    <contour>
      <point x="124.99898887817105" y="571" type="curve" smooth="yes"/>
      <point x="128.48232837977565" y="584"/>
      <point x="145.76951545867362" y="600"/>
      <point x="172.76951545867362" y="600" type="curve" smooth="yes"/>
      <point x="246.76951545867362" y="600"/>
      <point x="252.96566788138026" y="597"/>
      <point x="286.5015662662425" y="599" type="curve" smooth="yes"/>
      <point x="338.7695154586736" y="600"/>
      <point x="419.30541384353586" y="602"/>
      <point x="456.7695154586736" y="600" type="curve" smooth="yes"/>
      <point x="501.9656678813802" y="597"/>
      <point x="529.7695154586736" y="600"/>
      <point x="545.7695154586736" y="600" type="curve" smooth="yes"/>
      <point x="575.7695154586736" y="600"/>
      <point x="586.0900235343624" y="590"/>
      <point x="580.7310396857399" y="570" type="curve" smooth="yes"/>
      <point x="575.6400050295485" y="551"/>
      <point x="556.6207671430818" y="536"/>
      <point x="529.3528179506507" y="535" type="curve" smooth="yes"/>
      <point x="537.6207671430818" y="536"/>
      <point x="483.28102118092613" y="531"/>
      <point x="402.62076714308176" y="536" type="curve" smooth="yes"/>
      <point x="400.62076714308176" y="536"/>
      <point x="363.156665527944" y="538"/>
      <point x="326.62076714308176" y="536" type="curve" smooth="yes"/>
      <point x="238.54897037335726" y="532"/>
      <point x="180.35281795065063" y="535"/>
      <point x="156.156665527944" y="538" type="curve" smooth="yes"/>
      <point x="126.69256391280626" y="540"/>
      <point x="121.17590341441084" y="553"/>
    </contour>
  </outline>
</glyph>
<glyph name="U" format="2">
  <advance width="500"/>
  <unicode hex="0055"/>
  <anchor x="360.7695154586736" y="600" name="top"/>
  <anchor x="195.71281292110203" y="-16" name="cedilla"/>
  <anchor x="195.71281292110203" y="-16" name="ogonek"/>
  <anchor x="200.0" y="0" name="bottom"/>
  <anchor x="511" y="535" name="horn"/>
  <outline>
    <contour>
      <point x="210.49641149009963" y="543" type="curve" smooth="yes"/>
      <point x="191.6156123669389" y="480"/>
      <point x="170.76813424056897" y="391"/>
      <point x="146.1168085369057" y="299" type="curve" smooth="yes"/>
      <point x="121" y="206"/>
      <point x="107" y="138"/>
      <point x="122" y="104" type="curve" smooth="yes"/>
      <point x="136" y="70"/>
      <point x="150.8615612366939" y="48"/>
      <point x="212.8615612366939" y="48" type="curve" smooth="yes"/>
      <point x="280.8615612366939" y="48"/>
      <point x="309.8282402399031" y="74"/>
      <point x="350.02954743875256" y="127" type="curve" smooth="yes"/>
      <point x="382.819311905722" y="171"/>
      <point x="397.0206191045715" y="224"/>
      <point x="416.65270692176796" y="301" type="curve" smooth="yes"/>
      <point x="441.37582939515573" y="397"/>
      <point x="471.70664702313024" y="499"/>
      <point x="483.7118017992731" y="555" type="curve" smooth="yes"/>
      <point x="489.4105316100512" y="580"/>
      <point x="498.8413122283981" y="604"/>
      <point x="526.6451598056915" y="607" type="curve" smooth="yes"/>
      <point x="550.1810581905537" y="609"/>
      <point x="550.7502775722068" y="585"/>
      <point x="547.0515477614288" y="560" type="curve" smooth="yes"/>
      <point x="538.9220373323037" y="511"/>
      <point x="507.1796769724491" y="400"/>
      <point x="480.65270692176796" y="301" type="curve" smooth="yes"/>
      <point x="455.4654828332424" y="207"/>
      <point x="435.58468371008166" y="144"/>
      <point x="399.7231224733878" y="96" type="curve" smooth="yes"/>
      <point x="342.6269330410536" y="21"/>
      <point x="287.71281292110206" y="-16"/>
      <point x="195.71281292110203" y="-16" type="curve" smooth="yes"/>
      <point x="118.71281292110203" y="-16"/>
      <point x="92.75128869403571" y="14"/>
      <point x="65.88079912316073" y="63" type="curve" smooth="yes"/>
      <point x="39.01030955228574" y="112"/>
      <point x="48.910346561913315" y="190"/>
      <point x="80.65270692176793" y="301" type="curve" smooth="yes"/>
      <point x="114.80661001350265" y="421"/>
      <point x="138.13742764147716" y="523"/>
      <point x="151.92719210844658" y="567" type="curve" smooth="yes"/>
      <point x="158.55412514950015" y="588"/>
      <point x="167.9131089981226" y="608"/>
      <point x="196.9131089981226" y="608" type="curve" smooth="yes"/>
      <point x="224.9131089981226" y="608"/>
      <point x="220.87463322518892" y="578"/>
    </contour>
  </outline>
</glyph>
<glyph name="V" format="2">
  <advance width="500"/>
  <unicode hex="0056"/>
  <anchor x="360.7695154586736" y="600" name="top"/>
  <anchor x="200.0" y="0" name="cedilla"/>
  <anchor x="200.0" y="0" name="ogonek"/>
  <anchor x="200.0" y="0" name="bottom"/>
  <outline>
    <contour>
      <point x="183.9131089981226" y="608" type="curve" smooth="yes"/>
      <point x="190.44900738298483" y="610"/>
      <point x="207.64515980569146" y="607"/>
      <point x="210.33873484032668" y="576" type="curve" smooth="yes"/>
      <point x="219.027155098819" y="489"/>
      <point x="212.9886793258853" y="459"/>
      <point x="215.37067461901285" y="341" type="curve" smooth="yes"/>
      <point x="216.5616722655766" y="282"/>
      <point x="219.14497475755363" y="217"/>
      <point x="223.89110867544647" y="175" type="curve" smooth="yes"/>
      <point x="226.04878532521943" y="142"/>
      <point x="228.15390309173472" y="120"/>
      <point x="220.2397829717832" y="83" type="curve"/>
      <point x="245.99622644196177" y="153"/>
      <point x="320.0257738807144" y="280"/>
      <point x="359.78221735089295" y="350" type="curve" smooth="yes"/>
      <point x="415.3091874015741" y="449"/>
      <point x="433.88356155937004" y="481"/>
      <point x="498.33873484032665" y="576" type="curve" smooth="yes"/>
      <point x="518.6451598056915" y="607"/>
      <point x="541.3772106132603" y="606"/>
      <point x="547.8413122283981" y="604" type="curve" smooth="yes"/>
      <point x="570.429769496518" y="595"/>
      <point x="563.5348872630333" y="573"/>
      <point x="545.5682082598241" y="547" type="curve" smooth="yes"/>
      <point x="520.9220373323037" y="511"/>
      <point x="509.9027994458369" y="496"/>
      <point x="495.73996801992104" y="473" type="curve" smooth="yes"/>
      <point x="460.46686405134705" y="416"/>
      <point x="402.13604642337253" y="314"/>
      <point x="397.99245288392353" y="306" type="curve" smooth="yes"/>
      <point x="342.4654828332424" y="207"/>
      <point x="297.8141571295791" y="115"/>
      <point x="258.52181527453826" y="43" type="curve" smooth="yes"/>
      <point x="242.7512886940357" y="14"/>
      <point x="217.5884572681199" y="-9"/>
      <point x="197.5884572681199" y="-9" type="curve" smooth="yes"/>
      <point x="178.5884572681199" y="-9"/>
      <point x="168.94744111674234" y="11"/>
      <point x="165.52181527453828" y="43" type="curve" smooth="yes"/>
      <point x="165.12951042912502" y="49"/>
      <point x="153.1834505304873" y="247"/>
      <point x="152.3847577293368" y="300" type="curve" smooth="yes"/>
      <point x="151.99760766006642" y="362"/>
      <point x="150.3040326254312" y="393"/>
      <point x="148.2758664047833" y="475" type="curve" smooth="yes"/>
      <point x="147.18998652473482" y="512"/>
      <point x="146.49641149009963" y="543"/>
      <point x="146.17590341441084" y="553" type="curve" smooth="yes"/>
      <point x="144.5348872630333" y="573"/>
      <point x="153.03746465110473" y="601"/>
    </contour>
  </outline>
</glyph>
<glyph name="W" format="2">
  <advance width="500"/>
  <unicode hex="0057"/>
  <anchor x="360.7695154586736" y="600" name="top"/>
  <anchor x="103.5884572681199" y="-9" name="cedilla"/>
  <anchor x="292.5884572681199" y="-9" name="ogonek"/>
  <anchor x="200.0" y="0" name="bottom"/>
  <outline>
    <contour>
      <point x="173.37721061326036" y="606" type="curve" smooth="yes"/>
      <point x="179.64515980569146" y="607"/>
      <point x="197.30541384353586" y="602"/>
      <point x="193.4630904933088" y="569" type="curve" smooth="yes"/>
      <point x="180.20406963505877" y="471"/>
      <point x="184.4386978306991" y="498"/>
      <point x="165.6193859249771" y="327" type="curve" smooth="yes"/>
      <point x="158.95397711098985" y="276"/>
      <point x="144.53212482682403" y="155"/>
      <point x="130.1679862020587" y="79" type="curve"/>
      <point x="166.2641756343929" y="154"/>
      <point x="233.09757065043885" y="284"/>
      <point x="257.4232335022705" y="330" type="curve" smooth="yes"/>
      <point x="274.9976076600664" y="362"/>
      <point x="287.33735362222205" y="367"/>
      <point x="298.33735362222205" y="367" type="curve" smooth="yes"/>
      <point x="309.33735362222205" y="367"/>
      <point x="318.9976076600664" y="362"/>
      <point x="319.4232335022705" y="330" type="curve" smooth="yes"/>
      <point x="319.4321618364516" y="233"/>
      <point x="316.1923788646684" y="150"/>
      <point x="311.16798620205867" y="79" type="curve"/>
      <point x="334.9244296722373" y="149"/>
      <point x="385.0257738807144" y="280"/>
      <point x="406.69118269470164" y="331" type="curve" smooth="yes"/>
      <point x="463.06047609560983" y="463"/>
      <point x="464.47201882748993" y="472"/>
      <point x="511.7310396857399" y="570" type="curve" smooth="yes"/>
      <point x="528.3054138435359" y="602"/>
      <point x="548.3772106132603" y="606"/>
      <point x="554.1092614208292" y="605" type="curve" smooth="yes"/>
      <point x="581.2336170738114" y="598"/>
      <point x="575.9989888781711" y="571"/>
      <point x="565.3720558371175" y="550" type="curve" smooth="yes"/>
      <point x="549.6015292566149" y="521"/>
      <point x="478.3181157357552" y="352"/>
      <point x="457.3847577293368" y="300" type="curve" smooth="yes"/>
      <point x="446.1501295336965" y="273"/>
      <point x="360.5410531610051" y="58"/>
      <point x="357.39745962155615" y="50" type="curve" smooth="yes"/>
      <point x="343.8230854637602" y="18"/>
      <point x="321.856406460551" y="-8"/>
      <point x="292.5884572681199" y="-9" type="curve" smooth="yes"/>
      <point x="259.05255888325763" y="-11"/>
      <point x="256.8230854637602" y="18"/>
      <point x="255.20130719884952" y="53" type="curve" smooth="yes"/>
      <point x="252.20646197499238" y="109"/>
      <point x="253.80007401925513" y="156"/>
      <point x="254.72302528775373" y="204.22911071777344" type="curve"/>
      <point x="229.80007401925513" y="156"/>
      <point x="206.20646197499238" y="109"/>
      <point x="173.20130719884952" y="53" type="curve" smooth="yes"/>
      <point x="153.09103465619134" y="19"/>
      <point x="134.05255888325766" y="-11"/>
      <point x="103.5884572681199" y="-9" type="curve" smooth="yes"/>
      <point x="74.85640646055103" y="-8"/>
      <point x="66.82308546376021" y="18"/>
      <point x="70.66540881398726" y="51" type="curve" smooth="yes"/>
      <point x="71.27310396857399" y="57"/>
      <point x="90.6667900320919" y="260"/>
      <point x="98.58091015204344" y="297" type="curve" smooth="yes"/>
      <point x="101.74374157795927" y="320"/>
      <point x="125.60152925661492" y="521"/>
      <point x="128.44385260684197" y="554" type="curve" smooth="yes"/>
      <point x="131.07078564789555" y="575"/>
      <point x="142.30541384353586" y="602"/>
    </contour>
  </outline>
</glyph>
<glyph name="X" format="2">
  <advance width="500"/>
  <unicode hex="0058"/>
  <anchor x="360.7695154586736" y="600" name="top"/>
  <anchor x="20.392304845413264" y="-6" name="cedilla"/>
  <anchor x="385.9282032302755" y="-4" name="ogonek"/>
  <anchor x="200.0" y="0" name="bottom"/>
  <outline>
    <contour>
      <point x="559.1092614208292" y="605" type="curve" smooth="yes"/>
      <point x="580.9656678813802" y="597"/>
      <point x="563.587446146291" y="562"/>
      <point x="545.0323098749618" y="545" type="curve" smooth="yes"/>
      <point x="519.0656308717527" y="519"/>
      <point x="293.3462819564031" y="270"/>
      <point x="309.4373166125945" y="289" type="curve" smooth="yes"/>
      <point x="280.86294245479854" y="257"/>
      <point x="157.81415712957912" y="115"/>
      <point x="90.52181527453828" y="43" type="curve" smooth="yes"/>
      <point x="57.14359353944898" y="8"/>
      <point x="23.712812921102035" y="-16"/>
      <point x="9.464101615137757" y="-2" type="curve" smooth="yes"/>
      <point x="-9.248711305964285" y="14"/>
      <point x="7.717967697244909" y="40"/>
      <point x="44.16798620205869" y="79" type="curve" smooth="yes"/>
      <point x="61.9910716658189" y="97"/>
      <point x="216.88218034126538" y="272"/>
      <point x="296.92581089034195" y="358" type="curve" smooth="yes"/>
      <point x="430.7784437928547" y="503"/>
      <point x="478.8553953387221" y="563"/>
      <point x="507.0182267646379" y="586" type="curve" smooth="yes"/>
      <point x="535.4490073829849" y="610"/>
      <point x="553.3772106132603" y="606"/>
    </contour>
    <contour>
      <point x="165.5015662662425" y="599" type="curve" smooth="yes"/>
      <point x="171.76951545867362" y="600"/>
      <point x="184" y="605"/>
      <point x="202" y="584" type="curve" smooth="yes"/>
      <point x="221" y="562"/>
      <point x="239" y="502"/>
      <point x="297" y="358" type="curve" smooth="yes"/>
      <point x="332" y="273"/>
      <point x="395" y="99"/>
      <point x="401" y="80" type="curve" smooth="yes"/>
      <point x="416" y="41"/>
      <point x="426.01923788646684" y="15"/>
      <point x="398.7320508075689" y="-1" type="curve" smooth="yes"/>
      <point x="376.24871130596426" y="-14"/>
      <point x="356.6794919243112" y="10"/>
      <point x="343.3256628518316" y="46" type="curve" smooth="yes"/>
      <point x="316.8859538993036" y="119"/>
      <point x="267.86294245479854" y="257"/>
      <point x="256.4373166125945" y="289" type="curve" smooth="yes"/>
      <point x="262.3462819564031" y="270"/>
      <point x="167.72588490959706" y="514"/>
      <point x="152.42461472037513" y="539" type="curve" smooth="yes"/>
      <point x="141.7118017992731" y="555"/>
      <point x="139.82207434193126" y="589"/>
    </contour>
  </outline>
</glyph>
<glyph name="Y" format="2">
  <advance width="500"/>
  <unicode hex="0059"/>
  <anchor x="360.7695154586736" y="600" name="top"/>
  <anchor x="197.85640646055103" y="-8" name="cedilla"/>
  <anchor x="197.85640646055103" y="-8" name="ogonek"/>
  <anchor x="200.0" y="0" name="bottom"/>
  <outline>
    <contour>
      <point x="261" y="323" type="curve"/>
      <point x="254" y="339"/>
      <point x="229" y="400"/>
      <point x="210" y="431" type="curve" smooth="yes"/>
      <point x="202" y="445"/>
      <point x="161" y="530"/>
      <point x="150" y="552" type="curve" smooth="yes"/>
      <point x="142" y="568"/>
      <point x="140" y="592"/>
      <point x="157" y="601" type="curve" smooth="yes"/>
      <point x="174" y="609"/>
      <point x="186" y="596"/>
      <point x="198" y="574" type="curve" smooth="yes"/>
      <point x="211" y="548"/>
      <point x="215" y="541"/>
      <point x="244" y="476" type="curve" smooth="yes"/>
      <point x="269" y="420"/>
      <point x="292" y="383"/>
      <point x="298" y="370" type="curve"/>
      <point x="336" y="407"/>
      <point x="368" y="441"/>
      <point x="406" y="478" type="curve" smooth="yes"/>
      <point x="451" y="522"/>
      <point x="500.14258241762" y="579"/>
      <point x="512.0900235343624" y="590" type="curve" smooth="yes"/>
      <point x="527.8413122283981" y="604"/>
      <point x="550.4490073829849" y="610"/>
      <point x="560.1092614208292" y="605" type="curve" smooth="yes"/>
      <point x="580.429769496518" y="595"/>
      <point x="561.3912937235843" y="565"/>
      <point x="543.5682082598241" y="547" type="curve" smooth="yes"/>
      <point x="525.4771736036328" y="528"/>
      <point x="483" y="482"/>
      <point x="414" y="413" type="curve" smooth="yes"/>
      <point x="388" y="386"/>
      <point x="313" y="316"/>
      <point x="311" y="314" type="curve"/>
      <point x="289.7526699121404" y="223" type="line" smooth="yes"/>
      <point x="259" y="92"/>
      <point x="254.5795289339388" y="88"/>
      <point x="250.29234185504083" y="72" type="curve" smooth="yes"/>
      <point x="235.55513627132908" y="17"/>
      <point x="227.85640646055103" y="-8"/>
      <point x="197.85640646055103" y="-8" type="curve" smooth="yes"/>
      <point x="166.85640646055103" y="-8"/>
      <point x="173.2346281956403" y="27"/>
      <point x="186.56029104747196" y="73" type="curve" smooth="yes"/>
      <point x="187.36413862476533" y="76"/>
      <point x="207" y="141"/>
      <point x="218" y="180" type="curve" smooth="yes"/>
      <point x="227" y="214"/>
      <point x="250" y="280"/>
    </contour>
  </outline>
</glyph>
<glyph name="Z" format="2">
  <advance width="500"/>
  <unicode hex="005A"/>
  <anchor x="360.7695154586736" y="600" name="top"/>
  <anchor x="200.80384757729337" y="3" name="cedilla"/>
  <anchor x="298.80384757729337" y="3" name="ogonek"/>
  <anchor x="208.0" y="0" name="bottom"/>
  <outline>
    <contour>
      <point x="544.3054138435359" y="602" type="curve" smooth="yes"/>
      <point x="583.8413122283981" y="604"/>
      <point x="572.6592429160155" y="566"/>
      <point x="546.9605131052374" y="541" type="curve" smooth="yes"/>
      <point x="533.2092244112016" y="527"/>
      <point x="461.5771365940052" y="450"/>
      <point x="402.16043908598226" y="385" type="curve" smooth="yes"/>
      <point x="348.88733511740827" y="328"/>
      <point x="320.8488593444746" y="298"/>
      <point x="312.4373166125945" y="289" type="curve" smooth="yes"/>
      <point x="284.3988408396608" y="259"/>
      <point x="152.86671601283678" y="104"/>
      <point x="96.54105316100512" y="58" type="curve"/>
      <point x="109.6846467004541" y="66"/>
      <point x="201.95259589288523" y="67"/>
      <point x="230.95259589288523" y="67" type="curve" smooth="yes"/>
      <point x="325.22054508531636" y="68"/>
      <point x="372.6846467004541" y="66"/>
      <point x="395.8807991231607" y="63" type="curve" smooth="yes"/>
      <point x="425.07695154586736" y="60"/>
      <point x="440.93335800641836" y="52"/>
      <point x="434.5025773880714" y="28" type="curve" smooth="yes"/>
      <point x="430.2153903091735" y="12"/>
      <point x="417.7320508075689" y="-1"/>
      <point x="390.2679491924311" y="1" type="curve" smooth="yes"/>
      <point x="355.80384757729337" y="3"/>
      <point x="319.53589838486226" y="2"/>
      <point x="298.80384757729337" y="3" type="curve" smooth="yes"/>
      <point x="236.3397459621556" y="5"/>
      <point x="201.53589838486224" y="2"/>
      <point x="107.0" y="0" type="curve" smooth="yes"/>
      <point x="58.732050807568875" y="-1"/>
      <point x="33.46410161513776" y="-2"/>
      <point x="17.464101615137757" y="-2" type="curve" smooth="yes"/>
      <point x="0.46410161513775705" y="-2"/>
      <point x="-7.124355652982139" y="7"/>
      <point x="-1.3012701892219312" y="25" type="curve" smooth="yes"/>
      <point x="4.253866082107152" y="42"/>
      <point x="8.253866082107152" y="42"/>
      <point x="47.703884586920935" y="81" type="curve" smooth="yes"/>
      <point x="65.52697005068114" y="99"/>
      <point x="219.88218034126538" y="272"/>
      <point x="299.92581089034195" y="358" type="curve" smooth="yes"/>
      <point x="383.041238209143" y="448"/>
      <point x="434.8502405625792" y="507"/>
      <point x="477.76436068253076" y="544" type="curve"/>
      <point x="457.8169195657884" y="533"/>
      <point x="428.88871633551287" y="537"/>
      <point x="405.62076714308176" y="536" type="curve" smooth="yes"/>
      <point x="329.62076714308176" y="536" type="line" smooth="yes"/>
      <point x="313.62076714308176" y="536"/>
      <point x="298.62076714308176" y="536"/>
      <point x="284.62076714308176" y="536" type="curve" smooth="yes"/>
      <point x="233.62076714308176" y="536"/>
      <point x="196.62076714308176" y="536"/>
      <point x="179.156665527944" y="538" type="curve" smooth="yes"/>
      <point x="149.69256391280626" y="540"/>
      <point x="144.17590341441084" y="553"/>
      <point x="147.99898887817105" y="571" type="curve" smooth="yes"/>
      <point x="151.48232837977565" y="584"/>
      <point x="168.76951545867362" y="600"/>
      <point x="195.76951545867362" y="600" type="curve" smooth="yes"/>
      <point x="269.7695154586736" y="600"/>
      <point x="263.5015662662425" y="599"/>
      <point x="289.5015662662425" y="599" type="curve" smooth="yes"/>
      <point x="310.5015662662425" y="599"/>
      <point x="335.5015662662425" y="599"/>
      <point x="360.7695154586736" y="600" type="curve" smooth="yes"/>
      <point x="398.7695154586736" y="600"/>
      <point x="437.03746465110476" y="601"/>
      <point x="466.7695154586736" y="600" type="curve" smooth="yes"/>
      <point x="501.5015662662425" y="599"/>
      <point x="528.0374646511048" y="601"/>
    </contour>
  </outline>
</glyph>
<glyph name="bracketleft" format="2">
  <advance width="500"/>
  <unicode hex="005B"/>
  <outline>
    <contour>
      <point x="231.87978800133178" y="634" type="curve"/>
      <point x="298.75543234834964" y="641" type="line"/>
      <point x="268.1374276414772" y="523"/>
      <point x="269.6015292566149" y="521"/>
      <point x="210.33219884607917" y="311" type="curve" smooth="yes"/>
      <point x="153.402614397699" y="106"/>
      <point x="157.81415712957912" y="115"/>
      <point x="115.94228634059948" y="-45" type="curve"/>
      <point x="46.19099764656376" y="-59" type="line"/>
      <point x="47.530743608719376" y="-54"/>
      <point x="48.87048957087499" y="-49"/>
      <point x="50.2102355330306" y="-44" type="curve" smooth="yes"/>
      <point x="51.817930687617334" y="-38"/>
      <point x="81.43593539448982" y="80"/>
      <point x="140.9732149974567" y="291" type="curve" smooth="yes"/>
      <point x="208.01307198849503" y="530"/>
      <point x="212.1233445311532" y="564"/>
    </contour>
    <contour>
      <point x="46.19099764656376" y="-59" type="curve" smooth="yes"/>
      <point x="48.94228634059948" y="-45"/>
      <point x="59.549981495186216" y="-39"/>
      <point x="92.08587988004845" y="-37" type="curve" smooth="yes"/>
      <point x="144.88972745734182" y="-34"/>
      <point x="168.6217782649107" y="-35"/>
      <point x="191.6217782649107" y="-35" type="curve" smooth="yes"/>
      <point x="245.6217782649107" y="-35"/>
      <point x="238.6935750346352" y="-31"/>
      <point x="292.42562584220406" y="-32" type="curve" smooth="yes"/>
      <point x="319.42562584220406" y="-32"/>
      <point x="328.47818472546174" y="-43"/>
      <point x="323.3871500692704" y="-62" type="curve" smooth="yes"/>
      <point x="320.36791218280354" y="-77"/>
      <point x="298.81277591147443" y="-94"/>
      <point x="266.2768775266122" y="-96" type="curve" smooth="yes"/>
      <point x="216.74097914174996" y="-98"/>
      <point x="178.20508075688772" y="-100"/>
      <point x="178.20508075688772" y="-100" type="curve" smooth="yes"/>
      <point x="138.74097914174996" y="-98"/>
      <point x="103.66918237202549" y="-102"/>
      <point x="82.20508075688772" y="-100" type="curve" smooth="yes"/>
      <point x="54.740979141749975" y="-98"/>
      <point x="40.224318643354565" y="-85"/>
    </contour>
    <contour>
      <point x="231.87978800133178" y="634" type="curve" smooth="yes"/>
      <point x="239.84646700454098" y="660"/>
      <point x="261.3298065061456" y="673"/>
      <point x="289.8657048910078" y="675" type="curve" smooth="yes"/>
      <point x="312.40160327587006" y="677"/>
      <point x="345.0618573137144" y="672"/>
      <point x="385.5977556985767" y="674" type="curve" smooth="yes"/>
      <point x="385.5977556985767" y="674"/>
      <point x="424.5977556985767" y="674"/>
      <point x="471.7939081212833" y="671" type="curve" smooth="yes"/>
      <point x="503.25800973642106" y="669"/>
      <point x="515.702873465092" y="652"/>
      <point x="510.68363557862517" y="637" type="curve" smooth="yes"/>
      <point x="505.5926009224338" y="618"/>
      <point x="490.6451598056915" y="607"/>
      <point x="463.6451598056915" y="607" type="curve" smooth="yes"/>
      <point x="409.37721061326033" y="606"/>
      <point x="418.44900738298486" y="610"/>
      <point x="364.44900738298486" y="610" type="curve" smooth="yes"/>
      <point x="341.44900738298486" y="610"/>
      <point x="317.1810581905537" y="609"/>
      <point x="265.98490576784707" y="612" type="curve" smooth="yes"/>
      <point x="234.52080415270933" y="614"/>
      <point x="227.12849930729607" y="620"/>
    </contour>
  </outline>
</glyph>
<glyph name="asciicircum" format="2">
  <advance width="500"/>
  <unicode hex="005E"/>
  <outline>
    <contour>
      <point x="109.44247138873733" y="345" type="curve" smooth="yes"/>
      <point x="99.12196331304855" y="355"/>
      <point x="102.48094716167101" y="375"/>
      <point x="127.64377858758684" y="398" type="curve" smooth="yes"/>
      <point x="171.09379709240062" y="437"/>
      <point x="201.06047609560983" y="463"/>
      <point x="209.73996801992104" y="473" type="curve" smooth="yes"/>
      <point x="236.97459621556135" y="500"/>
      <point x="308.2669380706022" y="572"/>
      <point x="337.89387111165576" y="593" type="curve" smooth="yes"/>
      <point x="351.8413122283981" y="604"/>
      <point x="364.9131089981226" y="608"/>
      <point x="374.1092614208292" y="605" type="curve" smooth="yes"/>
      <point x="380.8413122283981" y="604"/>
      <point x="385.7695154586736" y="600"/>
      <point x="391.16182030408686" y="594" type="curve" smooth="yes"/>
      <point x="409.5348872630333" y="573"/>
      <point x="431.4386978306991" y="498"/>
      <point x="446.66817125019656" y="469" type="curve" smooth="yes"/>
      <point x="453.6489333637297" y="454"/>
      <point x="459.0937970924006" y="437"/>
      <point x="487.37582939515573" y="397" type="curve" smooth="yes"/>
      <point x="502.480947161671" y="375"/>
      <point x="488.8540141206174" y="354"/>
      <point x="472.9065730038751" y="343" type="curve" smooth="yes"/>
      <point x="458.495030271995" y="334"/>
      <point x="441.22708107956385" y="333"/>
      <point x="426.5860649281863" y="353" type="curve" smooth="yes"/>
      <point x="416.8014552373598" y="365"/>
      <point x="402.91172778001794" y="399"/>
      <point x="390.0745592059338" y="422" type="curve" smooth="yes"/>
      <point x="374.11303497886746" y="452"/>
      <point x="348.65408813987256" y="510"/>
      <point x="345.47717360363276" y="528" type="curve"/>
      <point x="330.9220373323037" y="511"/>
      <point x="270.91688255616083" y="455"/>
      <point x="243.14635597565825" y="426" type="curve" smooth="yes"/>
      <point x="219.4476261648802" y="401"/>
      <point x="177.53350604492866" y="364"/>
      <point x="160.31811573575519" y="352" type="curve" smooth="yes"/>
      <point x="134.49503027199498" y="334"/>
      <point x="117.76297946442611" y="335"/>
    </contour>
  </outline>
</glyph>
<glyph name="underscore" format="2">
  <advance width="500"/>
  <unicode hex="005F"/>
  <outline>
    <contour>
      <point x="-6.861561236693888" y="-48" type="curve" smooth="yes"/>
      <point x="-1.7705265805025618" y="-29"/>
      <point x="9.712812921102035" y="-16"/>
      <point x="41.98076211353316" y="-15" type="curve" smooth="yes"/>
      <point x="94.5166604983954" y="-13"/>
      <point x="157.98076211353316" y="-15"/>
      <point x="180.98076211353316" y="-15" type="curve" smooth="yes"/>
      <point x="234.71281292110203" y="-16"/>
      <point x="297.5166604983954" y="-13"/>
      <point x="350.98076211353316" y="-15" type="curve" smooth="yes"/>
      <point x="377.71281292110206" y="-16"/>
      <point x="385.42562584220406" y="-32"/>
      <point x="380.33459118601274" y="-51" type="curve" smooth="yes"/>
      <point x="376.3153532995459" y="-66"/>
      <point x="354.7602170282168" y="-83"/>
      <point x="322.4922678357857" y="-84" type="curve" smooth="yes"/>
      <point x="274.22431864335454" y="-85"/>
      <point x="201.68842025849233" y="-87"/>
      <point x="165.22431864335456" y="-85" type="curve" smooth="yes"/>
      <point x="125.76021702821681" y="-83"/>
      <point x="51.224318643354565" y="-85"/>
      <point x="29.760217028216815" y="-83" type="curve" smooth="yes"/>
      <point x="2.5640646055101826" y="-80"/>
      <point x="-12.220545085316346" y="-68"/>
    </contour>
  </outline>
</glyph>
<glyph name="grave" format="2">
  <advance width="500"/>
  <unicode hex="0060"/>
  <anchor x="360.7695154586736" y="600" name="top"/>
  <outline>
    <contour>
      <point x="415.02200032267615" y="433" type="curve" smooth="yes"/>
      <point x="401.8066100135027" y="421"/>
      <point x="386.5386608210715" y="420"/>
      <point x="367.3617462848317" y="438" type="curve" smooth="yes"/>
      <point x="343.9886793258853" y="459"/>
      <point x="310.027155098819" y="489"/>
      <point x="275.62076714308176" y="536" type="curve" smooth="yes"/>
      <point x="269.300259067393" y="546"/>
      <point x="266.33873484032665" y="576"/>
      <point x="283.3579727267935" y="591" type="curve" smooth="yes"/>
      <point x="304.44900738298486" y="610"/>
      <point x="327.44900738298486" y="610"/>
      <point x="340.62592191922465" y="592" type="curve" smooth="yes"/>
      <point x="369.9079542219797" y="552"/>
      <point x="406.5822913701481" y="506"/>
      <point x="419.88356155937004" y="481" type="curve" smooth="yes"/>
      <point x="430.79252690317867" y="462"/>
      <point x="430.77328901671183" y="447"/>
    </contour>
  </outline>
</glyph>
<glyph name="a" format="2">
  <advance width="500"/>
  <unicode hex="0061"/>
  <anchor x="290.1796769724491" y="400" name="top"/>
  <anchor x="136.85640646055103" y="-8" name="cedilla"/>
  <anchor x="360.19615242270663" y="-3" name="ogonek"/>
  <anchor x="201.0" y="0" name="bottom"/>
  <outline>
    <contour>
      <point x="315.1642126440205" y="232" type="curve" smooth="yes"/>
      <point x="334.09241587429597" y="228"/>
      <point x="345.89626345158933" y="231"/>
      <point x="361.1642126440205" y="232" type="curve"/>
      <point x="354.49880383003324" y="181" type="line"/>
      <point x="347.62315948301534" y="174"/>
      <point x="316.8911086754465" y="175"/>
      <point x="294.4270070603087" y="177" type="curve" smooth="yes"/>
      <point x="179.64239736948218" y="189"/>
      <point x="111" y="161"/>
      <point x="92" y="90" type="curve" smooth="yes"/>
      <point x="76" y="31"/>
      <point x="172.66540881398726" y="51"/>
      <point x="193.273103968574" y="57" type="curve" smooth="yes"/>
      <point x="256.56029104747194" y="73"/>
      <point x="289.9192748960944" y="93"/>
      <point x="338.1013442084771" y="131" type="curve"/>
      <point x="327.80900235343626" y="59" type="line"/>
      <point x="281.69872981077805" y="25"/>
      <point x="248.4833395016046" y="13"/>
      <point x="211.53589838486224" y="2" type="curve" smooth="yes"/>
      <point x="153.71281292110203" y="-16"/>
      <point x="-0.4307806183469438" y="-24"/>
      <point x="33.06286843554339" y="101" type="curve" smooth="yes"/>
      <point x="67.3603650667271" y="229"/>
      <point x="214.2552473002118" y="251"/>
    </contour>
    <contour>
      <point x="413.77190779860723" y="238" type="curve" smooth="yes"/>
      <point x="400.91034656191334" y="190"/>
      <point x="368.0961894323342" y="75"/>
      <point x="408.0577136594005" y="45" type="curve" smooth="yes"/>
      <point x="420.6461709275204" y="36"/>
      <point x="418.28718707889794" y="16"/>
      <point x="398.7320508075689" y="-1" type="curve" smooth="yes"/>
      <point x="387.05255888325763" y="-11"/>
      <point x="345.12435565298216" y="-7"/>
      <point x="332.75128869403574" y="14" type="curve" smooth="yes"/>
      <point x="298.56029104747194" y="73"/>
      <point x="332.4795659435664" y="166"/>
      <point x="348.55651748943376" y="226" type="curve" smooth="yes"/>
      <point x="383.92581089034195" y="358"/>
      <point x="318" y="350"/>
      <point x="258.78221735089295" y="350" type="curve" smooth="yes"/>
      <point x="214" y="350"/>
      <point x="196.0309286568572" y="336"/>
      <point x="158.9398940006659" y="317" type="curve" smooth="yes"/>
      <point x="147.60014803851027" y="312"/>
      <point x="126.79630046121692" y="309"/>
      <point x="118.42323350227049" y="330" type="curve" smooth="yes"/>
      <point x="113.44247138873733" y="345"/>
      <point x="127.99760766006642" y="362"/>
      <point x="151.01684554653326" y="377" type="curve" smooth="yes"/>
      <point x="184.91172778001794" y="399"/>
      <point x="231.8591688967603" y="410"/>
      <point x="267.8591688967603" y="410" type="curve" smooth="yes"/>
      <point x="313.8591688967603" y="410"/>
      <point x="460.9309656664848" y="414"/>
    </contour>
  </outline>
</glyph>
<glyph name="b" format="2">
  <advance width="500"/>
  <unicode hex="0062"/>
  <anchor x="370.7695154586736" y="600" name="top"/>
  <anchor x="122.78460969082653" y="-12" name="cedilla"/>
  <anchor x="122.78460969082653" y="-12" name="ogonek"/>
  <anchor x="200.0" y="0" name="bottom"/>
  <outline>
    <contour>
      <point x="60.94744111674235" y="11" type="curve" smooth="yes"/>
      <point x="58.751288694035715" y="14"/>
      <point x="42.182069312382666" y="38"/>
      <point x="47.56029104747196" y="73" type="curve" smooth="yes"/>
      <point x="50.383376511232164" y="91"/>
      <point x="62.28341352085974" y="169"/>
      <point x="108.65270692176793" y="301" type="curve" smooth="yes"/>
      <point x="155.02200032267612" y="433"/>
      <point x="170.20922441120166" y="527"/>
      <point x="179.31949695385984" y="561" type="curve" smooth="yes"/>
      <point x="183.94642999491342" y="582"/>
      <point x="208.3246517300027" y="617"/>
      <point x="228.64515980569146" y="607" type="curve" smooth="yes"/>
      <point x="234.10926142082923" y="605"/>
      <point x="247.5015662662425" y="599"/>
      <point x="241.65924291601544" y="566" type="curve" smooth="yes"/>
      <point x="236.08486875821953" y="534"/>
      <point x="217.2373906318496" y="445"/>
      <point x="182.90657300387508" y="343" type="curve" smooth="yes"/>
      <point x="136.73343202567352" y="208"/>
      <point x="114.56544582361482" y="129"/>
      <point x="111.70388458692094" y="81" type="curve" smooth="yes"/>
      <point x="110.39745962155614" y="50"/>
      <point x="125" y="40"/>
      <point x="159" y="40" type="curve" smooth="yes"/>
      <point x="229" y="40"/>
      <point x="354.08210632201025" y="116"/>
      <point x="383.0206191045715" y="224" type="curve" smooth="yes"/>
      <point x="415.1745221963062" y="344"/>
      <point x="361" y="363"/>
      <point x="287.5860649281863" y="353" type="curve" smooth="yes"/>
      <point x="255" y="349"/>
      <point x="176.92065611419906" y="302"/>
      <point x="148.1116537607628" y="243" type="curve"/>
      <point x="170.78221735089295" y="350" type="line"/>
      <point x="215.42838827841337" y="386"/>
      <point x="256.8591688967603" y="410"/>
      <point x="299.3950672816226" y="412" type="curve" smooth="yes"/>
      <point x="340.9309656664848" y="414"/>
      <point x="496.32327051189804" y="408"/>
      <point x="449.1642126440205" y="232" type="curve" smooth="yes"/>
      <point x="397.7179676972449" y="40"/>
      <point x="208.78460969082653" y="-12"/>
      <point x="122.78460969082653" y="-12" type="curve" smooth="yes"/>
      <point x="98.78460969082653" y="-12"/>
      <point x="74.12435565298213" y="-7"/>
    </contour>
  </outline>
</glyph>
<glyph name="c" format="2">
  <advance width="500"/>
  <unicode hex="0063"/>
  <anchor x="307.1796769724491" y="400" name="top"/>
  <anchor x="208.32050807568876" y="-10" name="cedilla"/>
  <anchor x="208.32050807568876" y="-10" name="ogonek"/>
  <anchor x="200.0" y="0" name="bottom"/>
  <outline>
    <contour>
      <point x="356.49364905389035" y="125" type="curve" smooth="yes"/>
      <point x="369.9769885554949" y="138"/>
      <point x="398.72827724953066" y="152"/>
      <point x="411.31673451765056" y="143" type="curve" smooth="yes"/>
      <point x="421.24493774792603" y="139"/>
      <point x="427.8859538993036" y="119"/>
      <point x="407.45517328095667" y="95" type="curve" smooth="yes"/>
      <point x="348.69872981077805" y="25"/>
      <point x="268.3205080756888" y="-10"/>
      <point x="208.32050807568876" y="-10" type="curve" smooth="yes"/>
      <point x="98.32050807568876" y="-10"/>
      <point x="25.201307198849506" y="53"/>
      <point x="64.58983848622454" y="200" type="curve" smooth="yes"/>
      <point x="108.26555685249754" y="363"/>
      <point x="210.8591688967603" y="410"/>
      <point x="320.8591688967603" y="410" type="curve" smooth="yes"/>
      <point x="392.8591688967603" y="410"/>
      <point x="430.23223585570673" y="389"/>
      <point x="462.81553834768374" y="324" type="curve" smooth="yes"/>
      <point x="469.7963004612169" y="309"/>
      <point x="456.7052658050256" y="290"/>
      <point x="444.82962145800775" y="283" type="curve" smooth="yes"/>
      <point x="421.078332763972" y="269"/>
      <point x="397.9732149974567" y="291"/>
      <point x="384.7963004612169" y="309" type="curve" smooth="yes"/>
      <point x="364.2988778492884" y="337"/>
      <point x="340.9783697735996" y="347"/>
      <point x="304.9783697735996" y="347" type="curve" smooth="yes"/>
      <point x="233.97836977359958" y="347"/>
      <point x="159.60014803851027" y="312"/>
      <point x="129.58983848622455" y="200" type="curve" smooth="yes"/>
      <point x="101.45517328095666" y="95"/>
      <point x="150.46925639128062" y="54"/>
      <point x="226.46925639128062" y="54" type="curve" smooth="yes"/>
      <point x="257.4692563912806" y="54"/>
      <point x="309.2397829717832" y="83"/>
    </contour>
  </outline>
</glyph>
<glyph name="d" format="2">
  <advance width="500"/>
  <unicode hex="0064"/>
  <anchor x="350.7695154586736" y="600" name="top"/>
  <anchor x="181.32050807568876" y="-10" name="cedilla"/>
  <anchor x="356.19615242270663" y="-3" name="ogonek"/>
  <anchor x="180.0" y="0" name="bottom"/>
  <outline>
    <contour>
      <point x="483.37721061326033" y="606" type="curve" smooth="yes"/>
      <point x="491.37721061326033" y="606"/>
      <point x="508.2336170738114" y="598"/>
      <point x="502.65924291601544" y="566" type="curve" smooth="yes"/>
      <point x="497.0848687582195" y="534"/>
      <point x="470.93612044262767" y="470"/>
      <point x="443.9065730038751" y="343" type="curve" smooth="yes"/>
      <point x="420.96806022131386" y="235"/>
      <point x="393.85263290251277" y="145"/>
      <point x="379.7231224733878" y="96" type="curve" smooth="yes"/>
      <point x="369.6128499307296" y="62"/>
      <point x="372.80900235343626" y="59"/>
      <point x="376.80900235343626" y="59" type="curve" smooth="yes"/>
      <point x="416.5410531610051" y="58"/>
      <point x="425.5936120442628" y="47"/>
      <point x="418.69872981077805" y="25" type="curve" smooth="yes"/>
      <point x="409.66025403784437" y="-5"/>
      <point x="372.19615242270663" y="-3"/>
      <point x="356.19615242270663" y="-3" type="curve" smooth="yes"/>
      <point x="306.46410161513774" y="-2"/>
      <point x="303.1820693123827" y="38"/>
      <point x="320.1872240885255" y="94" type="curve" smooth="yes"/>
      <point x="336.9244296722373" y="149"/>
      <point x="356.30780618346944" y="240"/>
      <point x="370.65270692176796" y="301" type="curve" smooth="yes"/>
      <point x="401.754051130245" y="432"/>
      <point x="431.20922441120166" y="527"/>
      <point x="440.3194969538598" y="561" type="curve" smooth="yes"/>
      <point x="444.9464299949134" y="582"/>
      <point x="461.37721061326033" y="606"/>
    </contour>
    <contour>
      <point x="334.5654458236148" y="129" type="curve"/>
      <point x="323.34490073829846" y="61" type="line"/>
      <point x="309.9141201199515" y="37"/>
      <point x="233.32050807568876" y="-10"/>
      <point x="181.32050807568876" y="-10" type="curve" smooth="yes"/>
      <point x="82.32050807568876" y="-10"/>
      <point x="18.201307198849506" y="53"/>
      <point x="57.58983848622454" y="200" type="curve" smooth="yes"/>
      <point x="101.26555685249754" y="363"/>
      <point x="203.8591688967603" y="410"/>
      <point x="313.8591688967603" y="410" type="curve" smooth="yes"/>
      <point x="395.8591688967603" y="410"/>
      <point x="393.2655568524975" y="363"/>
      <point x="399.4424713887373" y="345" type="curve"/>
      <point x="370.4706376093853" y="263" type="line"/>
      <point x="364.0450117671812" y="295"/>
      <point x="361.51426815846185" y="349"/>
      <point x="280.51426815846185" y="349" type="curve" smooth="yes"/>
      <point x="219.51426815846182" y="349"/>
      <point x="152.60014803851027" y="312"/>
      <point x="122.58983848622454" y="200" type="curve" smooth="yes"/>
      <point x="94.45517328095666" y="95"/>
      <point x="135.46925639128062" y="54"/>
      <point x="199.46925639128062" y="54" type="curve" smooth="yes"/>
      <point x="235.46925639128062" y="54"/>
      <point x="287.5795289339388" y="88"/>
    </contour>
  </outline>
</glyph>
<glyph name="e" format="2">
  <advance width="500"/>
  <unicode hex="0065"/>
  <anchor x="317.1796769724491" y="400" name="top"/>
  <anchor x="168.32050807568876" y="-10" name="cedilla"/>
  <anchor x="305.0" y="0" name="ogonek"/>
  <anchor x="200.0" y="0" name="bottom"/>
  <outline>
    <contour>
      <point x="383.08726109815314" y="172" type="curve" smooth="yes"/>
      <point x="334.0154643284286" y="168"/>
      <point x="261.40776917384187" y="162"/>
      <point x="224.40776917384187" y="162" type="curve" smooth="yes"/>
      <point x="182.40776917384187" y="162"/>
      <point x="114.94366755870412" y="164"/>
      <point x="106.74751513599749" y="167" type="curve"/>
      <point x="123.3603650667271" y="229" type="line"/>
      <point x="168.82446668186486" y="227"/>
      <point x="238.55651748943373" y="226"/>
      <point x="260.55651748943376" y="226" type="curve" smooth="yes"/>
      <point x="305.55844596697125" y="226"/>
      <point x="330.3603650667271" y="229"/>
      <point x="387.4321618364516" y="233" type="curve"/>
      <point x="403.99245288392353" y="306"/>
      <point x="378.1205868587226" y="351"/>
      <point x="320.05016654332405" y="351" type="curve" smooth="yes"/>
      <point x="255.05016654332405" y="351"/>
      <point x="159.06424965364803" y="310"/>
      <point x="129.58983848622455" y="200" type="curve" smooth="yes"/>
      <point x="98.77568135664544" y="85"/>
      <point x="134.20130719884952" y="53"/>
      <point x="184.20130719884952" y="53" type="curve" smooth="yes"/>
      <point x="278.2013071988495" y="53"/>
      <point x="323.416697508023" y="65"/>
      <point x="337.48849427774746" y="69" type="curve" smooth="yes"/>
      <point x="358.63208781719646" y="77"/>
      <point x="385.5795289339388" y="88"/>
      <point x="395.29234185504083" y="72" type="curve" smooth="yes"/>
      <point x="400.6128499307296" y="62"/>
      <point x="397.7179676972449" y="40"/>
      <point x="380.5025773880714" y="28" type="curve" smooth="yes"/>
      <point x="340.80384757729337" y="3"/>
      <point x="286.3205080756888" y="-10"/>
      <point x="168.32050807568876" y="-10" type="curve" smooth="yes"/>
      <point x="80.32050807568876" y="-10"/>
      <point x="20.91412011995154" y="37"/>
      <point x="64.58983848622454" y="200" type="curve" smooth="yes"/>
      <point x="103.97836977359958" y="347"/>
      <point x="243.8591688967603" y="410"/>
      <point x="320.8591688967603" y="410" type="curve" smooth="yes"/>
      <point x="417.8591688967603" y="410"/>
      <point x="483.51426815846185" y="349"/>
      <point x="447.2885682970026" y="225" type="curve" smooth="yes"/>
      <point x="440.78071790546846" y="200.7123716907375"/>
      <point x="428.1590578678776" y="176"/>
    </contour>
  </outline>
</glyph>
<glyph name="f" format="2">
  <advance width="500"/>
  <unicode hex="0066"/>
  <anchor x="400.7695154586736" y="600" name="top"/>
  <anchor x="126.32050807568876" y="-10" name="cedilla"/>
  <anchor x="126.32050807568876" y="-10" name="ogonek"/>
  <anchor x="200.0" y="0" name="bottom"/>
  <outline>
    <contour>
      <point x="529.6348502534057" y="495" type="curve" smooth="yes"/>
      <point x="505.8117647896455" y="477"/>
      <point x="492" y="490"/>
      <point x="477" y="510" type="curve" smooth="yes"/>
      <point x="441" y="562"/>
      <point x="406.17590341441087" y="553"/>
      <point x="374.3720558371175" y="550" type="curve" smooth="yes"/>
      <point x="330.03230987496187" y="545"/>
      <point x="300.38613894744145" y="509"/>
      <point x="254.90657300387508" y="343" type="curve" smooth="yes"/>
      <point x="216.39368606351792" y="203"/>
      <point x="191.52697005068114" y="99"/>
      <point x="179.0051547761429" y="56" type="curve" smooth="yes"/>
      <point x="165.4115427318801" y="9"/>
      <point x="154.32050807568876" y="-10"/>
      <point x="126.32050807568876" y="-10" type="curve" smooth="yes"/>
      <point x="106.32050807568876" y="-10"/>
      <point x="104.55513627132908" y="17"/>
      <point x="115.27310396857399" y="57" type="curve" smooth="yes"/>
      <point x="153.85778767865565" y="201"/>
      <point x="199.8014552373598" y="365"/>
      <point x="213.05532131946694" y="407" type="curve" smooth="yes"/>
      <point x="225.2373906318496" y="445"/>
      <point x="265.71695657541596" y="611"/>
      <point x="401.9131089981226" y="608" type="curve" smooth="yes"/>
      <point x="446.6451598056915" y="607"/>
      <point x="491.6451598056915" y="607"/>
      <point x="531.9605131052374" y="541" type="curve" smooth="yes"/>
      <point x="540.4771736036328" y="528"/>
      <point x="548.3861389474414" y="509"/>
    </contour>
    <contour>
      <point x="446.4565544990613" y="304" type="curve" smooth="yes"/>
      <point x="441.9732149974567" y="291"/>
      <point x="428.221926303421" y="277"/>
      <point x="398.221926303421" y="277" type="curve" smooth="yes"/>
      <point x="346.7578246882832" y="279"/>
      <point x="297.0257738807144" y="280"/>
      <point x="285.0257738807144" y="280" type="curve" smooth="yes"/>
      <point x="251.02577388071435" y="280"/>
      <point x="157.41807872612762" y="274"/>
      <point x="128.078332763972" y="269" type="curve" smooth="yes"/>
      <point x="104.00653599424751" y="265"/>
      <point x="92.29372307314547" y="281"/>
      <point x="96.38475772933681" y="300" type="curve" smooth="yes"/>
      <point x="100.67194480823477" y="316"/>
      <point x="122.22708107956386" y="333"/>
      <point x="154.49503027199498" y="334" type="curve" smooth="yes"/>
      <point x="202.49503027199498" y="334"/>
      <point x="284.1745221963062" y="344"/>
      <point x="321.1745221963062" y="344" type="curve" smooth="yes"/>
      <point x="353.1745221963062" y="344"/>
      <point x="403.63862381144395" y="342"/>
      <point x="417.8347762341506" y="339" type="curve" smooth="yes"/>
      <point x="449.7629794644261" y="335"/>
      <point x="452.27963996282153" y="322"/>
    </contour>
  </outline>
</glyph>
<glyph name="g" format="2">
  <advance width="500"/>
  <unicode hex="0067"/>
  <anchor x="307.1796769724491" y="400" name="top"/>
  <anchor x="165.32943640986986" y="-107" name="cedilla"/>
  <anchor x="165.32943640986986" y="-107" name="ogonek"/>
  <anchor x="200.0" y="0" name="bottom"/>
  <outline>
    <contour>
      <point x="5.033320996790806" y="-26" type="curve" smooth="yes"/>
      <point x="27.392304845413264" y="-6"/>
      <point x="47.85640646055102" y="-8"/>
      <point x="65.0333209967908" y="-26" type="curve" smooth="yes"/>
      <point x="85.87048957087498" y="-49"/>
      <point x="147.1384387633061" y="-48"/>
      <point x="193.67433714816835" y="-46" type="curve" smooth="yes"/>
      <point x="277.2820323027551" y="-40"/>
      <point x="314.39230484541326" y="-6"/>
      <point x="344.3256628518316" y="46" type="curve" smooth="yes"/>
      <point x="370.11542731880104" y="90"/>
      <point x="361.1013442084771" y="131"/>
      <point x="375.2500925240689" y="195" type="curve" smooth="yes"/>
      <point x="394.2937230731455" y="281"/>
      <point x="412.10272542658174" y="340"/>
      <point x="434.33735362222205" y="367" type="curve" smooth="yes"/>
      <point x="457.1078802027246" y="396"/>
      <point x="476.8591688967603" y="410"/>
      <point x="498.1078802027246" y="396" type="curve" smooth="yes"/>
      <point x="522.0886423162577" y="381"/>
      <point x="489.46170927520416" y="360"/>
      <point x="472.13604642337253" y="314" type="curve" smooth="yes"/>
      <point x="455.078332763972" y="269"/>
      <point x="445.62831425915823" y="230"/>
      <point x="440.3936860635179" y="203" type="curve" smooth="yes"/>
      <point x="429.53212482682403" y="155"/>
      <point x="427.67056359013014" y="107"/>
      <point x="421.5077321642143" y="84" type="curve" smooth="yes"/>
      <point x="403.8948822334847" y="22"/>
      <point x="359.54482671904333" y="-95"/>
      <point x="165.32943640986986" y="-107" type="curve" smooth="yes"/>
      <point x="98.5255888325765" y="-110"/>
      <point x="40.66918237202549" y="-102"/>
      <point x="10.564064605510183" y="-80" type="curve" smooth="yes"/>
      <point x="-5.6846467004540955" y="-66"/>
      <point x="-10.985916889676034" y="-41"/>
    </contour>
    <contour>
      <point x="441.5335060449287" y="364" type="curve"/>
      <point x="411.7963004612169" y="309" type="line"/>
      <point x="382.9065730038751" y="343"/>
      <point x="333.92581089034195" y="358"/>
      <point x="316.19376008277305" y="359" type="curve" smooth="yes"/>
      <point x="217.26555685249753" y="363"/>
      <point x="144" y="282"/>
      <point x="127" y="220" type="curve" smooth="yes"/>
      <point x="99" y="115"/>
      <point x="159" y="115"/>
      <point x="193" y="117" type="curve" smooth="yes"/>
      <point x="234" y="119"/>
      <point x="304.4603280570995" y="151"/>
      <point x="410.8821803412654" y="272" type="curve"/>
      <point x="394.8385497921888" y="186" type="line"/>
      <point x="314.6513257036633" y="92"/>
      <point x="227.80900235343626" y="59"/>
      <point x="196.80900235343626" y="59" type="curve" smooth="yes"/>
      <point x="162.80900235343626" y="59"/>
      <point x="24.541053161005117" y="58"/>
      <point x="67.14497475755363" y="217" type="curve" smooth="yes"/>
      <point x="94.74374157795927" y="320"/>
      <point x="216.46686405134705" y="416"/>
      <point x="331.73481324377815" y="417" type="curve" smooth="yes"/>
      <point x="389.73481324377815" y="417"/>
      <point x="426.42838827841337" y="386"/>
    </contour>
  </outline>
</glyph>
<glyph name="h" format="2">
  <advance width="500"/>
  <unicode hex="0068"/>
  <anchor x="380.7695154586736" y="600" name="top"/>
  <anchor x="61.85640646055102" y="-8" name="cedilla"/>
  <anchor x="346.5884572681199" y="-9" name="ogonek"/>
  <anchor x="200.0" y="0" name="bottom"/>
  <outline>
    <contour>
      <point x="236.8413122283981" y="604" type="curve" smooth="yes"/>
      <point x="264.2528549602782" y="613"/>
      <point x="269.8746332251889" y="578"/>
      <point x="261.24770018413534" y="557" type="curve" smooth="yes"/>
      <point x="233.22330752152564" y="486"/>
      <point x="211.42838827841337" y="386"/>
      <point x="181.68602791855875" y="275" type="curve" smooth="yes"/>
      <point x="167.21677152727813" y="221"/>
      <point x="124.70388458692094" y="81"/>
      <point x="122.0961894323342" y="75" type="curve" smooth="yes"/>
      <point x="110.50257738807144" y="28"/>
      <point x="96.24871130596429" y="-14"/>
      <point x="61.85640646055102" y="-8" type="curve" smooth="yes"/>
      <point x="41.19615242270663" y="-3"/>
      <point x="41.77052658050256" y="29"/>
      <point x="56.75644347017859" y="70" type="curve" smooth="yes"/>
      <point x="71.74236035985462" y="111"/>
      <point x="108.3603650667271" y="229"/>
      <point x="136.71042058116845" y="346" type="curve" smooth="yes"/>
      <point x="177.45793571716595" y="513"/>
      <point x="188.54897037335726" y="532"/>
      <point x="199.85539533872208" y="563" type="curve" smooth="yes"/>
      <point x="213.69771868894912" y="596"/>
      <point x="229.30541384353586" y="602"/>
    </contour>
    <contour>
      <point x="387.34490073829846" y="61" type="curve" smooth="yes"/>
      <point x="380.8230854637602" y="18"/>
      <point x="372.66025403784437" y="-5"/>
      <point x="346.5884572681199" y="-9" type="curve" smooth="yes"/>
      <point x="314.7846096908265" y="-12"/>
      <point x="311.0910346561913" y="19"/>
      <point x="317.8615612366939" y="48" type="curve" smooth="yes"/>
      <point x="333.0103095522857" y="112"/>
      <point x="335.9244296722373" y="149"/>
      <point x="362.2885682970026" y="225" type="curve" smooth="yes"/>
      <point x="404.9783697735996" y="347"/>
      <point x="354" y="348"/>
      <point x="320" y="348" type="curve" smooth="yes"/>
      <point x="296" y="348"/>
      <point x="214.40399561580364" y="315"/>
      <point x="162.07317798782913" y="213" type="curve"/>
      <point x="182.74374157795927" y="320" type="line"/>
      <point x="240.57198181786234" y="394"/>
      <point x="297.8591688967603" y="410"/>
      <point x="325.8591688967603" y="410" type="curve" smooth="yes"/>
      <point x="373.8591688967603" y="410"/>
      <point x="480.3040326254312" y="393"/>
      <point x="429.7001110288827" y="234" type="curve" smooth="yes"/>
      <point x="395.02954743875256" y="127"/>
      <point x="399.5128869403572" y="140"/>
    </contour>
  </outline>
</glyph>
<glyph name="i" format="2">
  <advance width="500"/>
  <unicode hex="0069"/>
  <anchor x="360.7695154586736" y="600" name="top"/>
  <anchor x="200.0" y="0" name="cedilla"/>
  <anchor x="200.0" y="0" name="ogonek"/>
  <anchor x="200.0" y="0" name="bottom"/>
  <outline>
    <contour>
      <point x="400.94127521877056" y="526" type="curve" smooth="yes"/>
      <point x="391.4912567139568" y="487"/>
      <point x="358.4002220577654" y="468"/>
      <point x="324.1322728653343" y="467" type="curve" smooth="yes"/>
      <point x="288.8643236729032" y="466"/>
      <point x="269.7592059063879" y="488"/>
      <point x="279.94127521877056" y="526" type="curve" smooth="yes"/>
      <point x="290.92719210844655" y="567"/>
      <point x="322.0182267646379" y="586"/>
      <point x="356.0182267646379" y="586" type="curve" smooth="yes"/>
      <point x="391.0182267646379" y="586"/>
      <point x="409.65924291601544" y="566"/>
    </contour>
    <component base="idotless"/>
  </outline>
</glyph>
<glyph name="j" format="2">
  <advance width="500"/>
  <unicode hex="006A"/>
  <anchor x="390.7695154586736" y="600" name="top"/>
  <anchor x="174.70765814495917" y="-72" name="cedilla"/>
  <anchor x="174.70765814495917" y="-72" name="ogonek"/>
  <anchor x="174.70765814495917" y="-72" name="bottom"/>
  <outline>
    <contour>
      <point x="489.94127521877056" y="526" type="curve" smooth="yes"/>
      <point x="480.4912567139568" y="487"/>
      <point x="447.4002220577654" y="468"/>
      <point x="413.1322728653343" y="467" type="curve" smooth="yes"/>
      <point x="377.8643236729032" y="466"/>
      <point x="358.7592059063879" y="488"/>
      <point x="368.94127521877056" y="526" type="curve" smooth="yes"/>
      <point x="379.92719210844655" y="567"/>
      <point x="411.0182267646379" y="586"/>
      <point x="445.0182267646379" y="586" type="curve" smooth="yes"/>
      <point x="480.0182267646379" y="586"/>
      <point x="498.65924291601544" y="566"/>
    </contour>
    <component base="jdotless"/>
  </outline>
</glyph>
